<svg width="66" height="32" viewBox="0 0 66 32" fill="none" xmlns="http://www.w3.org/2000/svg">
<path d="M62.6935 21.415L58.4465 19.1001L58.5679 18.8948L62.8242 21.2096L62.6935 21.415Z" fill="#5D5BF3"/>
<path d="M62.825 21.2098L58.5686 18.895L58.522 18.6803L62.7783 20.9952L62.825 21.2098Z" fill="#5D5BF3"/>
<path d="M62.7781 20.9949L58.5217 18.68L57.635 17.476L61.8913 19.7908L62.7781 20.9949Z" fill="#5D5BF3"/>
<path d="M57.5232 17.3925L61.7795 19.7073C61.7795 19.7073 61.8542 19.754 61.8915 19.7913L57.6352 17.4765C57.6352 17.4765 57.5605 17.4111 57.5232 17.3925Z" fill="#5D5BF3"/>
<path d="M57.5234 17.3923L61.7798 19.7071C61.7798 19.7071 61.6958 19.6791 61.6584 19.6791L57.4021 17.3643C57.4021 17.3643 57.4768 17.3643 57.5234 17.3923Z" fill="white"/>
<path d="M61.5 19.7538L57.2437 17.4389L57.4117 17.3643L61.668 19.6791L61.5 19.7538Z" fill="white"/>
<path d="M57.6348 22.2926L53.3784 19.9777C53.5651 20.0804 53.7611 20.1644 53.9665 20.2298C54.4612 20.3884 54.9745 20.4351 55.5066 20.3604C56.58 20.2111 57.5601 19.7911 58.4468 19.1003L62.7032 21.4152C61.8164 22.1059 60.8364 22.526 59.7629 22.6753C59.2309 22.75 58.7175 22.7033 58.2228 22.5446C58.0175 22.4793 57.8214 22.3859 57.6348 22.2926Z" fill="#5D5BF3"/>
<path d="M58.8769 20.2389L54.6206 17.9241C54.9006 18.0734 55.2273 18.1201 55.5914 18.0641C56.1514 17.9894 56.7021 17.7747 57.2435 17.4387L61.4998 19.7536C60.9584 20.0989 60.4077 20.3043 59.8477 20.379C59.4743 20.435 59.1476 20.3883 58.8769 20.2389Z" fill="white"/>
<path d="M57.2993 12.0344L61.5557 14.3493C61.5557 14.3493 61.6397 14.3959 61.677 14.4239C62.2651 14.788 62.7037 15.3107 62.9931 16.0014C63.2825 16.6828 63.4318 17.4855 63.4318 18.3909C63.4318 18.6056 63.3291 18.7363 63.1145 18.7643L58.8581 16.4494C59.0635 16.4214 59.1755 16.2908 59.1755 16.0761C59.1755 15.1707 59.0261 14.3679 58.7368 13.6866C58.4474 13.0052 58.0087 12.4731 57.4207 12.1091C57.3833 12.0811 57.3367 12.0624 57.2993 12.0344Z" fill="#5D5BF3"/>
<path d="M56.7198 14.8251C56.6265 14.4704 56.4491 14.1904 56.2251 14.0131C57.6439 14.7878 59.0627 15.5532 60.4814 16.3279C60.7148 16.5053 60.8828 16.776 60.9761 17.14C59.6974 16.4493 57.9986 15.5158 56.7198 14.8251Z" fill="white"/>
<path d="M56.2157 14.0135C56.2157 14.0135 56.1224 13.9482 56.0757 13.9202L60.332 16.235C60.3787 16.263 60.4254 16.291 60.472 16.3284C59.0533 15.5536 57.6345 14.7882 56.2157 14.0135Z" fill="white"/>
<path d="M58.8769 20.2396L54.6206 17.9247C54.6206 17.9247 54.5739 17.8967 54.5459 17.8781C54.2566 17.6914 54.0512 17.4487 53.9392 17.1313L58.1955 19.4462C58.3076 19.7636 58.5129 20.0062 58.8023 20.1929C58.8303 20.2116 58.8489 20.2209 58.8769 20.2396Z" fill="#5D5BF3"/>
<path d="M58.1955 19.446L53.9392 17.1312L58.8583 16.4404L63.1146 18.7553L58.1955 19.446Z" fill="#5D5BF3"/>
<path d="M58.1955 17.523L53.9392 15.2081L56.7208 14.8254L60.9771 17.1403L58.1955 17.523Z" fill="white"/>
<path d="M56.0767 13.9206L60.3331 16.2354C60.1184 16.1234 59.8664 16.0767 59.577 16.1234C59.2223 16.1701 58.9329 16.3288 58.6903 16.5901C58.4476 16.8515 58.2889 17.1595 58.1955 17.5235L53.9392 15.2087C54.0325 14.8446 54.1912 14.5366 54.4339 14.2753C54.6766 14.0046 54.966 13.8552 55.3207 13.8086C55.61 13.7712 55.862 13.8086 56.0767 13.9206Z" fill="#5D5BF3"/>
<path d="M57.6348 22.2924L53.3785 19.9775C53.1265 19.8375 52.9025 19.6788 52.6878 19.4828C52.3331 19.1468 52.0437 18.7268 51.8384 18.2134L56.0947 20.5282C56.3001 21.0416 56.5894 21.4616 56.9441 21.7977C57.1588 21.9937 57.3828 22.1524 57.6348 22.2924Z" fill="white"/>
<path d="M62.9928 15.9925C63.2822 16.6738 63.4315 17.4766 63.4315 18.382C63.4315 18.5967 63.3289 18.7273 63.1142 18.7553L58.1951 19.4461C58.3071 19.7634 58.5125 20.0061 58.8018 20.1928C59.0912 20.3795 59.4459 20.4355 59.8473 20.3795C60.4073 20.3048 60.958 20.0901 61.4994 19.7541L61.6674 19.6794C61.7327 19.6701 61.8074 19.7074 61.9007 19.7914L62.7782 20.9955L62.8342 21.2102L62.7035 21.4156C61.8167 22.1063 60.8367 22.5263 59.7632 22.6757C59.2312 22.7503 58.7178 22.7037 58.2231 22.545C57.7284 22.377 57.3084 22.1343 56.9443 21.7983C56.5897 21.4622 56.3003 21.0422 56.0949 20.5288C55.8803 20.0248 55.7776 19.4834 55.7776 18.9047C55.7776 18.158 55.9363 17.4486 56.2536 16.7392C56.571 16.0391 57.019 15.4417 57.6071 14.947C58.1951 14.4523 58.8578 14.1536 59.5859 14.051C60.3886 13.939 61.0887 14.0696 61.6767 14.4243C62.2648 14.779 62.7035 15.3111 62.9928 16.0018V15.9925ZM58.1951 17.5326L60.9673 17.1405C60.874 16.7859 60.6967 16.5058 60.4726 16.3285C60.2299 16.1418 59.9313 16.0765 59.5766 16.1231C59.2219 16.1698 58.9325 16.3285 58.6898 16.5898C58.4471 16.8512 58.2885 17.1592 58.1951 17.5232" fill="white"/>
<path d="M55.3291 11.7264C56.0758 11.6237 56.7385 11.7264 57.2986 12.0344L61.5549 14.3492C60.9949 14.0412 60.3322 13.9385 59.5854 14.0412C58.1667 13.2665 56.7479 12.5011 55.3291 11.7264Z" fill="white"/>
<path d="M51.8384 18.2131C51.6237 17.7091 51.521 17.1677 51.521 16.589C51.8664 16.7757 52.2024 16.9624 52.5477 17.149C52.9118 17.3451 53.2851 17.5504 53.6492 17.7464C54.0132 17.9424 54.3866 18.1478 54.7506 18.3438C55.0959 18.5305 55.432 18.7172 55.7773 18.9038C55.7773 19.4826 55.88 20.0239 56.0947 20.528C54.8159 19.8372 52.8184 19.2865 51.8384 18.2131Z" fill="white"/>
<path d="M53.3511 12.6226C53.9391 12.1279 54.6018 11.8292 55.3299 11.7266C56.7487 12.5013 58.1675 13.2667 59.5862 14.0414C58.8582 14.1441 58.2048 14.4428 57.6074 14.9375C56.1886 14.1628 54.7699 13.3974 53.3511 12.6226Z" fill="white"/>
<path d="M51.521 16.5892C51.521 15.8425 51.6797 15.1331 51.997 14.4237C53.4158 15.1984 54.8346 15.9638 56.2534 16.7386C55.936 17.4479 55.7773 18.1573 55.7773 18.9041C54.3586 18.1293 52.9398 17.3639 51.521 16.5892Z" fill="white"/>
<path d="M51.9973 14.4241C52.3147 13.724 52.7627 13.1267 53.3508 12.632C54.7695 13.4067 56.1883 14.1721 57.6071 14.9468C57.0191 15.4509 56.5617 16.0482 56.2537 16.739C54.8349 15.9642 53.4161 15.1988 51.9973 14.4241Z" fill="white"/>
<path d="M56.7302 23.9259L52.4739 21.611C52.1192 21.4244 51.8018 21.191 51.5031 20.911C51.3818 20.7896 51.2604 20.6683 51.1484 20.5376C50.8031 20.1363 50.5231 19.6695 50.299 19.1468C49.991 18.4281 49.8417 17.6441 49.851 16.8227C49.851 15.7959 50.075 14.7785 50.5044 13.8077C50.6911 13.397 50.9151 13.0143 51.1671 12.6503C51.5311 12.1369 51.9512 11.6609 52.4365 11.2595C53.2953 10.5315 54.266 10.0928 55.3208 9.94343C56.3755 9.79409 57.3556 9.94343 58.1863 10.4008L62.4427 12.7157C61.6119 12.2583 60.6412 12.1089 59.5771 12.2583C58.513 12.4076 57.561 12.8463 56.6929 13.5744C56.2075 13.9851 55.7781 14.4518 55.4234 14.9652C55.1714 15.3292 54.9474 15.7119 54.7607 16.1226C54.322 17.0933 54.1073 18.1108 54.1073 19.1375C54.1073 19.9589 54.2567 20.743 54.5554 21.4617C54.7701 21.9844 55.0594 22.4511 55.4048 22.8525C55.5168 22.9831 55.6381 23.1045 55.7595 23.2258C56.0488 23.4965 56.3755 23.7299 56.7302 23.9259Z" fill="#5D5BF3"/>
<path d="M65.0933 18.1493C65.0933 18.8867 64.7759 19.5588 64.2812 20.0068C64.4866 20.3895 64.5519 20.8655 64.4585 21.3416C64.3465 21.939 64.0105 22.4897 63.5438 22.835C62.4144 23.7218 61.1356 24.2725 59.7542 24.4685C58.9888 24.5712 58.2607 24.5058 57.5607 24.2818C56.8793 24.0578 56.2726 23.7031 55.7685 23.2271C55.6472 23.1057 55.5258 22.9844 55.4138 22.8537C55.0685 22.4523 54.7884 21.9856 54.5644 21.4629C54.2564 20.7442 54.107 19.9601 54.1164 19.1387C54.1164 18.112 54.3404 17.0946 54.7698 16.1238C54.9564 15.7131 55.1805 15.3304 55.4325 14.9664C55.7965 14.453 56.2165 13.977 56.7019 13.5756C57.5607 12.8476 58.5314 12.4089 59.5861 12.2595C60.7342 12.1008 61.7517 12.2875 62.6291 12.8196C63.4691 13.3423 64.1132 14.0983 64.5239 15.0784C64.9066 15.9745 65.0933 17.0106 65.0933 18.1587V18.1493ZM63.1144 18.756C63.3198 18.728 63.4318 18.5974 63.4318 18.3827C63.4318 17.4773 63.2824 16.6745 62.9931 15.9931C62.7037 15.3118 62.265 14.7797 61.677 14.4157C61.0889 14.0517 60.3889 13.9303 59.5861 14.0423C58.8581 14.145 58.2047 14.4437 57.6073 14.9384C57.0193 15.4424 56.5619 16.0398 56.2539 16.7305C55.9365 17.4399 55.7778 18.1493 55.7778 18.896C55.7778 19.4748 55.8805 20.0161 56.0952 20.5202C56.3006 21.0336 56.5899 21.4536 56.9446 21.7896C57.3086 22.1256 57.7287 22.3777 58.2234 22.5363C58.7181 22.695 59.2315 22.7417 59.7635 22.667C60.8369 22.5177 61.817 22.0976 62.7037 21.4069L62.8344 21.2016L62.7784 20.9869L61.901 19.7828C61.8077 19.6988 61.733 19.6614 61.6677 19.6708L61.4996 19.7454C60.9583 20.0908 60.4076 20.2962 59.8475 20.3708C59.4461 20.4268 59.0914 20.3708 58.8021 20.1842C58.5127 19.9975 58.3074 19.7548 58.1954 19.4374L63.1144 18.7467" fill="#5D5BF3"/>
<path d="M60.4728 16.3277C60.7062 16.5051 60.8742 16.7757 60.9675 17.1398L58.1953 17.5318C58.2887 17.1678 58.4473 16.8597 58.69 16.5984C58.9327 16.3277 59.2221 16.1784 59.5768 16.1317C59.9315 16.085 60.2301 16.1504 60.4728 16.337V16.3277Z" fill="#5D5BF3"/>
<path d="M53.4722 23.385L49.2158 21.0701C49.4025 21.0421 49.4958 20.9208 49.5052 20.7155L53.7615 23.0303C53.7615 23.2357 53.6682 23.357 53.4722 23.385Z" fill="#5D5BF3"/>
<path d="M51.5303 23.6643L47.2739 21.3495L49.2154 21.0695L53.4718 23.3843L51.5303 23.6643Z" fill="#5D5BF3"/>
<path d="M51.3442 23.6366L47.0879 21.3218C47.0879 21.3218 47.1906 21.3498 47.2746 21.3404L51.5309 23.6553C51.4562 23.6646 51.3909 23.6553 51.3442 23.6366Z" fill="#5D5BF3"/>
<path d="M51.3434 23.6363L47.0871 21.3215C47.0124 21.2841 46.9751 21.2001 46.9751 21.0695L51.2314 23.3843C51.2314 23.515 51.2688 23.599 51.3434 23.6363Z" fill="white"/>
<path d="M50.448 25.2797L46.1917 22.9648C46.1917 22.9648 46.1543 22.9461 46.1357 22.9368C45.6223 22.6381 45.3049 22.0501 45.3049 21.3033L49.5613 23.6182C49.5613 24.3649 49.8786 24.9436 50.392 25.2517C50.4107 25.261 50.4293 25.2703 50.448 25.2797Z" fill="#5D5BF3"/>
<path d="M49.2712 23.9729L45.0149 21.658C45.2109 21.63 45.3043 21.5087 45.3043 21.3033L49.5606 23.6182C49.5606 23.8235 49.4673 23.9449 49.2712 23.9729Z" fill="#5D5BF3"/>
<path d="M47.3206 24.2533L43.0642 21.9385L45.0244 21.6584L49.2714 23.9733L47.3206 24.2533Z" fill="#5D5BF3"/>
<path d="M47.1438 24.2345L42.8875 21.9197C42.8875 21.9197 42.9901 21.9477 43.0648 21.9383L47.3211 24.2532C47.2465 24.2625 47.1905 24.2532 47.1438 24.2345Z" fill="#5D5BF3"/>
<path d="M47.144 24.2342L42.8876 21.9194C42.813 21.882 42.7756 21.798 42.7756 21.6674L47.032 23.9822C47.032 24.1129 47.0693 24.1969 47.144 24.2342Z" fill="white"/>
<path d="M53.7524 23.0307L49.5054 20.7159L49.524 8.86157L53.7804 11.1764L53.7524 23.0307Z" fill="#5D5BF3"/>
<path d="M47.032 23.9729L42.7756 21.6581L42.785 20.8927L47.032 23.2076V23.9729Z" fill="white"/>
<path d="M51.5488 11.166L47.2925 8.85113L49.234 8.58044L53.4903 10.8953L51.5488 11.166Z" fill="white"/>
<path d="M49.4119 8.59985L53.6682 10.9147C53.7429 10.952 53.7802 11.0454 53.7802 11.1761L49.5239 8.86121C49.5239 8.7212 49.4865 8.63719 49.4119 8.59985Z" fill="#5D5BF3"/>
<path d="M49.4115 8.59984L53.6678 10.9147C53.6678 10.9147 53.5651 10.8867 53.4905 10.896L49.2341 8.58118C49.3088 8.57184 49.3648 8.58118 49.4115 8.59984Z" fill="white"/>
<path d="M50.2982 6.96626L54.5546 9.28111C54.2559 9.1131 53.8918 9.04776 53.4905 9.10376L49.2341 6.78891C49.6355 6.7329 49.9902 6.79824 50.2982 6.96626Z" fill="#5D5BF3"/>
<path d="M51.2321 23.3843L46.9851 21.0695L47.0038 9.21521L51.2601 11.5301L51.2321 23.3843Z" fill="white"/>
<path d="M49.5708 23.618L45.3145 21.3031L45.3331 11.521L49.5895 13.8358L49.5708 23.618Z" fill="#5D5BF3"/>
<path d="M47.3301 15.9275L43.0737 13.6127L45.0339 13.3326L49.2902 15.6475L47.3301 15.9275Z" fill="white"/>
<path d="M45.2205 13.3511L49.4768 15.6659C49.5515 15.7033 49.5888 15.7966 49.5888 15.9273L45.3325 13.6124C45.3325 13.4818 45.2951 13.3884 45.2205 13.3511Z" fill="#5D5BF3"/>
<path d="M45.2211 13.3509L49.4774 15.6658C49.4774 15.6658 49.3747 15.6378 49.3 15.6471L45.0437 13.3323C45.1184 13.3229 45.1744 13.3323 45.2211 13.3509Z" fill="white"/>
<path d="M53.4905 10.8966C53.6772 10.8686 53.7706 10.9619 53.7706 11.1766L53.7519 23.0309C53.7519 23.2362 53.6586 23.3576 53.4625 23.3856L51.521 23.6563C51.325 23.6843 51.2317 23.5909 51.2317 23.3856L51.2504 11.5313C51.2504 11.3166 51.3437 11.1953 51.5397 11.1673L53.4812 10.8966H53.4905Z" fill="white"/>
<path d="M51.2598 11.5301L47.0034 9.21523C47.0034 9.00054 47.0968 8.8792 47.2928 8.8512L51.5491 11.166C51.3531 11.1941 51.2598 11.3154 51.2598 11.5301Z" fill="white"/>
<path d="M44.9785 21.9567L40.7222 19.6418C40.9088 19.7445 41.1422 19.7725 41.4222 19.7351C41.7769 19.6885 42.1036 19.4925 42.3743 19.1564C42.645 18.8204 42.7757 18.4657 42.7757 18.1017L47.032 20.4165C47.032 20.7806 46.892 21.1353 46.6306 21.4713C46.36 21.8073 46.0426 21.994 45.6786 22.05C45.3985 22.0873 45.1652 22.05 44.9785 21.9567Z" fill="white"/>
<path d="M49.2905 13.8545L45.0342 11.5397C45.1369 11.5303 45.2302 11.521 45.3235 11.521L49.5799 13.8358C49.4865 13.8358 49.3839 13.8358 49.2905 13.8545Z" fill="#5D5BF3"/>
<path d="M51.5493 9.37424L47.3022 7.05938L49.2437 6.7887L53.5001 9.10355L51.5493 9.37424Z" fill="#5D5BF3"/>
<path d="M43.1484 24.5606L38.8921 22.2457C39.3308 22.4791 39.8628 22.5537 40.4976 22.4697C41.4216 22.3391 42.1777 21.8164 42.7844 20.9016L47.0407 23.2165C46.4434 24.1312 45.678 24.6539 44.7539 24.7846C44.1192 24.8779 43.5871 24.7939 43.1484 24.5606Z" fill="#5D5BF3"/>
<path d="M49.5886 13.8361L45.3323 11.5213V9.4491L49.5886 11.7639V13.8361Z" fill="#5D5BF3"/>
<path d="M47.041 20.4168L42.7847 18.102L42.794 13.9763L47.0503 16.2912L47.041 20.4168Z" fill="white"/>
<path d="M47.0503 16.2911L42.7939 13.9762C42.7939 13.7615 42.8873 13.6402 43.0833 13.6122L47.3396 15.927C47.153 15.955 47.0596 16.0764 47.0503 16.2911Z" fill="white"/>
<path d="M44.9774 21.9569L40.7211 19.642C40.6184 19.586 40.5344 19.5113 40.4504 19.418C40.2357 19.138 40.1331 18.7553 40.1331 18.2512L44.3894 20.5661C44.3894 21.0701 44.4921 21.4528 44.7068 21.7328C44.7814 21.8262 44.8748 21.9102 44.9774 21.9569Z" fill="#5D5BF3"/>
<path d="M55.4327 14.9561C55.1806 15.3201 54.9566 15.7028 54.7699 16.1135C54.3312 17.0842 54.1166 18.1016 54.1166 19.1284C54.1166 19.9498 54.2659 20.7339 54.5646 21.4526C54.7793 21.9753 55.0686 22.442 55.414 22.8434C55.386 24.0195 54.5553 25.0275 53.4632 25.1769L51.5217 25.4476C51.0923 25.5036 50.7096 25.4289 50.3923 25.2422C49.8789 24.9435 49.5615 24.3555 49.5615 23.6088L49.5802 13.8266V11.7545C49.5802 10.5504 50.4296 9.52362 51.5497 9.36494L53.4912 9.09426C54.6019 8.93558 55.4327 9.72897 55.4327 10.9331V14.9467V14.9561ZM53.7525 23.03L53.7712 11.1758C53.7712 10.9611 53.6779 10.8677 53.4912 10.8957L51.5497 11.1664C51.3537 11.1944 51.2603 11.3158 51.2603 11.5305L51.2417 23.3847C51.2417 23.5901 51.335 23.6834 51.531 23.6554L53.4725 23.3847C53.6592 23.3567 53.7525 23.2354 53.7619 23.03" fill="#5D5BF3"/>
<path d="M49.5886 11.7637L45.3323 9.44885C45.3323 8.24476 46.1817 7.21801 47.2924 7.05933L51.5488 9.37418C50.438 9.53286 49.5886 10.5596 49.5886 11.7637Z" fill="#5D5BF3"/>
<path d="M47.3398 14.1352L43.0835 11.8203L45.0437 11.5403L49.2907 13.8551L47.3398 14.1352Z" fill="#5D5BF3"/>
<path d="M45.7248 15.2549L41.4685 12.94C41.8139 12.3427 42.3926 11.9133 43.074 11.8199L47.3303 14.1348C46.6396 14.2281 46.0702 14.6575 45.7248 15.2549Z" fill="#5D5BF3"/>
<path d="M38.3507 21.807C37.8467 21.2376 37.5947 20.3602 37.604 19.1654L41.8603 21.4803C41.8603 22.675 42.1124 23.5618 42.6071 24.1218C42.7658 24.2992 42.9431 24.4485 43.1485 24.5605L38.8921 22.2457C38.6868 22.1336 38.5094 21.9936 38.3507 21.807Z" fill="white"/>
<path d="M44.3901 20.5662L40.1431 18.2513V14.3403L44.3994 16.6552L44.3901 20.5662Z" fill="#5D5BF3"/>
<path d="M42.1592 16.6546L37.9028 14.3397L39.8443 14.0597L44.1007 16.3745L42.1592 16.6546Z" fill="white"/>
<path d="M40.0312 14.088L44.2876 16.4029C44.3623 16.4402 44.3996 16.5242 44.3996 16.6642L40.1433 14.3494C40.1433 14.2187 40.1059 14.1347 40.0312 14.088Z" fill="#5D5BF3"/>
<path d="M40.0307 14.088L44.287 16.4029C44.2403 16.3749 44.175 16.3655 44.1003 16.3842L39.844 14.0693C39.9187 14.06 39.984 14.0693 40.0307 14.088Z" fill="white"/>
<path d="M40.9269 12.4455L45.1833 14.7604C44.8753 14.5923 44.5112 14.527 44.1099 14.583L39.8535 12.2682C40.2549 12.2122 40.6189 12.2775 40.9269 12.4455Z" fill="#5D5BF3"/>
<path d="M41.8601 21.4814L37.6038 19.1665L37.6131 14.7048L41.8694 17.0197L41.8601 21.4814Z" fill="white"/>
<path d="M40.199 21.7138L35.9426 19.3989L35.952 14.9373L40.2083 17.2521L40.199 21.7138Z" fill="#5D5BF3"/>
<path d="M40.0212 24.7284L35.7649 22.4135L35.7836 14.9556L40.0306 17.2704L40.0212 24.7284Z" fill="#5D5BF3"/>
<path d="M42.2528 26.1949L37.9964 23.8801C37.7351 23.7401 37.5204 23.572 37.3337 23.404C37.2404 23.32 37.1564 23.2267 37.0724 23.1427C36.307 22.2839 35.9336 21.0238 35.9336 19.3904L40.1899 21.7052C40.1899 23.3387 40.5633 24.5988 41.3287 25.4575C41.4034 25.5415 41.4874 25.6349 41.5901 25.7189C41.7767 25.8869 41.9914 26.0549 42.2528 26.1949Z" fill="#5D5BF3"/>
<path d="M41.8701 17.0192L37.6138 14.7044C37.6138 14.4897 37.7071 14.3683 37.9031 14.3403L42.1595 16.6552C41.9635 16.6832 41.8701 16.8045 41.8701 17.0192Z" fill="white"/>
<path d="M49.2905 15.6473C49.4866 15.6193 49.5799 15.7126 49.5799 15.9273L49.5612 23.6186C49.5612 23.824 49.4679 23.9453 49.2719 23.9733L47.3117 24.244C47.125 24.272 47.0317 24.1787 47.0317 23.9733V23.2079C46.4343 24.1227 45.6689 24.6547 44.7542 24.776C43.8394 24.8974 43.1114 24.6827 42.6073 24.1133C42.1033 23.5439 41.8513 22.6665 41.8606 21.4718V17.0101C41.8606 16.7954 41.9633 16.6741 42.1593 16.646L44.1008 16.3754C44.2968 16.3474 44.3995 16.4407 44.3995 16.6554V20.557C44.3995 21.0611 44.4928 21.4438 44.7075 21.7238C44.9222 22.0038 45.2489 22.1065 45.6782 22.0505C46.0329 22.0038 46.3596 21.8078 46.6303 21.4718C46.901 21.1357 47.0317 20.781 47.0317 20.417V16.282C47.0317 16.0673 47.1344 15.946 47.321 15.918L49.2812 15.6473H49.2905Z" fill="white"/>
<path d="M33.1519 29.7317L28.8955 27.4169C29.1102 27.5289 29.3435 27.6316 29.6049 27.7062C30.1556 27.8743 30.7343 27.9116 31.3317 27.8276C32.6291 27.6502 33.6839 27.0529 34.5146 26.0354C35.336 25.0274 35.7561 23.8139 35.7654 22.4138L40.0217 24.7287C40.0217 26.1288 39.6017 27.3422 38.771 28.3503C37.9496 29.3677 36.8855 29.9651 35.588 30.1424C34.9907 30.2264 34.412 30.1891 33.8612 30.0211C33.5999 29.9464 33.3665 29.8437 33.1519 29.7317Z" fill="#5D5BF3"/>
<path d="M37.4824 25.3637L33.2261 23.0488L33.2354 22.2087L37.4824 24.5236V25.3637Z" fill="white"/>
<path d="M42.1592 14.8622L37.9028 12.5474L39.8537 12.2673L44.11 14.5822L42.1592 14.8622Z" fill="#5D5BF3"/>
<path d="M32.8721 20.3601C33.1521 20.0334 33.3014 19.6041 33.3014 19.1094C34.7202 19.8841 36.139 20.6495 37.5578 21.4242C37.5578 21.9189 37.4178 22.339 37.1284 22.675C35.8496 21.9843 34.1508 21.0509 32.8721 20.3601Z" fill="white"/>
<path d="M40.2085 17.2528L35.9521 14.938C35.9521 14.2379 36.2415 13.5939 36.6989 13.1458C37.0256 12.8285 37.4456 12.6138 37.903 12.5485L42.1593 14.8633C41.6926 14.9287 41.2819 15.1433 40.9552 15.4607C40.4978 15.9087 40.2085 16.5528 40.2085 17.2528Z" fill="#5D5BF3"/>
<path d="M37.7908 17.2616L33.5344 14.9467L35.4946 14.676L39.7509 16.9909L37.7908 17.2616Z" fill="white"/>
<path d="M35.6719 14.6943L39.9282 17.0092C40.0029 17.0465 40.0402 17.1399 40.0402 17.2705L35.7839 14.9557C35.7839 14.8157 35.7465 14.7317 35.6719 14.6943Z" fill="#5D5BF3"/>
<path d="M49.5706 23.6179C49.5706 24.3646 49.8879 24.9433 50.4013 25.2513C50.084 25.5314 49.7013 25.718 49.2812 25.7741L47.3211 26.0447C47.013 26.0914 46.7237 26.0541 46.481 25.9607C45.949 26.2781 45.3702 26.4834 44.7635 26.5674C43.2141 26.7821 42.2153 26.2781 41.6086 25.718C41.5153 25.634 41.4313 25.5407 41.3473 25.4567C40.5819 24.598 40.2085 23.3379 40.2085 21.7044V17.2427C40.2178 16.5426 40.5072 15.8986 40.9646 15.4506C41.2912 15.1332 41.7113 14.9185 42.1687 14.8532L44.1101 14.5825C44.8009 14.4891 45.3796 14.7505 45.7343 15.2545C46.0796 14.6572 46.6583 14.2278 47.3397 14.1344L49.2999 13.8638C49.4026 13.8544 49.4959 13.8451 49.5892 13.8451V15.9359C49.5892 15.7212 49.4866 15.6279 49.2906 15.6559L47.3304 15.9266C47.1437 15.9546 47.0504 16.0759 47.041 16.2906V20.4256C47.041 20.7896 46.901 21.1443 46.6303 21.4804C46.3597 21.8164 46.0423 22.0031 45.6783 22.0591C45.2489 22.1244 44.9222 22.0124 44.7075 21.7324C44.4928 21.4524 44.3902 21.0697 44.3902 20.5656V16.664C44.3902 16.4493 44.2968 16.356 44.1008 16.384L42.1593 16.6547C41.9633 16.6827 41.87 16.804 41.87 17.0187V21.4804C41.8606 22.6751 42.1126 23.5619 42.6074 24.1219C43.1114 24.6913 43.8208 24.9153 44.7542 24.7846C45.6876 24.654 46.4343 24.1313 47.041 23.2165V23.9819C47.041 24.1873 47.1344 24.2806 47.3211 24.2526L49.2812 23.9819C49.4772 23.9539 49.5706 23.8326 49.5706 23.6272V23.6179Z" fill="#5D5BF3"/>
<path d="M34.1597 27.3701L29.9033 25.0553C30.2767 25.2606 30.7341 25.326 31.2661 25.2513C31.9195 25.158 32.4142 24.9059 32.7409 24.4766C33.0676 24.0565 33.2263 23.5805 33.2263 23.0485L37.4826 25.3633C37.4826 25.886 37.3146 26.3621 36.9972 26.7914C36.6705 27.2115 36.1852 27.4728 35.5224 27.5662C34.9904 27.6408 34.533 27.5755 34.1597 27.3701Z" fill="white"/>
<path d="M35.6715 14.6943L39.9278 17.0092C39.9278 17.0092 39.8252 16.9812 39.7505 16.9905L35.4941 14.6757C35.5688 14.6663 35.6248 14.6757 35.6715 14.6943Z" fill="white"/>
<path d="M31.7695 20.9671C32.2176 20.9017 32.5816 20.6964 32.871 20.3604L37.1273 22.6752C36.8379 23.0112 36.4739 23.2166 36.0259 23.2819C34.6071 22.5072 33.1883 21.7418 31.7695 20.9671Z" fill="white"/>
<path d="M34.1596 27.3704L29.9032 25.0555C29.7912 24.9995 29.6979 24.9248 29.5952 24.8408L33.8516 27.1557C33.9449 27.2397 34.0476 27.305 34.1596 27.3704Z" fill="#5D5BF3"/>
<path d="M33.7122 27.1189L29.4558 24.8041L29.6052 24.8507L33.8615 27.1563L33.7122 27.1189Z" fill="white"/>
<path d="M33.1519 29.7319L28.8955 27.4171C28.6528 27.2864 28.4381 27.1277 28.2515 26.941L32.5078 29.2559C32.6945 29.4426 32.9092 29.5919 33.1519 29.7319Z" fill="white"/>
<path d="M33.4875 27.2776L29.2312 24.9628C29.3152 24.8694 29.3899 24.8134 29.4552 24.8041L33.7116 27.1189C33.6462 27.1283 33.5716 27.1843 33.4875 27.2776Z" fill="white"/>
<path d="M31.3315 20.9677C31.4716 20.9863 31.6116 20.9863 31.7702 20.9677C33.189 21.7424 34.6078 22.5078 36.0266 23.2825C35.8679 23.3012 35.7279 23.3012 35.5879 23.2825C34.1691 22.5078 32.7503 21.7424 31.3315 20.9677Z" fill="white"/>
<path d="M32.4988 28.8637L28.2424 26.5488L29.2318 24.962L33.4882 27.2769L32.4988 28.8637Z" fill="white"/>
<path d="M32.5166 29.2655L28.2602 26.9506C28.1389 26.8573 28.1296 26.7266 28.2416 26.5586L32.4979 28.8734C32.3859 29.0415 32.3952 29.1721 32.5166 29.2655Z" fill="white"/>
<path d="M33.3014 19.1096C33.3014 18.6149 33.1614 18.2228 32.8721 17.9521C34.2909 18.7269 35.7096 19.4923 37.1284 20.267C37.4178 20.5377 37.5578 20.9297 37.5578 21.4244C36.139 20.6497 34.7202 19.8843 33.3014 19.1096Z" fill="white"/>
<path d="M28.009 29.0599C27.673 28.8732 27.3649 28.6585 27.0942 28.4065L31.3506 30.7213C31.6213 30.9734 31.9293 31.1974 32.2653 31.3747C30.9866 30.684 29.2877 29.7506 28.009 29.0599Z" fill="#5D5BF3"/>
<path d="M35.5037 12.8845C35.905 12.8285 36.2597 12.8938 36.5677 13.0618L40.8241 15.3767C40.5254 15.2087 40.1614 15.1433 39.76 15.1993C38.4812 14.5086 36.7824 13.5752 35.5037 12.8845Z" fill="#5D5BF3"/>
<path d="M30.9204 20.8365C31.0418 20.9019 31.1818 20.9486 31.3311 20.9672C32.7499 21.742 34.1687 22.5073 35.5875 23.2821C35.4381 23.2634 35.3074 23.2167 35.1768 23.1514C33.898 22.4607 32.1992 21.5273 30.9204 20.8365Z" fill="white"/>
<path d="M32.8622 17.9531C32.7782 17.8691 32.6849 17.8038 32.5916 17.7571L36.8479 20.0719C36.9412 20.1279 37.0346 20.1933 37.1186 20.2679C36.4092 19.8853 35.6998 19.4932 34.9904 19.1105C34.8224 19.0172 34.5984 18.8958 34.4304 18.8118C34.2624 18.7278 34.0477 18.6065 33.8797 18.5131C33.7957 18.4665 33.693 18.4105 33.609 18.3638C33.4596 18.2798 33.2543 18.1678 33.0956 18.0838C33.0209 18.0464 32.9182 17.9998 32.8529 17.9531H32.8622Z" fill="white"/>
<path d="M33.6094 25.6997L29.353 23.3848C29.8477 23.6555 30.4078 23.7489 31.0425 23.6649C31.5092 23.5995 31.9199 23.4408 32.2653 23.1888C32.6106 22.9368 32.9373 22.6101 33.236 22.2087L37.4923 24.5236C37.1937 24.925 36.867 25.2517 36.5216 25.5037C36.1762 25.765 35.7749 25.9144 35.2988 25.9797C34.6641 26.0731 34.1134 25.9797 33.6094 25.6997Z" fill="#5D5BF3"/>
<path d="M37.5019 18.2882L33.2456 15.9734V15.3107L37.5019 17.6255V18.2882Z" fill="white"/>
<path d="M37.5019 17.6255L33.2456 15.3107C33.2456 15.096 33.3389 14.9747 33.535 14.9467L37.7913 17.2615C37.5953 17.2895 37.5019 17.4109 37.5019 17.6255Z" fill="white"/>
<path d="M32.6014 17.7566L36.8578 20.0714C36.6244 19.9408 36.3537 19.9034 36.0364 19.9501L31.78 17.6352C32.0974 17.5886 32.3681 17.6352 32.6014 17.7566Z" fill="#5D5BF3"/>
<path d="M31.1724 27.9773L26.916 25.6625L27.6721 24.4584L31.9284 26.7732L31.1724 27.9773Z" fill="#5D5BF3"/>
<path d="M31.3499 30.7124L27.0935 28.3975C26.3655 27.7535 26.2908 26.6241 26.9162 25.6533L31.1725 27.9682C30.5471 28.9389 30.6311 30.0683 31.3499 30.7124Z" fill="#5D5BF3"/>
<path d="M32.4236 15.3484L36.6799 17.6632C36.9599 17.8126 37.2306 18.0273 37.5013 18.2886L33.245 15.9738C32.9743 15.7124 32.7036 15.4977 32.4236 15.3484Z" fill="#5D5BF3"/>
<path d="M37.7905 15.4697L33.5435 13.1548L35.5036 12.8842L39.7506 15.199L37.7905 15.4697Z" fill="#5D5BF3"/>
<path d="M35.1778 23.1513L30.9214 20.8365C30.8374 20.7898 30.7534 20.7338 30.6787 20.6685C30.3987 20.4164 30.2494 20.0337 30.2587 19.539C30.268 19.0443 30.3987 18.615 30.6881 18.2603C30.9774 17.8962 31.3415 17.6909 31.7708 17.6349L36.0272 19.9497C35.5978 20.0151 35.2338 20.2111 34.9444 20.5751C34.6551 20.9298 34.5151 21.3592 34.5151 21.8539C34.5151 22.3486 34.6551 22.7313 34.9351 22.9833C35.0098 23.0487 35.0938 23.1047 35.1778 23.1513Z" fill="#5D5BF3"/>
<path d="M36.0264 19.9502C36.4652 19.8849 36.8292 19.9875 37.1185 20.2769C37.4079 20.5476 37.5479 20.9396 37.5479 21.4343C37.5479 21.929 37.4079 22.3491 37.1185 22.6851C36.8292 23.0211 36.4652 23.2265 36.0171 23.2918C35.5691 23.3571 35.2144 23.2545 34.9344 22.9931C34.6543 22.7411 34.505 22.3584 34.5143 21.8637C34.5237 21.369 34.6543 20.9396 34.9437 20.5849C35.2331 20.2209 35.5971 20.0155 36.0264 19.9595V19.9502Z" fill="#5D5BF3"/>
<path d="M36.979 15.768L32.7227 13.4532C32.9653 13.3038 33.2454 13.2012 33.5347 13.1638L37.7911 15.4787C37.5017 15.516 37.2217 15.6187 36.979 15.768Z" fill="#5D5BF3"/>
<path d="M31.686 21.4251L27.4297 19.1102L27.4857 18.9702L31.742 21.2851L31.686 21.4251Z" fill="#5D5BF3"/>
<path d="M31.7419 21.285L27.4856 18.9701L27.5229 18.8208L31.7793 21.1357L31.7419 21.285Z" fill="#5D5BF3"/>
<path d="M39.7507 16.9911C39.9374 16.9631 40.0308 17.0565 40.0308 17.2712V24.7291C40.0121 26.1292 39.5921 27.3426 38.7707 28.3507C37.9493 29.3681 36.8852 29.9655 35.5877 30.1429C34.9904 30.2269 34.4116 30.1895 33.8609 30.0215C33.3102 29.8535 32.8622 29.6015 32.5075 29.2561C32.3862 29.1628 32.3768 29.0321 32.4888 28.8641L33.4782 27.2773C33.5622 27.184 33.6369 27.128 33.7023 27.1186L33.8423 27.1653C34.2716 27.5293 34.8223 27.6693 35.5131 27.5667C36.2038 27.464 36.6612 27.2213 36.9879 26.7919C37.3146 26.3719 37.4732 25.8959 37.4732 25.3638V24.5144C37.1745 24.9158 36.8478 25.2425 36.5025 25.4945C36.1571 25.7558 35.7558 25.9052 35.2797 25.9705C34.6263 26.0639 34.0476 25.9612 33.5342 25.6625C33.0302 25.3545 32.6382 24.9064 32.3675 24.2997C32.0875 23.7024 31.9568 23.0023 31.9568 22.2089C31.9568 20.9861 32.2648 19.9314 32.8902 19.0166C33.5156 18.1019 34.309 17.5792 35.2984 17.4392C35.7651 17.3738 36.1758 17.4205 36.5025 17.5699C36.8385 17.7285 37.1652 17.9619 37.4919 18.2792V17.6165C37.4919 17.4018 37.5946 17.2805 37.7813 17.2525L39.7414 16.9818L39.7507 16.9911ZM37.1279 22.6756C37.4079 22.3489 37.5572 21.9195 37.5572 21.4248C37.5572 20.9301 37.4172 20.5381 37.1279 20.2674C36.8385 19.9874 36.4745 19.8847 36.0358 19.9407C35.5971 19.9967 35.2424 20.2021 34.953 20.5661C34.6637 20.9208 34.5237 21.3502 34.5237 21.8449C34.5237 22.3396 34.6637 22.7223 34.9437 22.9743C35.2237 23.2356 35.5877 23.3383 36.0264 23.273C36.4651 23.2076 36.8385 23.0023 37.1279 22.6663" fill="white"/>
<path d="M31.7798 21.1353L27.5234 18.8204L28.0368 16.8323L32.2932 19.1471L31.7798 21.1353Z" fill="#5D5BF3"/>
<path d="M33.6089 25.6994L29.3525 23.3846C29.3525 23.3846 29.3058 23.3659 29.2872 23.3472C28.7831 23.0392 28.3911 22.5912 28.1204 21.9845C27.8404 21.3871 27.7097 20.687 27.7097 19.8936C27.7097 18.6709 28.0177 17.6161 28.6431 16.7014C29.2685 15.7866 30.0619 15.2639 31.0513 15.1239C31.518 15.0586 31.9287 15.1052 32.2554 15.2546C32.3114 15.2826 32.3674 15.3106 32.4234 15.3386L36.6798 17.6535C36.6238 17.6254 36.5678 17.5974 36.5118 17.5694C36.1851 17.4201 35.7837 17.3734 35.3077 17.4388C34.3183 17.5788 33.5155 18.1015 32.8995 19.0162C32.2741 19.931 31.9661 20.9857 31.9661 22.2085C31.9661 23.0019 32.0967 23.7019 32.3768 24.2993C32.6568 24.906 33.0395 25.3541 33.5435 25.6621C33.5622 25.6714 33.5809 25.6901 33.6089 25.6994Z" fill="white"/>
<path d="M26.0579 20.4441C26.6552 20.2388 27.1593 19.7534 27.43 19.1094L31.6863 21.4242C31.4156 22.0683 30.9116 22.563 30.3142 22.759C29.0354 22.0683 27.3366 21.1349 26.0579 20.4441Z" fill="#5D5BF3"/>
<path d="M26.6086 22.9556C26.2725 22.2088 26.0952 21.3688 26.0579 20.4447L30.3142 22.7596C30.3422 23.6836 30.5289 24.533 30.8649 25.2704C31.1449 25.8585 31.4903 26.3625 31.929 26.7639L27.6727 24.449C27.234 24.0383 26.8793 23.5436 26.6086 22.9556Z" fill="#5D5BF3"/>
<path d="M28.0369 16.8321C28.1302 16.4961 28.1675 16.1601 28.1395 15.8521C29.5583 16.6268 30.9771 17.3922 32.3959 18.1669C32.4239 18.4749 32.3959 18.811 32.2932 19.147C31.0144 18.4563 29.3156 17.5229 28.0369 16.8321Z" fill="#5D5BF3"/>
<path d="M27.2148 27.0813L22.9585 24.7664C23.1545 24.7384 23.2385 24.6171 23.2479 24.4117L27.5042 26.7266C27.5042 26.9319 27.4109 27.0533 27.2148 27.0813Z" fill="#5D5BF3"/>
<path d="M28.1391 15.8529C28.1204 15.5636 28.0364 15.2929 27.9058 15.0688L32.1621 17.3837C32.2928 17.6171 32.3768 17.8784 32.3955 18.1678C30.9767 17.393 29.5579 16.6276 28.1391 15.8529Z" fill="#5D5BF3"/>
<path d="M41.3377 25.4662C41.4124 25.5502 41.4964 25.6436 41.5991 25.7276C41.3937 27.109 40.8523 28.3598 39.9563 29.4426C38.8082 30.852 37.3427 31.7014 35.5972 31.9441C34.7852 32.0561 33.9918 32.0001 33.2451 31.7761C32.4983 31.5521 31.8729 31.1974 31.3596 30.7213C30.6315 30.0773 30.5568 28.9478 31.1822 27.9771L31.9383 26.773C31.4996 26.3623 31.1449 25.8676 30.8742 25.2796C30.5382 24.5328 30.3608 23.6928 30.3235 22.7687C30.9209 22.5633 31.4249 22.078 31.6956 21.4339L31.7516 21.2939L31.7889 21.1446L32.3023 19.1564C32.3957 18.8204 32.433 18.4843 32.405 18.1763C32.3863 17.887 32.3023 17.6163 32.1716 17.3923C33.0304 16.4308 34.1131 15.8428 35.3266 15.6748C35.9333 15.5908 36.4933 15.6281 36.9974 15.7775C37.24 15.6281 37.5201 15.5254 37.8094 15.4881L39.7696 15.2174C40.2269 15.1521 40.647 15.2547 40.9737 15.4788C40.5163 15.9268 40.2269 16.5709 40.2269 17.2709V21.7326C40.2176 23.3661 40.591 24.6262 41.3564 25.4849L41.3377 25.4662ZM40.0216 24.7288V17.2709C40.0403 17.0562 39.9376 16.9629 39.7509 16.9909L37.7908 17.2616C37.5947 17.2896 37.5014 17.4109 37.5014 17.6256V18.2883C37.1747 17.971 36.848 17.7376 36.512 17.5789C36.1853 17.4296 35.7839 17.3829 35.3079 17.4483C34.3185 17.5883 33.5157 18.111 32.8997 19.0257C32.2743 19.9405 31.9663 20.9952 31.9663 22.218C31.9663 23.0114 32.097 23.7114 32.377 24.3088C32.657 24.9155 33.0397 25.3636 33.5437 25.6716C34.0571 25.9703 34.6358 26.073 35.2892 25.9796C35.7559 25.9143 36.1666 25.7556 36.512 25.5036C36.8573 25.2516 37.184 24.9249 37.4827 24.5235V25.3729C37.4827 25.8956 37.3147 26.3716 36.988 26.801C36.6613 27.221 36.176 27.4824 35.5132 27.5757C34.8505 27.6691 34.2718 27.5384 33.8424 27.1744L33.7024 27.1277C33.6371 27.137 33.5624 27.193 33.4784 27.2864L32.489 28.8732C32.377 29.0412 32.3863 29.1719 32.5077 29.2652C32.8624 29.6106 33.3104 29.8626 33.8611 30.0306C34.4118 30.1986 34.9905 30.236 35.5879 30.1519C36.8853 29.9746 37.9401 29.3772 38.7708 28.3598C39.5922 27.3517 40.0123 26.1383 40.0216 24.7382" fill="#5D5BF3"/>
<path d="M31.0607 13.3419C31.6674 13.2579 32.2274 13.2952 32.7315 13.4445L36.9878 15.7594C36.4838 15.6007 35.9237 15.5727 35.317 15.6567C34.1036 15.8247 33.0208 16.4128 32.1621 17.3742L27.9058 15.0593C28.7645 14.0979 29.8473 13.5099 31.0607 13.3419Z" fill="#5D5BF3"/>
<path d="M29.968 21.0517L25.7117 18.7369C25.805 18.7275 25.8797 18.6622 25.9264 18.5502L30.1827 20.865C30.136 20.977 30.0614 21.033 29.968 21.0517Z" fill="#5D5BF3"/>
<path d="M29.8196 21.0418L25.5632 18.7269L25.7126 18.7363L29.9689 21.0511L29.8196 21.0418Z" fill="#5D5BF3"/>
<path d="M30.1841 20.8643L25.9277 18.5495L26.4598 16.5333L30.7068 18.8482L30.1841 20.8643Z" fill="#5D5BF3"/>
<path d="M30.7066 18.8481L26.4503 16.5332C26.4783 16.4306 26.4876 16.3466 26.4783 16.2532C26.4783 16.1692 26.4316 16.1132 26.3569 16.0665L30.6133 18.3814C30.6879 18.4281 30.7253 18.4841 30.7346 18.5681C30.7346 18.6521 30.7346 18.7454 30.7066 18.8481Z" fill="#5D5BF3"/>
<path d="M27.4958 26.7262L23.2395 24.4114L23.2488 20.9578L27.5052 23.2726L27.4958 26.7262Z" fill="#5D5BF3"/>
<path d="M25.2642 27.3519L21.0078 25.037L22.9586 24.7664L27.215 27.0812L25.2642 27.3519Z" fill="#5D5BF3"/>
<path d="M25.0874 27.3334L20.8311 25.0186C20.8311 25.0186 20.9337 25.0466 21.0177 25.0372L25.2741 27.3521C25.1994 27.3614 25.1341 27.3521 25.0874 27.3334Z" fill="#5D5BF3"/>
<path d="M25.0876 27.3332L20.8312 25.0184C20.7566 24.981 20.7192 24.897 20.7192 24.7664L24.9756 27.0812C24.9756 27.2119 25.0129 27.2959 25.0876 27.3332Z" fill="white"/>
<path d="M27.5049 23.2725L23.2485 20.9576C23.2485 20.3136 23.4072 19.7815 23.7152 19.3801C24.0233 18.9694 24.4153 18.7454 24.882 18.6801C25.106 18.6521 25.33 18.6614 25.5634 18.7174L29.8197 21.0323C29.5864 20.9669 29.3624 20.9576 29.1383 20.9949C28.6716 21.0603 28.2796 21.2936 27.9716 21.695C27.6636 22.0964 27.5049 22.6191 27.5049 23.2725Z" fill="#5D5BF3"/>
<path d="M29.4089 18.2786L25.1526 15.9637C25.6753 15.889 26.0767 15.9264 26.366 16.0664L30.6224 18.3812C30.3423 18.2412 29.9316 18.2039 29.4089 18.2786Z" fill="white"/>
<path d="M28.279 18.8583L24.0227 16.5434C24.3681 16.2167 24.7414 16.0207 25.1521 15.9647L29.4085 18.2796C28.9978 18.3356 28.6244 18.5316 28.279 18.8583Z" fill="white"/>
<path d="M27.5051 19.9406L23.2581 17.6258L23.2767 17.6165L27.5331 19.9313L27.5051 19.9406Z" fill="white"/>
<path d="M27.5051 19.9408L23.2581 17.626V16.7206L27.5144 19.0354L27.5051 19.9408Z" fill="#5D5BF3"/>
<path d="M27.5322 19.9316L23.2759 17.6168C23.4346 17.2341 23.6866 16.87 24.0226 16.5433L28.2789 18.8582C27.9429 19.1849 27.6909 19.5489 27.5322 19.9316Z" fill="white"/>
<path d="M24.9756 27.0813L20.7192 24.7665L20.7379 17.0752L24.9942 19.39L24.9756 27.0813Z" fill="white"/>
<path d="M23.3135 27.3142L19.0571 24.9994L19.0758 17.3081L23.3321 19.623L23.3135 27.3142Z" fill="#5D5BF3"/>
<path d="M23.2395 27.3236L18.9832 25.0088L18.9925 17.3175L23.2488 19.6324L23.2395 27.3236Z" fill="#5D5BF3"/>
<path d="M24.2002 28.9756L19.9438 26.6607C19.9438 26.6607 19.8785 26.6234 19.8505 26.6047C19.3651 26.2967 19.0664 25.718 19.0664 24.9993L23.3227 27.3141C23.3227 28.0422 23.6214 28.6116 24.1068 28.9196C24.1348 28.9382 24.1722 28.9569 24.2002 28.9756Z" fill="#5D5BF3"/>
<path d="M22.9404 27.6782L18.6841 25.3634C18.8801 25.3354 18.9734 25.214 18.9734 25.0087L23.2298 27.3235C23.2298 27.5289 23.1364 27.6502 22.9404 27.6782Z" fill="#5D5BF3"/>
<path d="M25.2834 19.0264L21.0271 16.7115L22.9686 16.4315L27.2249 18.7464L25.2834 19.0264Z" fill="white"/>
<path d="M23.1458 16.4589L27.4021 18.7737C27.4768 18.8111 27.5141 18.9044 27.5141 19.0351L23.2578 16.7202C23.2578 16.5802 23.2204 16.4962 23.1458 16.4589Z" fill="#5D5BF3"/>
<path d="M23.1454 16.4589L27.4017 18.7737C27.4017 18.7737 27.299 18.7457 27.2244 18.755L22.968 16.4402C23.0427 16.4309 23.0987 16.4402 23.1454 16.4589Z" fill="white"/>
<path d="M27.271 14.4425L31.5273 16.7574C31.5273 16.7574 31.49 16.7387 31.4713 16.7294C30.9299 16.4493 30.2579 16.3653 29.4085 16.4867C28.9231 16.552 28.4471 16.7387 27.999 17.0094L23.7427 14.6945C24.1907 14.4238 24.6668 14.2372 25.1521 14.1718C26.0015 14.0505 26.6736 14.1345 27.215 14.4145C27.2336 14.4145 27.2523 14.4332 27.271 14.4425Z" fill="#5D5BF3"/>
<path d="M27.2341 16.9539L22.9778 14.639C23.2578 14.6017 23.5192 14.6204 23.7432 14.695L27.9995 17.0099C27.7662 16.9352 27.5048 16.9165 27.2341 16.9539Z" fill="#5D5BF3"/>
<path d="M20.9985 27.9493L16.7422 25.6345L18.6837 25.3638L22.94 27.6786L20.9985 27.9493Z" fill="#5D5BF3"/>
<path d="M20.8125 27.9305L16.5562 25.6156C16.6028 25.6436 16.6682 25.6529 16.7428 25.6343L20.9992 27.9491C20.9152 27.9585 20.8592 27.9491 20.8125 27.9305Z" fill="#5D5BF3"/>
<path d="M20.8117 27.9306L16.5554 25.6158C16.4807 25.5785 16.4434 25.4944 16.4434 25.3638L20.6997 27.6786C20.6997 27.8093 20.737 27.8933 20.8117 27.9306Z" fill="white"/>
<path d="M24.9939 19.3901L20.7375 17.0752C20.7375 16.8605 20.8309 16.7392 21.0269 16.7112L25.2832 19.026C25.0872 19.054 24.9939 19.1754 24.9939 19.3901Z" fill="white"/>
<path d="M32.3957 18.1663C32.4237 18.4744 32.3957 18.8104 32.2931 19.1464L31.7797 21.1346L31.7423 21.2839L31.6863 21.4239C31.4157 22.068 30.9116 22.5627 30.3142 22.7587C30.2022 22.7961 30.0809 22.8241 29.9595 22.8427C29.6888 22.8801 29.4368 22.8707 29.2035 22.7961C29.1755 22.8427 29.1661 22.9267 29.1661 23.0481V26.4924C29.1661 27.6964 28.3167 28.7232 27.206 28.8819L25.2645 29.1526C24.8258 29.2179 24.4244 29.1246 24.1071 28.9192C23.6217 28.6112 23.323 28.0325 23.323 27.3138L23.3417 19.6225C23.3417 18.8944 23.6497 18.241 24.1351 17.793C24.4524 17.4943 24.8538 17.2983 25.3018 17.2329L27.2433 16.9623C27.5233 16.9249 27.7847 16.9436 28.0087 17.0183C28.4567 16.7476 28.9328 16.5609 29.4182 16.4955C30.2676 16.3742 30.9396 16.4582 31.481 16.7382C31.7703 16.8876 32.0037 17.1116 32.1624 17.3823C32.2931 17.6156 32.3771 17.877 32.3957 18.1663ZM30.7156 18.8477C30.7436 18.7451 30.7529 18.6611 30.7436 18.5677C30.7436 18.4837 30.6969 18.4277 30.6223 18.381C30.3422 18.241 29.9315 18.2037 29.4088 18.2784C28.9981 18.3344 28.6248 18.5304 28.2794 18.8571C27.9434 19.1838 27.6913 19.5478 27.5327 19.9305H27.514V19.0344C27.514 18.8197 27.4207 18.7264 27.234 18.7544L25.2925 19.0251C25.0965 19.0531 25.0031 19.1744 25.0031 19.3891L24.9845 27.0804C24.9845 27.2857 25.0778 27.3791 25.2738 27.3511L27.2153 27.0804C27.4113 27.0524 27.4953 26.9311 27.5047 26.7257V23.2814C27.5047 22.6374 27.6727 22.1053 27.9807 21.704C28.2887 21.2933 28.6808 21.0692 29.1475 21.0039C29.3715 20.9759 29.5955 20.9852 29.8289 21.0412H29.9782C30.0715 21.0412 30.1462 20.9759 30.1929 20.8732L30.7156 18.8571" fill="#5D5BF3"/>
<path d="M29.4092 18.2794C29.9319 18.2047 30.3332 18.2421 30.6226 18.3821C30.6973 18.4287 30.7346 18.4847 30.7439 18.5687C30.7439 18.6528 30.7439 18.7461 30.7159 18.8488L30.1932 20.8649C30.1466 20.9769 30.0719 21.0329 29.9785 21.0516H29.8292C29.5958 20.9769 29.3718 20.9676 29.1478 20.9956C28.6811 21.0609 28.2891 21.2943 27.981 21.6957C27.673 22.097 27.5143 22.6197 27.5143 23.2731V26.7174C27.5143 26.9228 27.421 27.0441 27.225 27.0721L25.2835 27.3428C25.0875 27.3708 24.9941 27.2774 24.9941 27.0721L25.0128 19.3808C25.0128 19.1661 25.1061 19.0448 25.3022 19.0168L27.2437 18.7461C27.4397 18.7181 27.5237 18.8114 27.5237 19.0261V19.9315H27.5423C27.701 19.5488 27.953 19.1848 28.2891 18.8581C28.6344 18.5314 29.0078 18.3354 29.4185 18.2794H29.4092Z" fill="white"/>
<path d="M25.2834 17.2332L21.0271 14.9183L22.9779 14.6383L27.2343 16.9532L25.2834 17.2332Z" fill="#5D5BF3"/>
<path d="M19.9254 29.574L15.6691 27.2591C15.1277 26.9698 14.7824 26.3631 14.7917 25.5977L19.048 27.9125C19.048 28.6779 19.3934 29.2846 19.9254 29.574Z" fill="#5D5BF3"/>
<path d="M21.0171 19.6235L16.7607 17.3087L18.7022 17.038L22.9586 19.3528L21.0171 19.6235Z" fill="white"/>
<path d="M23.3318 19.6237L19.0754 17.3088C19.0754 16.5808 19.3835 15.9274 19.8688 15.4794C20.1862 15.1807 20.5876 14.9847 21.0356 14.9193L25.2919 17.2342C24.8532 17.2995 24.4519 17.4955 24.1252 17.7942C23.6398 18.2422 23.3318 18.905 23.3318 19.6237Z" fill="#5D5BF3"/>
<path d="M18.8804 17.0558L23.1367 19.3706C23.2114 19.408 23.2487 19.5013 23.2487 19.632L18.9924 17.3171C18.9924 17.1865 18.955 17.0931 18.8804 17.0558Z" fill="#5D5BF3"/>
<path d="M18.8797 17.0558L23.1361 19.3706C23.1361 19.3706 23.0334 19.3426 22.9587 19.352L18.7024 17.0371C18.7771 17.0278 18.8331 17.0371 18.8797 17.0558Z" fill="white"/>
<path d="M20.6997 27.6787L16.4434 25.3639L16.462 17.6726L20.709 19.9875L20.6997 27.6787Z" fill="white"/>
<path d="M19.0391 27.9114L14.7827 25.5966L14.792 22.8057L19.0484 25.1205L19.0391 27.9114Z" fill="#5D5BF3"/>
<path d="M18.7024 15.2458C19.1038 15.1898 19.4678 15.2552 19.7665 15.4232L24.0228 17.738C23.7241 17.57 23.3601 17.5047 22.9587 17.5607C21.68 16.8699 19.9812 15.9365 18.7024 15.2458Z" fill="#5D5BF3"/>
<path d="M16.0142 28.6499L11.7578 26.335C11.8978 26.3164 12.0005 26.195 12.0845 25.9617L16.3408 28.2765C16.2662 28.5099 16.1635 28.6312 16.0142 28.6499Z" fill="#5D5BF3"/>
<path d="M20.7097 19.987L16.4534 17.6721C16.4534 17.4575 16.5467 17.3361 16.7521 17.3081L21.0084 19.623C20.8031 19.651 20.7097 19.7723 20.7097 19.987Z" fill="white"/>
<path d="M23.3137 27.3148C23.3137 28.0428 23.6124 28.6122 24.0977 28.9202C23.7804 29.2189 23.379 29.4149 22.931 29.4803L20.9895 29.751C19.8787 29.9096 19.0293 29.1162 19.0387 27.9121V25.1213L19.0573 20.2209C19.0573 19.4928 19.3747 18.8207 19.8694 18.382C20.1867 18.0927 20.5881 17.8967 21.0268 17.8313L22.9683 17.5606C23.407 17.4953 23.8084 17.5886 24.1257 17.794C23.6404 18.242 23.3323 18.9048 23.3323 19.6235L23.3137 27.3148ZM23.2297 27.3241L23.2483 19.6328C23.2483 19.4181 23.155 19.3248 22.959 19.3528L21.0175 19.6235C20.8121 19.6515 20.7188 19.7728 20.7188 19.9875L20.7001 27.6788C20.7001 27.8841 20.7935 27.9775 20.9988 27.9495L22.9403 27.6788C23.1363 27.6508 23.2297 27.5294 23.2297 27.3241Z" fill="#5D5BF3"/>
<path d="M22.9588 19.3525C23.1548 19.3245 23.2482 19.4178 23.2482 19.6325L23.2295 27.3238C23.2295 27.5292 23.1361 27.6505 22.9401 27.6785L20.9986 27.9492C20.7933 27.9772 20.7 27.8839 20.7 27.6785L20.7186 19.9872C20.7186 19.7725 20.812 19.6512 21.0173 19.6232L22.9588 19.3525Z" fill="white"/>
<path d="M21.0171 17.8311L16.7607 15.5163L18.7022 15.2456L22.9586 17.5605L21.0171 17.8311Z" fill="#5D5BF3"/>
<path d="M19.0478 25.1208L14.7915 22.8059L14.8008 17.9055L19.0572 20.2204L19.0478 25.1208Z" fill="#5D5BF3"/>
<path d="M16.3413 28.2759L12.085 25.9611L14.6798 17.9244L18.9362 20.2393L16.3413 28.2759Z" fill="#5D5BF3"/>
<path d="M16.7236 20.2296L12.4673 17.9147L14.4928 17.6254L18.7491 19.9402L16.7236 20.2296Z" fill="white"/>
<path d="M19.0569 20.2206L14.8005 17.9058C14.8005 17.1777 15.1179 16.5056 15.6126 16.0669C15.93 15.7776 16.3313 15.5816 16.77 15.5162L21.0264 17.8311C20.5877 17.8964 20.1956 18.0924 19.8689 18.3818C19.3742 18.8298 19.0569 19.4926 19.0569 20.2206Z" fill="#5D5BF3"/>
<path d="M18.9363 20.2386L14.6799 17.9238C14.7079 17.8211 14.6986 17.7558 14.6799 17.6904L18.9363 20.0053C18.9643 20.0613 18.9736 20.136 18.9363 20.2386Z" fill="#5D5BF3"/>
<path d="M14.6238 17.6448L18.8801 19.9596C18.8801 19.9596 18.9175 19.9876 18.9361 20.0063L14.6798 17.6914C14.6798 17.6914 14.6518 17.6541 14.6238 17.6448Z" fill="#5D5BF3"/>
<path d="M13.8682 28.9565L9.61182 26.6416L11.768 26.3336L16.015 28.6485L13.8682 28.9565Z" fill="#5D5BF3"/>
<path d="M14.6234 17.644L18.8797 19.9589C18.8797 19.9589 18.805 19.9309 18.749 19.9402L14.4927 17.6254C14.5393 17.6254 14.586 17.6254 14.6234 17.644Z" fill="white"/>
<path d="M13.7275 28.9296L9.47119 26.6147C9.47119 26.6147 9.56453 26.6427 9.6112 26.6427L13.8675 28.9576C13.8209 28.9576 13.7742 28.9576 13.7275 28.9296Z" fill="#5D5BF3"/>
<path d="M13.7272 28.9292L9.47086 26.6144C9.39619 26.577 9.34018 26.493 9.28418 26.353L13.5405 28.6679C13.5872 28.8079 13.6525 28.8919 13.7272 28.9292Z" fill="white"/>
<path d="M14.4927 15.834C14.866 15.7779 15.2114 15.8433 15.5101 16.002L19.7664 18.3168C19.4677 18.1581 19.1224 18.0928 18.749 18.1488C17.4702 17.4581 15.7714 16.5247 14.4927 15.834Z" fill="#5D5BF3"/>
<path d="M12.8412 30.5721L8.58481 28.2573C8.23945 28.0706 7.92209 27.7252 7.72607 27.1838L11.9824 29.4987C12.1784 30.0401 12.4865 30.3761 12.8412 30.5721Z" fill="#5D5BF3"/>
<path d="M14.9502 25.1213L10.6938 22.8065L12.1593 18.2794L16.4156 20.5943L14.9502 25.1213Z" fill="white"/>
<path d="M16.4158 20.5943L12.1594 18.2794C12.2154 18.0554 12.3274 17.9341 12.4674 17.9154L16.7238 20.2303C16.5838 20.2489 16.4811 20.3703 16.4158 20.5943Z" fill="white"/>
<path d="M16.7236 18.4378L12.4673 16.123L14.4928 15.8336L18.7491 18.1485L16.7236 18.4378Z" fill="#5D5BF3"/>
<path d="M14.9592 19.9121L10.7029 17.5973C11.0389 16.7945 11.711 16.2252 12.467 16.1132L16.7234 18.428C15.958 18.5307 15.2953 19.1094 14.9592 19.9121Z" fill="#5D5BF3"/>
<path d="M14.9504 25.1209L10.6941 22.806L9.24731 18.6897L13.4943 21.0045L14.9504 25.1209Z" fill="#5D5BF3"/>
<path d="M11.1606 21.0044L6.9043 18.6896L8.92046 18.4095L13.1768 20.7244L11.1606 21.0044Z" fill="white"/>
<path d="M9.06958 18.4384L13.3259 20.7532C13.4006 20.7905 13.4566 20.8746 13.5033 21.0052L9.24693 18.6904C9.20959 18.5597 9.14425 18.4757 9.06958 18.4384Z" fill="#5D5BF3"/>
<path d="M9.06927 18.4375L13.3256 20.7524C13.3256 20.7524 13.2323 20.7244 13.1763 20.7244L8.91992 18.4095C8.97593 18.4095 9.0226 18.4095 9.06927 18.4375Z" fill="white"/>
<path d="M9.95668 16.7954L14.213 19.1102C13.9143 18.9422 13.5596 18.8862 13.1863 18.9329L8.92993 16.618C9.31263 16.562 9.65799 16.6273 9.95668 16.7954Z" fill="#5D5BF3"/>
<path d="M13.5409 28.6678L9.29392 26.3529L6.72705 19.0443L10.9834 21.3592L13.5409 28.6678Z" fill="white"/>
<path d="M10.9829 21.3596L6.72657 19.0448C6.69857 18.9514 6.69857 18.8767 6.72657 18.8114L10.9829 21.1263C10.9549 21.1916 10.9549 21.2663 10.9829 21.3596Z" fill="white"/>
<path d="M10.9834 21.1264L6.72705 18.8116C6.75505 18.7463 6.82039 18.7089 6.9044 18.6996L11.1607 21.0144C11.0674 21.0238 11.0114 21.0704 10.9834 21.1264Z" fill="white"/>
<path d="M18.7493 18.1479C19.16 18.0919 19.5427 18.1759 19.8601 18.3813C19.3654 18.8293 19.048 19.492 19.048 20.2201V25.1205L17.8999 28.6674C17.5172 29.8342 16.6678 30.3569 16.0145 30.4503L13.8583 30.7489C13.2049 30.8423 12.3555 30.5529 11.9728 29.4982L9.4246 22.1989C9.20992 21.6295 9.25658 20.9762 9.54594 20.4068C9.87263 19.7534 10.4794 19.3054 11.1514 19.212L13.1676 18.932C13.9423 18.82 14.5957 19.2027 14.941 19.9121C15.2771 19.1093 15.9491 18.54 16.7052 18.428L18.7307 18.1386L18.7493 18.1479ZM18.936 20.2388C18.964 20.1361 18.9547 20.0708 18.936 20.0054C18.8987 19.9587 18.8427 19.9307 18.7587 19.9401L16.7332 20.2294C16.5932 20.2481 16.4905 20.3694 16.4252 20.5935L14.9597 25.1205L13.5129 21.0042C13.4476 20.7988 13.3356 20.7055 13.1956 20.7241L11.1794 21.0042C11.0861 21.0135 11.0301 21.0602 11.0021 21.1162C10.9741 21.1815 10.9741 21.2562 11.0021 21.3495L13.5689 28.6581C13.6436 28.8728 13.7556 28.9661 13.8863 28.9475L16.0425 28.6488C16.1825 28.6301 16.2852 28.5088 16.3692 28.2754L18.964 20.2388" fill="#5D5BF3"/>
<path d="M18.7495 19.941C18.8335 19.9317 18.8895 19.9503 18.9268 20.0064C18.9548 20.0624 18.9642 20.137 18.9268 20.2397L16.3319 28.2763C16.2573 28.5097 16.1546 28.631 16.0053 28.6497L13.8491 28.9484C13.7184 28.9671 13.6064 28.8737 13.5317 28.659L10.9648 21.3505C10.9368 21.2571 10.9368 21.1824 10.9648 21.1171C10.9929 21.0518 11.0582 21.0144 11.1422 21.0051L13.1584 20.7251C13.2984 20.7064 13.4104 20.7904 13.4757 21.0051L14.9225 25.1214L16.388 20.5944C16.444 20.3704 16.556 20.249 16.696 20.2304L18.7215 19.941H18.7495Z" fill="white"/>
<path d="M11.1606 19.2127L6.9043 16.8978L8.92979 16.6178L13.1768 18.9327L11.1606 19.2127Z" fill="#5D5BF3"/>
<path d="M11.9815 29.4986L7.72521 27.1838L5.177 19.8845L9.43334 22.1994L11.9815 29.4986Z" fill="#5D5BF3"/>
<path d="M9.43387 22.1991L5.17753 19.8842C4.96284 19.3149 5.00951 18.6615 5.29887 18.0921C5.62556 17.4387 6.23228 16.9907 6.90433 16.8973L11.1607 19.2122C10.4886 19.3055 9.88191 19.7536 9.55521 20.407C9.26586 20.9763 9.21919 21.6297 9.43387 22.1991Z" fill="#5D5BF3"/>
<path d="M44.801 12.6869L40.5447 10.372C40.7407 10.344 40.834 10.2227 40.834 10.0173L45.0904 12.3322C45.0904 12.5375 44.997 12.6589 44.801 12.6869Z" fill="#F8896C"/>
<path d="M42.8491 12.958L38.5928 10.6431L40.5529 10.3724L44.7999 12.6873L42.8491 12.958Z" fill="#F8896C"/>
<path d="M42.6724 12.939L38.416 10.6241C38.416 10.6241 38.5187 10.6521 38.584 10.6428L42.8404 12.9577C42.7657 12.967 42.7097 12.9577 42.6724 12.939Z" fill="#F8896C"/>
<path d="M42.6723 12.9393L38.4159 10.6245C38.3412 10.5871 38.3132 10.5031 38.3132 10.3724L42.5696 12.6873C42.5696 12.818 42.6069 12.902 42.6723 12.9393Z" fill="white"/>
<path d="M45.0994 12.3321L40.843 10.0173L40.8524 5.54626L45.1087 7.86112L45.0994 12.3321Z" fill="#F8896C"/>
<path d="M41.7765 14.5824L37.5201 12.2675C37.3055 12.1462 37.1188 11.9782 36.9788 11.7728L41.2351 14.0877C41.3751 14.293 41.5618 14.4704 41.7765 14.5824Z" fill="#F8896C"/>
<path d="M42.5696 12.6862L38.3132 10.3714L38.3226 6.45105L42.5789 8.7659L42.5696 12.6862Z" fill="white"/>
<path d="M39.6201 13.4149L35.3638 11.1001C35.5505 11.0721 35.6438 10.9507 35.6531 10.7454L39.9095 13.0602C39.9095 13.2656 39.8161 13.3869 39.6201 13.4149Z" fill="#F8896C"/>
<path d="M39.5642 2.46619L43.8206 4.78104C44.0166 4.89305 44.2032 5.03306 44.3619 5.21041C44.866 5.77979 45.118 6.65719 45.1087 7.85195L40.8523 5.5371C40.8523 4.34234 40.6096 3.4556 40.1056 2.89555C39.9469 2.71821 39.7696 2.56886 39.5642 2.46619Z" fill="#F8896C"/>
<path d="M42.5794 8.76622L38.3231 6.45137C38.3231 5.95667 38.2111 5.57397 37.9871 5.29395L42.2434 7.6088C42.4674 7.87949 42.5794 8.27152 42.5794 8.76622Z" fill="white"/>
<path d="M37.987 5.30372C37.9123 5.20105 37.819 5.12637 37.7163 5.06104L41.9727 7.37589C42.0753 7.43189 42.1687 7.5159 42.2433 7.61857C40.9646 6.92785 39.0884 6.24646 37.987 5.30372Z" fill="white"/>
<path d="M37.6785 13.686L33.4221 11.3712L35.3636 11.1005L39.62 13.4153L37.6785 13.686Z" fill="#F8896C"/>
<path d="M37.4927 13.6667L33.2363 11.3518C33.283 11.3798 33.3483 11.3891 33.423 11.3705L37.6794 13.6853C37.5953 13.6947 37.5393 13.6853 37.4927 13.6667Z" fill="#F8896C"/>
<path d="M39.9101 13.0598L35.6538 10.745L35.6631 6.60999L39.9195 8.92484L39.9101 13.0598Z" fill="#F8896C"/>
<path d="M39.5637 2.46569L43.8201 4.78055C43.3907 4.54719 42.8493 4.47252 42.2146 4.56586L37.9583 2.25101C38.593 2.15767 39.1343 2.23234 39.5637 2.46569Z" fill="white"/>
<path d="M37.4924 13.6673L33.236 11.3525C33.1614 11.3151 33.124 11.2311 33.124 11.1005L37.3804 13.4153C37.3804 13.546 37.4177 13.63 37.4924 13.6673Z" fill="white"/>
<path d="M37.7163 5.0609L41.9727 7.37575C41.786 7.27307 41.5526 7.24507 41.282 7.28241C40.9273 7.32908 40.6006 7.53443 40.3299 7.87046C40.0499 8.20648 39.9192 8.56118 39.9192 8.92521L35.6628 6.61035C35.6628 6.24632 35.8029 5.89163 36.0735 5.5556C36.3442 5.21957 36.6616 5.02356 37.0256 4.96755C37.2963 4.93022 37.5297 4.96755 37.7163 5.0609Z" fill="#F8896C"/>
<path d="M39.9192 6.12554L35.6628 3.81068L35.6722 3.04529L39.9192 5.36014V6.12554Z" fill="#F8896C"/>
<path d="M39.9192 6.12468L35.6628 3.80983C36.2602 2.89509 37.035 2.37238 37.9497 2.2417L42.206 4.55655C41.282 4.68723 40.5166 5.20994 39.9192 6.12468Z" fill="white"/>
<path d="M36.5958 15.3003L32.3395 12.9854C31.8261 12.7054 31.4994 12.1547 31.4714 11.436C31.4714 11.3986 31.4714 11.3613 31.4714 11.324L35.7278 13.6388C35.7278 13.6388 35.7278 13.7135 35.7278 13.7508C35.7558 14.4602 36.0918 15.0203 36.5958 15.3003Z" fill="#F8896C"/>
<path d="M37.6977 5.35922L33.4414 3.04437L35.3829 2.77368L39.6392 5.08853L37.6977 5.35922Z" fill="white"/>
<path d="M35.5601 2.79297L39.8164 5.10782C39.8911 5.14516 39.9284 5.22916 39.9284 5.35984L35.6721 3.04499C35.6721 2.91431 35.6347 2.83031 35.5601 2.79297Z" fill="#F8896C"/>
<path d="M35.5606 2.79296L39.817 5.10781C39.817 5.10781 39.7143 5.07981 39.6396 5.08914L35.3833 2.77429C35.458 2.76496 35.514 2.77429 35.5606 2.79296Z" fill="white"/>
<path d="M40.4608 0.832915L44.7171 3.14777C44.1197 2.82107 43.2983 2.61572 42.2156 2.7744C41.5995 2.85841 41.0301 3.06376 40.4888 3.37179L36.2324 1.05693C36.7738 0.748908 37.3432 0.543558 37.9592 0.459551C39.0513 0.310206 39.8634 0.506222 40.4608 0.832915Z" fill="#F8896C"/>
<path d="M39.6396 3.29698L35.3833 0.982131C35.6913 0.935461 35.9713 0.963463 36.2234 1.0568L40.4797 3.37166C40.2277 3.27832 39.9383 3.25031 39.6396 3.29698Z" fill="#F8896C"/>
<path d="M37.3804 13.4144L33.124 11.0995L33.1427 3.39893L37.399 5.71378L37.3804 13.4144Z" fill="white"/>
<path d="M37.3987 5.71484L33.1423 3.39998C33.1423 3.19463 33.2357 3.07329 33.441 3.04529L37.6974 5.36014C37.492 5.38814 37.3987 5.50949 37.3987 5.71484Z" fill="white"/>
<path d="M45.6314 3.87585C46.3968 4.73458 46.7702 5.99468 46.7702 7.62815V12.0992C46.7609 13.3033 45.9208 14.3207 44.81 14.4794L42.8499 14.7501C42.1592 14.8434 41.5804 14.582 41.2444 14.078C40.8991 14.6754 40.311 15.1048 39.6296 15.1981L37.6881 15.4688C36.6054 15.6181 35.784 14.8901 35.7373 13.7513C35.7373 13.714 35.7373 13.6766 35.7373 13.6393L35.756 5.93868C35.756 5.93868 35.756 5.86401 35.756 5.81734C35.812 4.66924 36.6334 3.70783 37.7161 3.54915L39.6576 3.27846C39.9656 3.23179 40.2457 3.2598 40.4977 3.35314C41.0391 3.04511 41.6084 2.83976 42.2245 2.75576C44.0073 2.50374 45.0621 3.21313 45.6408 3.85718L45.6314 3.87585ZM45.0994 12.3325V7.8615C45.1087 6.66674 44.866 5.78 44.362 5.21995C43.858 4.65058 43.1486 4.43589 42.2152 4.56657C41.2817 4.69725 40.5257 5.21995 39.9283 6.13469V5.3693C39.9283 5.16395 39.835 5.07061 39.6483 5.09861L37.7068 5.3693C37.5014 5.3973 37.4081 5.51865 37.4081 5.724L37.3894 13.4246C37.3894 13.63 37.4828 13.7233 37.6881 13.6953L39.6296 13.4246C39.8163 13.3966 39.9096 13.2753 39.919 13.0699V8.93492C39.919 8.57089 40.059 8.2162 40.339 7.88017C40.6097 7.54414 40.9271 7.34813 41.2911 7.29212C41.7205 7.23612 42.0378 7.33879 42.2525 7.62815C42.4765 7.89884 42.5885 8.29087 42.5885 8.78557V12.6966C42.5885 12.9019 42.6725 12.9952 42.8592 12.9766L44.8194 12.7059C45.0154 12.6779 45.1087 12.5565 45.1087 12.3512" fill="#F8896C"/>
<path d="M42.2159 4.5662C43.1493 4.43552 43.8587 4.6502 44.3627 5.21958C44.8667 5.78896 45.1188 6.66636 45.1094 7.86113V12.3322C45.1094 12.5375 45.0067 12.6588 44.8107 12.6868L42.8506 12.9575C42.6639 12.9855 42.5706 12.8922 42.5706 12.6775V8.76653C42.5706 8.27183 42.4679 7.88913 42.2439 7.60911C42.0292 7.32908 41.7025 7.21708 41.2824 7.27308C40.9278 7.31975 40.6011 7.5251 40.3304 7.86113C40.0503 8.19715 39.9197 8.55185 39.9197 8.91588V13.0509C39.9197 13.2562 39.817 13.3776 39.6303 13.4056L37.6888 13.6763C37.4835 13.7043 37.3901 13.6109 37.3901 13.4056L37.4088 5.70495C37.4088 5.4996 37.5021 5.37826 37.7075 5.35026L39.649 5.07957C39.8357 5.05157 39.929 5.14491 39.929 5.35026V6.11565C40.5264 5.20091 41.3011 4.6782 42.2159 4.54753V4.5662Z" fill="white"/>
<path d="M37.6977 3.56686L33.4414 1.25201L35.3829 0.981323L39.6392 3.29618L37.6977 3.56686Z" fill="#F8896C"/>
<path d="M35.7187 13.6483L31.4624 11.3334L31.4811 3.63281L35.7374 5.94767L35.7187 13.6483Z" fill="#F8896C"/>
<path d="M29.2971 4.11792L33.5535 6.43277C34.1042 6.73146 34.5429 7.17017 34.8696 7.73954C35.2243 8.35559 35.4016 9.05565 35.3923 9.83971C35.3829 10.6238 35.2149 11.3705 34.8602 12.0892L30.6039 9.77437C30.9679 9.06498 31.1359 8.30892 31.1359 7.52486C31.1359 6.7408 30.9679 6.04074 30.6132 5.42469C30.2865 4.85531 29.8478 4.42594 29.2971 4.11792Z" fill="#F8896C"/>
<path d="M29.2407 14.3581L24.9844 12.0432C25.031 12.0712 25.087 12.0992 25.1337 12.1179C25.7404 12.4166 26.4125 12.5192 27.1405 12.4166C27.8686 12.3139 28.55 12.0245 29.1567 11.5485C29.7728 11.0818 30.2581 10.4937 30.6128 9.77502L34.8692 12.0899C34.5145 12.8086 34.0291 13.406 33.4131 13.8634C32.797 14.3394 32.1249 14.6287 31.3969 14.7314C30.6688 14.8341 29.9968 14.7314 29.3901 14.4327C29.3341 14.4047 29.2874 14.3861 29.2407 14.3581Z" fill="#F8896C"/>
<path d="M28.2329 9.16743C28.5223 8.79407 28.6716 8.3647 28.6809 7.87C30.0997 8.64472 31.5185 9.41012 32.9373 10.1848C32.9373 10.6796 32.7879 11.1089 32.4893 11.4823C31.2105 10.7916 29.5117 9.85815 28.2329 9.16743Z" fill="white"/>
<path d="M35.7371 5.94742L31.4807 3.63257C31.4807 3.63257 31.4807 3.55789 31.4807 3.51122C31.5367 2.36313 32.3581 1.40172 33.4409 1.24304L37.6972 3.55789C36.6145 3.70724 35.7931 4.66865 35.7371 5.82608C35.7371 5.86341 35.7371 5.90075 35.7371 5.94742Z" fill="#F8896C"/>
<path d="M27.1409 9.83039C27.5702 9.76505 27.9436 9.55037 28.233 9.177L32.4893 11.4919C32.1999 11.8652 31.8266 12.0892 31.3972 12.1452C29.9784 11.3705 28.5597 10.6051 27.1409 9.83039Z" fill="white"/>
<path d="M28.6809 7.87946C28.6809 7.38476 28.5315 6.99273 28.2422 6.70337C29.661 7.4781 31.0797 8.24349 32.4985 9.01822C32.7879 9.30758 32.9372 9.69961 32.9372 10.1943C31.5185 9.41959 30.0997 8.65419 28.6809 7.87946Z" fill="white"/>
<path d="M26.3472 9.69995C26.5805 9.82129 26.8419 9.86796 27.1406 9.83063C28.5593 10.6054 29.9781 11.3708 31.3969 12.1455C31.0982 12.1828 30.8369 12.1455 30.6035 12.0148C29.3247 11.3241 27.6259 10.3907 26.3472 9.69995Z" fill="white"/>
<path d="M28.2415 6.70358C28.1482 6.61023 28.0548 6.5449 27.9521 6.48889L32.2085 8.80374C32.3112 8.85975 32.4138 8.93442 32.4978 9.01843C31.7885 8.63573 31.0791 8.2437 30.3697 7.861C30.2017 7.76766 29.9776 7.64632 29.8096 7.56231C29.6416 7.47831 29.4269 7.35696 29.2589 7.26362C29.1749 7.21695 29.0722 7.16095 28.9882 7.11428C28.9042 7.0676 28.8016 7.0116 28.7269 6.97426C28.5775 6.89026 28.3628 6.80625 28.2322 6.70358H28.2415Z" fill="white"/>
<path d="M29.1655 4.05298C29.1655 4.05298 29.2495 4.09965 29.2962 4.11832L33.5525 6.43317C33.5525 6.43317 33.4685 6.3865 33.4219 6.36783C32.0031 5.5931 30.5843 4.82771 29.1655 4.05298Z" fill="white"/>
<path d="M30.6033 12.015L26.347 9.70016C26.2443 9.64415 26.151 9.56948 26.0576 9.48547L30.314 11.8003C30.4073 11.8843 30.5006 11.959 30.6033 12.015Z" fill="#F8896C"/>
<path d="M27.9436 6.47975L32.1999 8.7946C31.9666 8.66392 31.6959 8.62659 31.3972 8.66392L27.1409 6.34907C27.4396 6.3024 27.7102 6.34907 27.9436 6.47975Z" fill="#F8896C"/>
<path d="M28.2046 3.76343C28.5406 3.8101 28.858 3.91277 29.166 4.05278C30.5848 4.82751 32.0036 5.59291 33.4223 6.36764C33.1143 6.21829 32.797 6.12495 32.4609 6.07828C31.0422 5.30355 29.6234 4.53816 28.2046 3.76343Z" fill="white"/>
<path d="M24.0886 13.6858C23.6966 13.4711 23.3512 13.2098 23.0432 12.9017L27.2996 15.2166C27.6076 15.5246 27.9623 15.786 28.345 16.0006C27.0662 15.3099 25.3674 14.3765 24.0886 13.6858Z" fill="#F8896C"/>
<path d="M23.0432 12.9009C23.0619 12.7703 23.0712 12.6489 23.0712 12.5089L27.3276 14.8238C27.3276 14.9544 27.3182 15.0851 27.2996 15.2158C26.0208 14.5251 24.322 13.5917 23.0432 12.9009Z" fill="#F8896C"/>
<path d="M30.324 9.31767L26.0676 7.00282C26.357 6.63879 26.721 6.41477 27.141 6.35876L31.3974 8.67362C30.968 8.72962 30.6133 8.95364 30.324 9.31767Z" fill="#F8896C"/>
<path d="M31.4063 8.67387C31.8356 8.60853 32.209 8.72987 32.4984 9.01923C32.7877 9.30859 32.9371 9.70062 32.9371 10.1953C32.9371 10.69 32.7877 11.1194 32.489 11.4928C32.1997 11.8661 31.8263 12.0901 31.3969 12.1461C30.9676 12.2022 30.6129 12.0901 30.3235 11.8008C30.0435 11.5114 29.8942 11.1194 29.9035 10.6154C29.9128 10.1113 30.0435 9.68195 30.3329 9.30859C30.6222 8.94456 30.9862 8.72054 31.4063 8.66453V8.67387Z" fill="#F8896C"/>
<path d="M30.3233 11.8005L26.0669 9.48561C25.7869 9.19625 25.6376 8.80422 25.6469 8.30018C25.6562 7.79614 25.7869 7.36677 26.0763 6.99341L30.3326 9.30826C30.0433 9.68162 29.9032 10.111 29.9032 10.615C29.9032 11.1191 30.0433 11.5111 30.3233 11.8005Z" fill="#F8896C"/>
<path d="M24.9849 12.0428C24.4435 11.7534 24.0141 11.3147 23.6968 10.7454C25.1156 11.5201 26.5343 12.2855 27.9531 13.0602C28.2705 13.6296 28.6998 14.059 29.2412 14.3577C27.9625 13.6669 26.2637 12.7335 24.9849 12.0428Z" fill="white"/>
<path d="M27.1497 3.76368C27.5137 3.70768 27.8684 3.70768 28.2044 3.76368C29.0071 4.20238 29.8099 4.64109 30.6126 5.07045C30.9766 5.26647 31.3407 5.46249 31.7047 5.66784C31.854 5.75184 32.0594 5.86385 32.2181 5.94786C32.2927 5.9852 32.3767 6.07854 32.4608 6.07854C32.1247 6.03187 31.77 6.03187 31.406 6.07854C29.9872 5.30381 28.5684 4.53841 27.1497 3.76368Z" fill="white"/>
<path d="M26.0393 4.08079C26.394 3.92211 26.7674 3.81943 27.1501 3.76343C28.5688 4.53816 29.9876 5.30355 31.4064 6.07828C31.0237 6.13429 30.6503 6.23696 30.2956 6.39564C28.8769 5.62091 27.4581 4.85552 26.0393 4.08079Z" fill="white"/>
<path d="M25.3772 15.4123L21.1208 13.0975C21.3169 13.0695 21.4102 12.9481 21.4102 12.7428L25.6665 15.0576C25.6665 15.263 25.5732 15.3843 25.3772 15.4123Z" fill="#F8896C"/>
<path d="M27.3273 14.8237L23.0803 12.5089L23.0897 8.03784L27.3367 10.3527L27.3273 14.8237Z" fill="#F8896C"/>
<path d="M23.6964 10.7453C23.3417 10.1293 23.1644 9.4292 23.1737 8.64514C24.5925 9.41987 26.0113 10.1853 27.43 10.96C27.43 11.7441 27.6074 12.4441 27.9527 13.0602C27.2434 12.6775 26.534 12.2854 25.8246 11.9027C25.6566 11.8094 25.4325 11.6881 25.2645 11.604C25.1805 11.5574 25.0685 11.5014 24.9938 11.4547C24.7231 11.3054 24.4618 11.1653 24.1911 11.016C24.0418 10.932 23.8177 10.8667 23.6964 10.7453Z" fill="white"/>
<path d="M25.1433 4.62274C25.4233 4.40806 25.722 4.23071 26.0394 4.0907C27.4582 4.86543 28.8769 5.63082 30.2957 6.40555C29.9877 6.54556 29.689 6.72291 29.3997 6.93759C27.9809 6.16287 26.5621 5.39747 25.1433 4.62274Z" fill="white"/>
<path d="M23.1638 8.65491C23.1638 7.86151 23.3505 7.12412 23.6959 6.4054C25.1146 7.18012 26.5334 7.94552 27.9522 8.72025C27.5975 9.43897 27.4202 10.1857 27.4202 10.9698C26.0014 10.195 24.5826 9.42964 23.1638 8.65491Z" fill="white"/>
<path d="M23.7061 6.39603C24.0607 5.68664 24.5368 5.08926 25.1528 4.62256C26.5716 5.39729 27.9904 6.16268 29.4092 6.93741C28.7931 7.41345 28.3171 8.0015 27.9624 8.71089C26.5436 7.93616 25.1248 7.17076 23.7061 6.39603Z" fill="white"/>
<path d="M34.8694 7.7397C35.2241 8.35575 35.4014 9.0558 35.3921 9.83986C35.3827 10.6239 35.2147 11.3707 34.86 12.0894C34.5053 12.8081 34.02 13.4055 33.4039 13.8629C32.7879 14.3389 32.1158 14.6283 31.3877 14.7309C30.6597 14.8336 29.9876 14.7309 29.3809 14.4322C28.7649 14.1429 28.2888 13.6855 27.9435 13.0601C27.5888 12.4441 27.4114 11.744 27.4208 10.96C27.4301 10.1759 27.6074 9.42917 27.9528 8.71044C28.3075 8.00105 28.7835 7.40367 29.3996 6.93696C30.0063 6.47026 30.6784 6.1809 31.4064 6.07823C32.1345 5.97555 32.8159 6.07823 33.4226 6.36759C34.0386 6.66628 34.524 7.12365 34.8694 7.7397ZM32.4892 11.492C32.7785 11.1186 32.9279 10.6893 32.9372 10.1946C32.9465 9.69985 32.7879 9.30782 32.4985 9.01847C32.2091 8.72911 31.8451 8.60777 31.4064 8.6731C30.9677 8.73844 30.6224 8.95313 30.333 9.31716C30.0436 9.69052 29.9036 10.1199 29.9036 10.6239C29.9036 11.128 30.0436 11.52 30.3237 11.8094C30.613 12.0894 30.977 12.2107 31.3971 12.1547C31.8171 12.0987 32.1998 11.8747 32.4892 11.5013" fill="white"/>
<path d="M23.416 15.6928L19.1597 13.3779L21.1198 13.0979L25.3762 15.4128L23.416 15.6928Z" fill="#F8896C"/>
<path d="M23.248 15.674L18.9917 13.3591C18.9917 13.3591 19.0944 13.3871 19.1597 13.3778L23.4161 15.6927C23.3414 15.702 23.2854 15.6927 23.248 15.674Z" fill="#F8896C"/>
<path d="M23.2479 15.6742L18.9916 13.3593C18.9169 13.322 18.8889 13.238 18.8889 13.1073L23.1453 15.4222C23.1453 15.5528 23.1826 15.6368 23.2479 15.6742Z" fill="white"/>
<path d="M25.6655 15.0576L21.4092 12.7428L21.4185 8.27173L25.6749 10.5866L25.6655 15.0576Z" fill="#F8896C"/>
<path d="M22.3522 17.3069L18.0958 14.992C17.8811 14.8707 17.6945 14.7027 17.5544 14.4973L21.8108 16.8122C21.9508 17.0175 22.1375 17.1949 22.3522 17.3069Z" fill="#F8896C"/>
<path d="M33.9458 4.51987L34.4685 4.80922C34.4032 4.77189 34.3378 4.73455 34.2632 4.70655C33.3951 4.28651 32.443 4.1465 31.4163 4.29585C30.3895 4.44519 29.4374 4.84656 28.5694 5.50928C27.8506 6.05999 27.2626 6.73205 26.7959 7.51611C26.1145 7.14275 25.1998 6.64804 24.509 6.27467C24.7891 5.89198 25.0318 5.59329 25.3678 5.26659C25.0318 5.60262 24.7797 5.89198 24.509 6.27467L22.5396 5.20125C23.0063 4.41719 23.5943 3.74514 24.313 3.19443C25.1718 2.53171 26.1332 2.12101 27.1599 1.981C28.1867 1.84098 29.1387 1.981 30.0068 2.3917C30.0722 2.42903 30.1468 2.45703 30.2122 2.49437C31.3323 3.10109 32.8257 3.91315 33.9458 4.51987Z" fill="#F8896C"/>
<path d="M35.737 5.94795L35.7184 13.6486C35.7184 13.6486 35.7184 13.7232 35.7184 13.7606C35.2983 14.3486 34.8036 14.8713 34.2342 15.31C33.3662 15.9728 32.4048 16.3835 31.3873 16.5235C30.3699 16.6635 29.4085 16.5235 28.5498 16.1034C28.0831 15.8794 27.663 15.5807 27.299 15.2167C27.3177 15.086 27.327 14.9647 27.327 14.8247V10.3536C27.3364 9.22421 27.1497 8.27213 26.7856 7.51607C27.2523 6.73201 27.8404 6.05996 28.5591 5.50925C29.4179 4.84653 30.3793 4.43583 31.406 4.29582C32.4328 4.1558 33.3848 4.29582 34.2529 4.70651C34.8223 4.98654 35.317 5.3599 35.737 5.83594C35.737 5.87328 35.737 5.91061 35.737 5.95728V5.94795ZM34.869 12.0898C35.233 11.3804 35.401 10.6243 35.401 9.84026C35.401 9.0562 35.233 8.35614 34.8783 7.74009C34.5236 7.12404 34.0476 6.67601 33.4315 6.36798C32.8155 6.07862 32.1434 5.97595 31.4153 6.07862C30.6873 6.1813 30.0152 6.47066 29.4085 6.93736C28.7925 7.4134 28.3164 8.00145 27.9617 8.71084C27.607 9.42956 27.4297 10.1763 27.4297 10.9604C27.4297 11.7444 27.607 12.4445 27.9524 13.0605C28.3071 13.6766 28.7831 14.1339 29.3899 14.4326C29.9966 14.7313 30.6686 14.834 31.3967 14.7313C32.1247 14.6286 32.8061 14.3393 33.4128 13.8633C34.0289 13.3965 34.5143 12.8085 34.869 12.0898Z" fill="#F8896C"/>
<path d="M27.3364 10.3535L23.08 8.03861C23.08 6.90919 22.8933 5.95711 22.5293 5.20105L26.7856 7.5159C27.1497 8.2813 27.3364 9.23337 27.3364 10.3535Z" fill="#F8896C"/>
<path d="M23.1365 15.4124L18.8801 13.0975L18.8895 9.18652L23.1458 11.5014L23.1365 15.4124Z" fill="white"/>
<path d="M20.187 16.1409L15.9307 13.826C16.1173 13.798 16.2107 13.6767 16.22 13.4713L20.4764 15.7862C20.4764 15.9915 20.383 16.1129 20.187 16.1409Z" fill="#F8896C"/>
<path d="M20.1404 5.20105L24.3967 7.5159C24.5927 7.62791 24.7794 7.76792 24.9381 7.94527C25.4421 8.51465 25.6848 9.40139 25.6848 10.5962L21.4285 8.2813C21.4285 7.08653 21.1858 6.1998 20.6818 5.63042C20.5231 5.45307 20.3457 5.31306 20.1404 5.20105Z" fill="#F8896C"/>
<path d="M23.1461 11.5011L18.8897 9.18623C18.8897 8.69153 18.7777 8.30883 18.5537 8.02881L22.8101 10.3437C23.0341 10.6143 23.1461 11.0064 23.1461 11.5011Z" fill="white"/>
<path d="M18.5536 8.02919C18.479 7.92651 18.3856 7.85184 18.283 7.7865L22.5393 10.1014C22.642 10.1574 22.7353 10.2414 22.81 10.344C21.5312 9.65332 19.6551 8.97193 18.5536 8.02919Z" fill="white"/>
<path d="M18.2451 16.4213L13.9888 14.1064L15.9396 13.8264L20.1866 16.1413L18.2451 16.4213Z" fill="#F8896C"/>
<path d="M18.0579 16.392L13.8015 14.0771C13.8482 14.1052 13.9135 14.1145 13.9882 14.0958L18.2445 16.4107C18.1699 16.42 18.1045 16.4107 18.0579 16.392Z" fill="#F8896C"/>
<path d="M20.477 15.7854L16.2207 13.4705L16.23 9.34485L20.4864 11.6597L20.477 15.7854Z" fill="#F8896C"/>
<path d="M18.5249 4.97676C19.169 4.88342 19.701 4.95809 20.1397 5.20078L24.396 7.51563C23.9573 7.28228 23.4253 7.2076 22.7812 7.29161C21.5025 6.60089 19.8037 5.66748 18.5249 4.97676Z" fill="white"/>
<path d="M18.0583 16.3933L13.802 14.0784C13.7273 14.0411 13.6899 13.9571 13.6899 13.8264L17.9463 16.1413C17.9463 16.2719 17.9836 16.356 18.0583 16.3933Z" fill="white"/>
<path d="M18.283 7.79588L22.5393 10.1107C22.3527 10.0081 22.1193 9.98006 21.8486 10.0174C21.4939 10.0641 21.1766 10.2694 20.8965 10.6054C20.6165 10.9415 20.4858 11.2962 20.4858 11.6602L16.2295 9.34534C16.2295 8.98131 16.3695 8.62661 16.6402 8.29059C16.9202 7.95456 17.2282 7.75854 17.5923 7.70254C17.863 7.6652 18.0963 7.70254 18.283 7.79588Z" fill="#F8896C"/>
<path d="M20.4858 8.85942L16.2295 6.54457L16.2388 5.77917L20.4858 8.09403V8.85942Z" fill="#F8896C"/>
<path d="M20.4858 8.85966L16.2295 6.54481C16.8362 5.63007 17.6016 5.10736 18.5163 4.97668L22.7727 7.29154C21.8486 7.42221 21.0926 7.93559 20.4858 8.85966Z" fill="white"/>
<path d="M17.9463 16.1399L13.6899 13.8251L13.7086 6.13379L17.965 8.44864L17.9463 16.1399Z" fill="white"/>
<path d="M16.2854 16.3743L12.0291 14.0594L12.0477 6.36816L16.3041 8.68302L16.2854 16.3743Z" fill="#F8896C"/>
<path d="M16.21 16.3925L11.9536 14.0777L11.9723 6.37708L16.2286 8.69193L16.21 16.3925Z" fill="#F8896C"/>
<path d="M17.1628 18.0356L12.9065 15.7208C12.9065 15.7208 12.8505 15.6835 12.8224 15.6648C12.3371 15.3568 12.0291 14.7874 12.0291 14.0593L16.2854 16.3742C16.2854 17.1022 16.5934 17.6716 17.0788 17.9796C17.1068 17.9983 17.1348 18.017 17.1628 18.0356Z" fill="#F8896C"/>
<path d="M15.9121 16.7467L11.6558 14.4318C11.8611 14.4038 11.9545 14.2825 11.9545 14.0771L16.2108 16.392C16.2108 16.5974 16.1175 16.7187 15.9121 16.7467Z" fill="#F8896C"/>
<path d="M18.2634 8.08615L14.0071 5.7713L15.9486 5.50061L20.2049 7.81546L18.2634 8.08615Z" fill="white"/>
<path d="M16.1267 5.51843L20.3831 7.83329C20.4577 7.87062 20.4951 7.95463 20.4951 8.08531L16.2387 5.77045C16.2387 5.63978 16.2014 5.55577 16.1267 5.51843Z" fill="#F8896C"/>
<path d="M16.1263 5.51745L20.3827 7.8323C20.3827 7.8323 20.28 7.8043 20.2053 7.81363L15.949 5.49878C16.0236 5.48944 16.0797 5.49878 16.1263 5.51745Z" fill="white"/>
<path d="M21.0364 3.5668L25.2928 5.88165C24.6954 5.55496 23.874 5.34961 22.7819 5.50829C22.1659 5.5923 21.5965 5.79765 21.0644 6.10567L16.8081 3.79082C17.3401 3.48279 17.9189 3.27745 18.5256 3.19344C19.6177 3.04409 20.4297 3.24011 21.0364 3.5668Z" fill="#F8896C"/>
<path d="M20.2053 6.02196L15.949 3.70711C16.257 3.66044 16.5464 3.68844 16.7984 3.78178L21.0547 6.09663C20.8027 6.00329 20.5133 5.97529 20.2053 6.02196Z" fill="#F8896C"/>
<path d="M13.9702 17.0178L9.71387 14.7029L11.6554 14.4323L15.9117 16.7471L13.9702 17.0178Z" fill="#F8896C"/>
<path d="M13.7834 16.9994L9.5271 14.6846C9.5271 14.6846 9.62977 14.7126 9.71378 14.7032L13.9701 17.0181C13.8955 17.0274 13.8301 17.0181 13.7834 16.9994Z" fill="#F8896C"/>
<path d="M13.7834 16.9991L9.52705 14.6843C9.45238 14.6469 9.41504 14.5629 9.41504 14.4323L13.6714 16.7471C13.6714 16.8778 13.7087 16.9618 13.7834 16.9991Z" fill="white"/>
<path d="M17.9656 8.44872L13.7092 6.13387C13.7092 5.92852 13.8119 5.80718 14.0079 5.77917L18.2643 8.09403C18.0682 8.12203 17.9656 8.24337 17.9656 8.44872Z" fill="white"/>
<path d="M26.7955 7.51569C27.1596 8.28109 27.3462 9.23316 27.3462 10.3533V14.8243C27.3462 14.955 27.3276 15.0856 27.3089 15.2163C27.1502 16.2431 26.3662 17.0738 25.3767 17.2138L23.4166 17.4845C22.7259 17.5778 22.1565 17.3165 21.8111 16.8124C21.4658 17.4098 20.8777 17.8392 20.1963 17.9325L18.2548 18.2032C17.8068 18.2686 17.4148 18.1752 17.0881 17.9792C16.6027 17.6712 16.2947 17.1018 16.2947 16.3737L16.3133 8.67312C16.3133 7.61837 16.9667 6.70363 17.8815 6.38627C18.0121 6.3396 18.1428 6.3116 18.2735 6.29293L20.215 6.02224C20.523 5.97557 20.8124 6.00357 21.0644 6.09691C21.5964 5.78889 22.1752 5.58354 22.7819 5.49953C24.5647 5.24751 25.6288 5.9569 26.1981 6.60095C26.4315 6.86231 26.6275 7.17033 26.7955 7.51569ZM25.6661 15.067V10.5959C25.6754 9.40118 25.4327 8.51444 24.9287 7.94506C24.4247 7.37568 23.7153 7.161 22.7725 7.29167C21.8298 7.42235 21.0924 7.93573 20.4857 8.8598V8.09441C20.4857 7.88906 20.3923 7.79572 20.2057 7.82372L18.2642 8.09441C18.0682 8.12241 17.9655 8.24375 17.9655 8.4491L17.9468 16.1497C17.9468 16.3551 18.0495 16.4484 18.2455 16.4204L20.187 16.1497C20.3737 16.1217 20.467 16.0004 20.4763 15.795V11.66C20.4763 11.296 20.6164 10.9413 20.8964 10.6053C21.1764 10.2692 21.4844 10.0732 21.8485 10.0172C22.2778 9.96122 22.5952 10.0639 22.8099 10.3533C23.0339 10.6239 23.1459 11.016 23.1459 11.5107V15.4217C23.1459 15.627 23.2299 15.7204 23.4166 15.7017L25.3767 15.431C25.5728 15.403 25.6661 15.2817 25.6661 15.0763" fill="#F8896C"/>
<path d="M22.7822 7.29166C23.7156 7.16098 24.425 7.37567 24.9384 7.94505C25.4424 8.51443 25.6851 9.40116 25.6851 10.5959V15.067C25.6851 15.2723 25.5824 15.3936 25.3864 15.4216L23.4263 15.6923C23.2396 15.7203 23.1462 15.627 23.1462 15.4123V11.5013C23.1462 11.0066 23.0436 10.6239 22.8195 10.3439C22.6049 10.0639 22.2782 9.95187 21.8581 10.0079C21.5034 10.0545 21.1861 10.2599 20.9061 10.5959C20.626 10.932 20.4954 11.2866 20.4954 11.6507V15.7857C20.4954 15.991 20.3927 16.1124 20.206 16.1404L18.2645 16.4111C18.0685 16.4391 17.9658 16.3457 17.9658 16.1404L17.9845 8.43975C17.9845 8.2344 18.0872 8.11306 18.2832 8.08506L20.2247 7.81437C20.4114 7.78637 20.5047 7.87971 20.5047 8.08506V8.85045C21.1114 7.93571 21.8768 7.413 22.7915 7.28233L22.7822 7.29166Z" fill="white"/>
<path d="M8.64015 16.3176C8.36946 16.1683 8.14544 15.9443 7.99609 15.6549C9.41487 16.4296 10.8337 17.195 12.2524 17.9698C12.4018 18.2591 12.6258 18.4831 12.8965 18.6325C11.6177 17.9418 9.91892 17.0083 8.64015 16.3176Z" fill="#F8896C"/>
<path d="M18.2634 6.29282L14.0071 3.97796L15.9579 3.70728L20.2049 6.02213L18.2634 6.29282Z" fill="#F8896C"/>
<path d="M13.6807 16.7477L9.42432 14.4328L9.43365 6.73218L13.69 9.04703L13.6807 16.7477Z" fill="white"/>
<path d="M7.99609 15.6546C8.89217 14.6745 9.37754 13.4984 9.37754 12.2477C10.7963 13.0224 12.2151 13.7878 13.6339 14.5625C13.6339 15.8133 13.1485 16.9894 12.2524 17.9695C10.9737 17.2788 9.27486 16.3453 7.99609 15.6546Z" fill="#F8896C"/>
<path d="M13.9885 8.69199L9.73218 6.37713L11.6737 6.10645L15.93 8.4213L13.9885 8.69199Z" fill="white"/>
<path d="M16.3039 8.68186L12.0476 6.36701C12.0476 5.31226 12.701 4.39752 13.6157 4.08016C13.7464 4.03349 13.8771 4.00548 14.0078 3.98682L18.2641 6.30167C18.1241 6.32034 17.9934 6.34834 17.8721 6.39501C16.9573 6.71237 16.3039 7.62711 16.3039 8.68186Z" fill="#F8896C"/>
<path d="M11.8613 6.12488L16.1177 8.43973C16.1923 8.47707 16.2297 8.56107 16.2297 8.69175L11.9733 6.3769C11.9733 6.24622 11.936 6.16221 11.8613 6.12488Z" fill="#F8896C"/>
<path d="M11.8608 6.12475L16.1171 8.4396C16.0704 8.4116 16.0051 8.40226 15.9304 8.42093L11.6741 6.10608C11.7581 6.09674 11.8141 6.10608 11.8608 6.12475Z" fill="white"/>
<path d="M9.37802 12.2484C9.37802 11.623 9.26601 11.0349 9.04199 10.5309C10.4608 11.3056 11.8796 12.071 13.2983 12.8457C13.5224 13.3591 13.6344 13.9378 13.6344 14.5632C12.2156 13.7885 10.7968 13.0231 9.37802 12.2484Z" fill="#F8896C"/>
<path d="M12.5142 11.7064L8.25781 9.39158L8.50983 9.07422L12.7662 11.3891L12.5142 11.7064Z" fill="#F8896C"/>
<path d="M9.04187 10.5304C8.84586 10.073 8.58451 9.69029 8.25781 9.3916L12.5142 11.7065C12.8315 12.0051 13.1022 12.3878 13.2982 12.8452C12.5888 12.4625 11.8794 12.0705 11.17 11.6878C11.002 11.5944 10.778 11.4731 10.61 11.3891C10.442 11.3051 10.2273 11.1837 10.0593 11.0904C9.97528 11.0437 9.87261 10.9877 9.7886 10.9411C9.63926 10.8571 9.43391 10.745 9.27523 10.661C9.20055 10.6237 9.08855 10.5864 9.03254 10.5304H9.04187Z" fill="#F8896C"/>
<path d="M13.6897 9.04662L9.43335 6.73177C9.43335 6.52642 9.52669 6.40508 9.72271 6.37708L13.979 8.69193C13.783 8.71993 13.6897 8.84127 13.6897 9.04662Z" fill="white"/>
<path d="M14.1853 7.09583L9.92896 4.78098C10.1436 4.90232 10.3957 4.93966 10.6663 4.90232C11.077 4.84632 11.4224 4.6503 11.7024 4.32361L15.9588 6.63846C15.6788 6.96515 15.3334 7.16117 14.9227 7.21717C14.6427 7.25451 14.4 7.21717 14.1853 7.09583Z" fill="#F8896C"/>
<path d="M11.4595 1.94373L15.7158 4.25858C15.8092 4.30525 15.8932 4.37059 15.9678 4.44526C16.2479 4.70661 16.3879 5.05198 16.3879 5.50001C16.3879 5.94805 16.2479 6.30274 15.9678 6.6201L11.7115 4.30525C11.9915 3.98789 12.1315 3.60519 12.1315 3.18516C12.1315 2.76512 11.9915 2.39176 11.7115 2.13041C11.6368 2.05573 11.5435 1.9904 11.4595 1.94373Z" fill="#F8896C"/>
<path d="M9.93775 4.7805C9.85375 4.73383 9.76974 4.67782 9.69507 4.60315C11.1138 5.37788 12.5326 6.14327 13.9514 6.918C14.0261 6.99267 14.1101 7.04868 14.1941 7.09535C12.9153 6.40463 11.2165 5.47122 9.93775 4.7805Z" fill="white"/>
<path d="M11.0771 1.82166C11.2172 1.84032 11.3385 1.87766 11.4598 1.943L15.7162 4.25785C15.5948 4.19251 15.4735 4.15518 15.3335 4.13651C13.9147 3.36178 12.4959 2.59638 11.0771 1.82166Z" fill="white"/>
<path d="M10.6843 1.83163C10.8243 1.81296 10.955 1.81296 11.0764 1.83163C12.4951 2.60636 13.9139 3.37175 15.3327 4.14648C15.2114 4.12781 15.0807 4.12781 14.9407 4.14648C13.5219 3.37175 12.1031 2.60636 10.6843 1.83163Z" fill="white"/>
<path d="M9.68628 4.59414C9.41559 4.35145 9.28491 4.01543 9.28491 3.58606C10.7037 4.36079 12.1225 5.12618 13.5413 5.90091C13.5413 6.33028 13.6719 6.66631 13.9426 6.90899C13.2332 6.5263 12.5238 6.13426 11.8144 5.75157C11.6464 5.65823 11.4224 5.53688 11.2544 5.45288C11.0864 5.36887 10.8717 5.24753 10.7037 5.15419C10.6197 5.10752 10.517 5.05151 10.433 5.00484C10.2837 4.92083 10.0783 4.80882 9.91963 4.72482C9.84496 4.68748 9.74228 4.64081 9.67694 4.59414H9.68628Z" fill="white"/>
<path d="M9.69507 2.41959C9.96576 2.07423 10.2924 1.88755 10.6845 1.83154C12.1033 2.60627 13.522 3.37167 14.9408 4.1464C14.5488 4.2024 14.2221 4.38908 13.9514 4.73444C12.5326 3.95971 11.1138 3.19432 9.69507 2.41959Z" fill="white"/>
<path d="M9.28491 3.58632C9.28491 3.13828 9.42492 2.75558 9.68628 2.41956C11.1051 3.19428 12.5238 3.95968 13.9426 4.73441C13.6719 5.07044 13.5413 5.46247 13.5413 5.90117C12.1225 5.12644 10.7037 4.36105 9.28491 3.58632Z" fill="white"/>
<path d="M10.6843 0.0298445C11.3004 -0.0541623 11.8604 0.0391786 12.3458 0.309867L16.6021 2.62472C16.1168 2.36337 15.5474 2.26069 14.9407 2.3447C14.0913 2.46604 13.3445 2.91408 12.7565 3.65147C12.1871 4.37019 11.8884 5.22893 11.8884 6.13434C11.8884 6.83439 12.0658 7.45044 12.4205 7.93581L8.16412 5.62096C7.80943 5.12625 7.63208 4.51954 7.63208 3.81948C7.63208 2.90474 7.93077 2.04601 8.50015 1.33662C9.0882 0.599223 9.84426 0.151188 10.6843 0.0298445Z" fill="#F8896C"/>
<path d="M17.8721 6.39612C16.9574 6.71348 16.304 7.62822 16.304 8.68297L16.2853 16.3836C16.2853 17.1116 16.5934 17.681 17.0787 17.9891C16.752 18.2784 16.36 18.4838 15.912 18.5491L13.9705 18.8198C13.2051 18.9225 12.5704 18.5958 12.253 17.9797C13.1491 16.9996 13.6344 15.8235 13.6344 14.5728C13.6344 13.9474 13.5224 13.3593 13.2984 12.8553C13.1024 12.3979 12.841 12.0152 12.5144 11.7165L12.757 11.3992C13.4571 10.5125 13.5224 9.36436 12.8971 8.58963L12.8317 8.50562L12.7477 8.44028C12.617 8.31894 12.477 8.21627 12.3277 8.11359C12.3557 8.05759 12.3837 8.01092 12.4117 7.96425C12.057 7.46954 11.8796 6.86282 11.8796 6.16277C11.8796 5.24803 12.1783 4.38929 12.7477 3.6799C13.3358 2.94251 14.0918 2.49447 14.9319 2.37313C15.772 2.25179 16.556 2.49447 17.1441 3.04518C17.7321 3.59589 18.0401 4.37996 18.0401 5.30403C18.0401 5.68673 17.9841 6.06943 17.8721 6.42412V6.39612ZM16.2107 16.3929L16.2293 8.6923C16.2293 8.48695 16.136 8.39361 15.9306 8.42162L13.9891 8.6923C13.7931 8.72031 13.6998 8.84165 13.6998 9.047L13.6811 16.7476C13.6811 16.953 13.7745 17.0463 13.9705 17.0183L15.912 16.7476C16.1173 16.7196 16.2107 16.5983 16.2107 16.3929ZM15.9586 6.62947C16.2387 6.31211 16.3787 5.92942 16.3787 5.50938C16.3787 5.08935 16.2387 4.71598 15.9586 4.45463C15.6786 4.18394 15.3426 4.0906 14.9319 4.14661C14.5399 4.20261 14.2132 4.38929 13.9425 4.73465C13.6718 5.07068 13.5411 5.46271 13.5411 5.90141C13.5411 6.34011 13.6718 6.66681 13.9425 6.90949C14.2132 7.16151 14.5399 7.26419 14.9319 7.20818C15.3426 7.15218 15.6879 6.95616 15.968 6.62947" fill="#F8896C"/>
<path d="M15.9304 8.42112C16.1358 8.39312 16.2291 8.48646 16.2291 8.69181L16.2104 16.3924C16.2104 16.5978 16.1171 16.7191 15.9118 16.7471L13.9703 17.0178C13.7742 17.0458 13.6809 16.9525 13.6809 16.7471L13.6996 9.0465C13.6996 8.84115 13.7929 8.71981 13.9889 8.69181L15.9304 8.42112Z" fill="white"/>
<path d="M11.1331 16.8029L6.87671 14.4881C7.42742 13.8907 7.70744 13.228 7.70744 12.4813C7.70744 12.0986 7.6421 11.7625 7.51143 11.4639C7.38075 11.1652 7.22207 10.9411 7.00739 10.7638L11.2637 13.0786C11.4691 13.2467 11.6371 13.48 11.7678 13.7787C11.8984 14.0774 11.9638 14.4134 11.9638 14.7961C11.9638 15.5428 11.6838 16.2056 11.1331 16.8029Z" fill="#F8896C"/>
<path d="M6.5498 10.4553L10.8061 12.7702C10.9742 12.8635 11.1328 12.9662 11.2822 13.0875L7.02584 10.7727C6.8765 10.6607 6.72715 10.5487 6.5498 10.4553Z" fill="#F8896C"/>
<path d="M12.7664 11.3898L8.51001 9.07494C9.21007 8.1882 9.27541 7.04011 8.65002 6.26538L12.9064 8.58023C13.5317 9.35496 13.4664 10.5031 12.7664 11.3898Z" fill="#F8896C"/>
<path d="M6.55013 10.4567L10.8065 12.7715C10.7411 12.7342 10.6665 12.6969 10.5918 12.6689L6.33545 10.354C6.41012 10.382 6.48479 10.4193 6.55013 10.4567Z" fill="white"/>
<path d="M6.78271 17.5593L2.52637 15.2445C3.14242 15.5805 3.86114 15.6925 4.67321 15.5712C5.59728 15.4405 6.32534 15.0765 6.87605 14.4884L11.1324 16.8033C10.5817 17.4006 9.85362 17.7553 8.92955 17.886C8.10815 17.998 7.39876 17.886 6.78271 17.5593Z" fill="#F8896C"/>
<path d="M5.40097 12.8086C5.40097 12.6966 5.34496 12.594 5.21429 12.5193L9.47063 14.8341C9.60131 14.9088 9.65731 15.0115 9.65731 15.1235C9.65731 15.2728 9.60131 15.3849 9.4893 15.4595C9.37729 15.5342 9.20928 15.5902 8.99459 15.6182C8.67723 15.6649 8.34121 15.6089 7.99584 15.4502C6.57706 14.6755 5.15828 13.9101 3.7395 13.1353C4.0942 13.294 4.42089 13.35 4.73825 13.3034C4.95293 13.2753 5.12095 13.2193 5.23296 13.1447C5.34496 13.07 5.40097 12.958 5.40097 12.8086Z" fill="white"/>
<path d="M5.15845 12.4905L9.41479 14.8053C9.41479 14.8053 9.45213 14.824 9.47079 14.8333L5.21445 12.5185C5.21445 12.5185 5.17712 12.4998 5.15845 12.4905Z" fill="white"/>
<path d="M12.9062 8.5797L8.64987 6.26485L8.5752 6.17151L12.8315 8.48636L12.9062 8.5797Z" fill="#F8896C"/>
<path d="M12.8317 8.48664L8.57541 6.17178L8.50073 6.10645L12.7571 8.4213L12.8317 8.48664Z" fill="#F8896C"/>
<path d="M11.562 10.3165L7.30566 8.00169C7.43634 7.84301 7.44568 7.703 7.33367 7.56299L11.59 9.87784C11.702 10.0179 11.6927 10.1579 11.562 10.3165Z" fill="#F8896C"/>
<path d="M10.5635 11.5952L6.30713 9.28036L7.30588 8.00159L11.5622 10.3164L10.5635 11.5952Z" fill="#F8896C"/>
<path d="M10.3579 11.744L6.10156 9.42913L6.30691 9.27979L10.5633 11.5946L10.3579 11.744Z" fill="#F8896C"/>
<path d="M8.5006 6.10587C8.36992 5.98452 8.22991 5.88185 8.08057 5.77917L12.3369 8.09403C12.4863 8.1967 12.6263 8.29938 12.7569 8.42072C11.4782 7.73 9.68603 6.94594 8.5006 6.10587Z" fill="#F8896C"/>
<path d="M8.07153 5.78008C8.09954 5.72408 8.12754 5.67741 8.15554 5.63074L12.4119 7.94559C12.3839 7.99226 12.3559 8.04827 12.3279 8.09494C11.0491 7.40421 9.3503 6.47081 8.07153 5.78008Z" fill="#F8896C"/>
<path d="M10.1523 11.7065L5.896 9.3916C5.96133 9.42894 6.03601 9.43827 6.09201 9.42894L10.3484 11.7438C10.283 11.7438 10.2177 11.7438 10.1523 11.7065Z" fill="#F8896C"/>
<path d="M10.1525 11.7069L5.89611 9.39202C5.89611 9.39202 5.88678 9.39202 5.87744 9.38269L10.1338 11.6975C10.1338 11.6975 10.1431 11.6975 10.1525 11.7069Z" fill="white"/>
<path d="M14.932 7.20752C14.54 7.26353 14.2133 7.16085 13.9426 6.90883C13.6719 6.66614 13.5413 6.33012 13.5413 5.90075C13.5413 5.47138 13.6813 5.07002 13.9426 4.73399C14.2133 4.38863 14.54 4.20195 14.932 4.14594C15.3427 4.08994 15.6881 4.18328 15.9588 4.45397C16.2388 4.71532 16.3788 5.06068 16.3788 5.50872C16.3788 5.95675 16.2388 6.31145 15.9588 6.62881C15.6788 6.9555 15.3334 7.15152 14.9227 7.20752H14.932Z" fill="white"/>
<path d="M6.89453 7.24475L11.1509 9.5596C11.3189 9.65294 11.4589 9.75562 11.5896 9.86763L7.33323 7.55278C7.20256 7.43143 7.06254 7.32876 6.89453 7.24475Z" fill="#F8896C"/>
<path d="M5.15951 12.4909L9.41585 14.8057C9.29451 14.7404 9.14516 14.6844 8.96782 14.6377C8.76247 14.591 8.53845 14.5257 8.27709 14.479L4.02075 12.1642C4.27277 12.2202 4.49679 12.2762 4.71147 12.3229C4.88882 12.3695 5.03817 12.4255 5.15951 12.4909Z" fill="#F8896C"/>
<path d="M3.73977 13.1345C3.98246 13.2559 4.20648 13.3866 4.43983 13.5172C4.67318 13.6479 4.90653 13.7693 5.13989 13.8999C6.09196 14.4133 7.04404 14.936 7.99612 15.4494C7.93078 15.4214 7.86544 15.384 7.79077 15.3467L3.53442 13.0319C3.59976 13.0692 3.67444 13.1065 3.73977 13.1345Z" fill="white"/>
<path d="M9.16406 12.2393L4.90771 9.92444C5.11306 9.97111 5.33708 10.0271 5.5891 10.0831C5.84112 10.1391 6.09314 10.2325 6.33583 10.3538L10.5922 12.6687C10.3495 12.5473 10.0881 12.4633 9.84545 12.398C9.60276 12.3326 9.36941 12.2766 9.16406 12.2393Z" fill="white"/>
<path d="M7.7908 15.3569L3.53446 13.042C3.42245 12.986 3.31977 12.9113 3.20776 12.8367L7.46411 15.1515C7.57611 15.2262 7.68812 15.2915 7.7908 15.3569Z" fill="#F8896C"/>
<path d="M3.14258 12.7899L7.39892 15.1048C7.39892 15.1048 7.44559 15.1328 7.46426 15.1514L3.20792 12.8366C3.20792 12.8366 3.16125 12.7993 3.14258 12.7899Z" fill="#F8896C"/>
<path d="M3.14263 12.7897L7.39898 15.1045C7.34297 15.0765 7.28697 15.0672 7.22163 15.0765C7.12829 15.0859 7.05361 15.1419 6.98828 15.2259L2.73193 12.911C2.79727 12.827 2.87194 12.7803 2.96529 12.7617C3.03062 12.7523 3.09596 12.7617 3.14263 12.7897Z" fill="white"/>
<path d="M2.5362 15.2442C2.25618 15.0949 1.99483 14.8895 1.76147 14.6469L6.01782 16.9617C6.2605 17.2044 6.51252 17.4097 6.79255 17.5591C5.51378 16.8684 3.81497 15.935 2.5362 15.2442Z" fill="white"/>
<path d="M8.66821 12.0705L4.41187 9.75562C4.54254 9.82095 4.70122 9.87696 4.91591 9.92363L9.17225 12.2385C8.9669 12.1918 8.79888 12.1265 8.66821 12.0705Z" fill="white"/>
<path d="M6.05468 16.43L1.79834 14.1152L2.73175 12.9017L6.98809 15.2166L6.05468 16.43Z" fill="white"/>
<path d="M7.27832 14.1056L3.02197 11.7908C3.10598 11.8374 3.18999 11.8748 3.27399 11.9121C3.52601 12.0241 3.77803 12.0988 4.02072 12.1641L8.27706 14.479C8.03438 14.4136 7.78236 14.339 7.53034 14.227C7.44633 14.1896 7.36232 14.143 7.27832 14.1056Z" fill="#F8896C"/>
<path d="M6.00818 16.9619L1.75184 14.647C1.62116 14.4884 1.63983 14.311 1.79851 14.115L6.05485 16.4298C5.89617 16.6259 5.88684 16.8032 6.00818 16.9619Z" fill="white"/>
<path d="M8.66818 12.0704L4.41184 9.75555C4.28116 9.68088 4.21582 9.61554 4.21582 9.51287C4.21582 9.32619 4.41184 9.20484 4.79453 9.14884C5.11189 9.10217 5.48526 9.17684 5.88662 9.37286L10.143 11.6877C9.7416 11.4917 9.37757 11.417 9.05088 11.4637C8.66818 11.5197 8.47216 11.641 8.47216 11.8277C8.47216 11.9211 8.5375 11.9957 8.66818 12.0704Z" fill="#F8896C"/>
<path d="M5.88657 19.1829L1.63023 16.868C1.22886 16.6533 0.864836 16.3733 0.528809 16.028L4.78515 18.3428C5.12118 18.6882 5.48521 18.9682 5.88657 19.1829Z" fill="#F8896C"/>
<path d="M4.78525 18.3521L0.528905 16.0372L0.4729 15.9812L4.72924 18.2961L4.78525 18.3521Z" fill="#F8896C"/>
<path d="M4.72958 18.2963L0.473241 15.9815L0.417236 15.9161L4.67358 18.231L4.72958 18.2963Z" fill="#F8896C"/>
<path d="M7.27756 14.106L3.02122 11.7911C2.87188 11.7071 2.72253 11.6138 2.58252 11.5111L6.83886 13.826C6.97887 13.9286 7.11888 14.022 7.27756 14.106Z" fill="white"/>
<path d="M6.24133 6.99302C6.48402 7.05836 6.6987 7.14237 6.89472 7.24504L11.1511 9.5599C10.9644 9.45722 10.7404 9.37322 10.4977 9.30788C10.0403 9.1772 9.55493 9.1492 9.03222 9.22387L4.77588 6.90902C5.29859 6.83434 5.78396 6.86235 6.24133 6.99302Z" fill="white"/>
<path d="M4.84198 15.3662L0.594971 13.0513L1.00567 12.5193L5.26201 14.8341L4.84198 15.3662Z" fill="#F8896C"/>
<path d="M4.67354 18.2316L0.417194 15.9167C-0.198856 15.1233 -0.124183 13.9472 0.585207 13.0511L4.84155 15.366C4.13216 16.2621 4.05749 17.4382 4.67354 18.2316Z" fill="#F8896C"/>
<path d="M6.84819 13.8255L2.59185 11.5106C2.3865 11.3426 2.22782 11.1279 2.0878 10.8386C1.95713 10.5586 1.90112 10.2225 1.90112 9.83984C1.90112 9.10245 2.18115 8.46773 2.72252 7.90768C3.27323 7.35697 3.95462 7.02094 4.77602 6.90894L9.03236 9.22379C8.2203 9.3358 7.53891 9.67182 6.97886 10.2225C6.42815 10.7826 6.15746 11.4173 6.15746 12.1547C6.15746 12.5374 6.21347 12.8734 6.34415 13.1534C6.47482 13.4428 6.64284 13.6575 6.84819 13.8255Z" fill="white"/>
<path d="M13.2979 12.8457C13.522 13.3591 13.634 13.9378 13.634 14.5632C13.634 15.8139 13.1486 16.99 12.2525 17.9701C11.3751 18.9222 10.2644 19.4916 8.93892 19.6783C7.30545 19.9116 5.868 19.4449 4.79458 18.3528L4.73858 18.2968L4.68257 18.2315C4.06653 17.4381 4.1412 16.262 4.85059 15.3659L5.26129 14.8339C5.09327 14.6192 4.95326 14.3765 4.83192 14.1151C4.6079 13.6111 4.48656 13.0324 4.49589 12.3977C4.49589 11.1189 4.99993 9.94281 5.95201 8.9814C6.80141 8.12266 7.83749 7.60929 9.04159 7.44127C9.76965 7.3386 10.4604 7.37593 11.1138 7.56262C11.5711 7.69329 11.9818 7.87064 12.3365 8.10399C12.4859 8.20667 12.6259 8.30934 12.7566 8.43069L12.8406 8.49602L12.9059 8.58003C13.5313 9.35476 13.4659 10.5029 12.7659 11.3896L12.5232 11.7069C12.8406 12.0056 13.1113 12.3883 13.3073 12.8457H13.2979ZM11.1418 16.8034C11.6925 16.206 11.9725 15.5433 11.9725 14.7965C11.9725 14.4138 11.9072 14.0778 11.7765 13.7791C11.6458 13.4804 11.4871 13.2564 11.2724 13.0791C11.0671 12.911 10.8431 12.771 10.5817 12.659C10.339 12.5377 10.0777 12.4537 9.83499 12.3883C9.5923 12.323 9.35895 12.267 9.1536 12.2297C8.94825 12.183 8.78024 12.1176 8.64956 12.0616C8.51888 11.987 8.45355 11.9216 8.45355 11.819C8.45355 11.6323 8.64956 11.5109 9.03226 11.4549C9.34962 11.4083 9.72298 11.4829 10.1243 11.6789C10.199 11.7256 10.2737 11.735 10.339 11.7256L10.5444 11.5856L11.5431 10.2975C11.6738 10.1388 11.6831 9.99881 11.5711 9.8588C11.2911 9.60678 10.9364 9.4201 10.479 9.28942C10.0217 9.15874 9.5363 9.13074 9.01359 9.20541C8.20152 9.31742 7.52014 9.65345 6.96009 10.2042C6.40938 10.7642 6.13869 11.3989 6.13869 12.1363C6.13869 12.519 6.1947 12.855 6.32537 13.1351C6.45605 13.4244 6.62406 13.6391 6.82941 13.8071C7.03476 13.9658 7.26812 14.0965 7.52014 14.2085C7.77216 14.3205 8.02418 14.3952 8.26686 14.4605C8.51888 14.5165 8.7429 14.5725 8.95759 14.6192C9.16294 14.6752 9.33095 14.7405 9.46163 14.8152C9.5923 14.8899 9.64831 14.9925 9.64831 15.1046C9.64831 15.2539 9.5923 15.3659 9.48029 15.4406C9.36828 15.5153 9.20027 15.5713 8.98559 15.5993C8.51888 15.6646 8.00551 15.5153 7.4548 15.1326C7.38946 15.0672 7.30545 15.0392 7.21211 15.0579C7.11877 15.0672 7.0441 15.1232 6.97876 15.2072L6.04535 16.4207C5.88667 16.6167 5.87734 16.794 5.99868 16.9527C6.76408 17.7368 7.73482 18.0448 8.92958 17.8768C9.85366 17.7461 10.5817 17.3821 11.1324 16.794" fill="#F8896C"/>
<path d="M9.0328 9.22371C9.55551 9.14904 10.0409 9.17704 10.4983 9.30772C10.9556 9.42906 11.3103 9.62508 11.5903 9.8771C11.7024 10.0171 11.693 10.1571 11.5623 10.3158L10.5636 11.6039L10.3582 11.7439C10.2929 11.7533 10.2182 11.7439 10.1436 11.6972C9.74219 11.5012 9.37816 11.4266 9.05147 11.4732C8.66877 11.5292 8.47276 11.6506 8.47276 11.8373C8.47276 11.9306 8.5381 12.0053 8.66877 12.0799C8.79945 12.1453 8.95813 12.2013 9.17281 12.248C9.37816 12.2946 9.60218 12.3506 9.8542 12.4066C10.1062 12.4626 10.3582 12.556 10.6009 12.6773C10.8529 12.7893 11.077 12.9293 11.2917 13.0974C11.497 13.2654 11.665 13.4987 11.7957 13.7974C11.9264 14.0961 11.9917 14.4321 11.9917 14.8148C11.9917 15.5616 11.7117 16.2243 11.161 16.8217C10.6103 17.419 9.88221 17.7737 8.95813 17.9044C7.7727 18.0724 6.79262 17.7644 6.02723 16.9803C5.89655 16.8217 5.91522 16.6443 6.0739 16.4483L7.00731 15.2349C7.07265 15.1509 7.14732 15.1042 7.24066 15.0855C7.334 15.0762 7.41801 15.1042 7.48335 15.1602C8.03406 15.5429 8.54743 15.7016 9.01414 15.6269C9.22882 15.5989 9.39683 15.5429 9.50884 15.4682C9.62085 15.3935 9.67686 15.2815 9.67686 15.1322C9.67686 15.0202 9.62085 14.9175 9.49017 14.8428C9.3595 14.7682 9.19148 14.7028 8.98613 14.6468C8.78078 14.6001 8.55677 14.5348 8.29541 14.4881C8.05273 14.4228 7.8007 14.3481 7.54868 14.2361C7.306 14.1241 7.07265 13.9841 6.85796 13.8348C6.65261 13.6667 6.49393 13.4521 6.35392 13.1627C6.22324 12.8827 6.16724 12.5466 6.16724 12.164C6.16724 11.4266 6.44726 10.7918 6.98864 10.2318C7.53935 9.68108 8.22074 9.34506 9.04214 9.23305L9.0328 9.22371Z" fill="white"/>
<path d="M7.79988 5.61134L12.0562 7.92619C11.7669 7.76751 11.4588 7.64617 11.1135 7.55283C10.4601 7.36615 9.76937 7.32881 9.04131 7.43148C7.83721 7.5995 6.80113 8.11287 5.95173 8.97161C4.99965 9.92368 4.49561 11.0998 4.49561 12.3879C4.49561 13.0226 4.61696 13.6013 4.83164 14.1054C4.95298 14.3667 5.09299 14.6187 5.26101 14.8241L1.00467 12.5186C0.836652 12.3039 0.696641 12.0612 0.575298 11.7998C0.35128 11.2958 0.229937 10.7171 0.239271 10.0824C0.239271 8.8036 0.743311 7.6275 1.69539 6.66609C2.54479 5.80735 3.58087 5.29398 4.78497 5.12597C5.51303 5.02329 6.20375 5.06063 6.85714 5.24731C7.2025 5.34065 7.51986 5.47133 7.79988 5.62067V5.61134Z" fill="#F8896C"/>
</svg>
