<svg width="131" height="64" viewBox="0 0 131 64" fill="none" xmlns="http://www.w3.org/2000/svg">
<path d="M125.387 42.83L116.893 38.2002L117.136 37.7896L125.648 42.4193L125.387 42.83Z" fill="white"/>
<path d="M125.65 42.4197L117.137 37.79L117.044 37.3606L125.557 41.9903L125.65 42.4197Z" fill="white"/>
<path d="M125.556 41.9898L117.043 37.3601L115.27 34.9519L123.783 39.5816L125.556 41.9898Z" fill="white"/>
<path d="M115.047 34.7849L123.559 39.4146C123.559 39.4146 123.709 39.508 123.783 39.5826L115.271 34.9529C115.271 34.9529 115.121 34.8222 115.047 34.7849Z" fill="white"/>
<path d="M115.047 34.7845L123.56 39.4142C123.56 39.4142 123.392 39.3582 123.317 39.3582L114.804 34.7285C114.804 34.7285 114.954 34.7285 115.047 34.7845Z" fill="#4848D8"/>
<path d="M123 39.5076L114.487 34.8779L114.823 34.7285L123.336 39.3582L123 39.5076Z" fill="#4848D8"/>
<path d="M115.27 44.5852L106.757 39.9555C107.13 40.1608 107.522 40.3289 107.933 40.4595C108.922 40.7769 109.949 40.8702 111.013 40.7209C113.16 40.4222 115.12 39.5821 116.894 38.2007L125.406 42.8304C123.633 44.2118 121.673 45.0519 119.526 45.3506C118.462 45.4999 117.435 45.4066 116.446 45.0892C116.035 44.9586 115.643 44.7719 115.27 44.5852Z" fill="white"/>
<path d="M117.754 40.4779L109.241 35.8482C109.801 36.1469 110.454 36.2402 111.182 36.1282C112.303 35.9789 113.404 35.5495 114.487 34.8774L122.999 39.5071C121.917 40.1979 120.815 40.6086 119.695 40.7579C118.948 40.8699 118.295 40.7766 117.754 40.4779Z" fill="#4848D8"/>
<path d="M114.599 24.0688L123.111 28.6986C123.111 28.6986 123.279 28.7919 123.354 28.8479C124.53 29.576 125.407 30.6214 125.986 32.0028C126.565 33.3656 126.864 34.9711 126.864 36.7819C126.864 37.2112 126.658 37.4726 126.229 37.5286L117.716 32.8989C118.127 32.8429 118.351 32.5815 118.351 32.1522C118.351 30.3413 118.052 28.7359 117.474 27.3731C116.895 26.0103 116.017 24.9463 114.841 24.2182C114.767 24.1622 114.673 24.1249 114.599 24.0688Z" fill="white"/>
<path d="M113.44 29.6503C113.253 28.9409 112.898 28.3808 112.45 28.0261C115.288 29.5756 118.125 31.1064 120.963 32.6558C121.43 33.0105 121.766 33.5519 121.952 34.28C119.395 32.8985 115.997 31.0317 113.44 29.6503Z" fill="#4848D8"/>
<path d="M112.431 28.027C112.431 28.027 112.245 27.8963 112.151 27.8403L120.664 32.47C120.757 32.526 120.851 32.582 120.944 32.6567C118.107 31.1073 115.269 29.5765 112.431 28.027Z" fill="#4848D8"/>
<path d="M117.754 40.4792L109.241 35.8495C109.241 35.8495 109.148 35.7935 109.092 35.7561C108.513 35.3828 108.102 34.8974 107.878 34.2627L116.391 38.8924C116.615 39.5271 117.026 40.0125 117.605 40.3859C117.661 40.4232 117.698 40.4419 117.754 40.4792Z" fill="white"/>
<path d="M116.391 38.892L107.878 34.2623L117.717 32.8809L126.229 37.5106L116.391 38.892Z" fill="white"/>
<path d="M116.391 35.046L107.878 30.4163L113.442 29.6509L121.954 34.2806L116.391 35.046Z" fill="#4848D8"/>
<path d="M112.153 27.8411L120.666 32.4708C120.237 32.2468 119.733 32.1535 119.154 32.2468C118.445 32.3402 117.866 32.6575 117.381 33.1802C116.895 33.7029 116.578 34.319 116.391 35.047L107.878 30.4173C108.065 29.6893 108.382 29.0732 108.868 28.5505C109.353 28.0091 109.932 27.7105 110.641 27.6171C111.22 27.5424 111.724 27.6171 112.153 27.8411Z" fill="white"/>
<path d="M115.27 44.5847L106.757 39.955C106.253 39.675 105.805 39.3577 105.376 38.9656C104.666 38.2936 104.088 37.4535 103.677 36.4268L112.19 41.0565C112.6 42.0832 113.179 42.9233 113.888 43.5953C114.318 43.9874 114.766 44.3047 115.27 44.5847Z" fill="#4848D8"/>
<path d="M125.986 31.9849C126.564 33.3477 126.863 34.9532 126.863 36.764C126.863 37.1933 126.658 37.4547 126.228 37.5107L116.39 38.8921C116.614 39.5269 117.025 40.0122 117.604 40.3856C118.182 40.759 118.892 40.871 119.695 40.759C120.815 40.6096 121.916 40.1802 122.999 39.5082L123.335 39.3588C123.465 39.3402 123.615 39.4148 123.801 39.5829L125.556 41.9911L125.668 42.4204L125.407 42.8311C123.633 44.2126 121.673 45.0526 119.526 45.3513C118.462 45.5007 117.436 45.4073 116.446 45.09C115.457 44.7539 114.617 44.2686 113.889 43.5965C113.179 42.9245 112.601 42.0844 112.19 41.0576C111.761 40.0496 111.555 38.9668 111.555 37.8094C111.555 36.3159 111.873 34.8971 112.507 33.4784C113.142 32.0783 114.038 30.8835 115.214 29.8941C116.39 28.9047 117.716 28.3073 119.172 28.1019C120.777 27.8779 122.177 28.1393 123.353 28.8487C124.53 29.5581 125.407 30.6221 125.986 32.0036V31.9849ZM116.39 35.0652L121.935 34.2811C121.748 33.5717 121.393 33.0117 120.945 32.657C120.46 32.2836 119.863 32.1529 119.153 32.2463C118.444 32.3396 117.865 32.657 117.38 33.1797C116.894 33.7024 116.577 34.3184 116.39 35.0465" fill="#4848D8"/>
<path d="M110.658 23.4527C112.152 23.2474 113.477 23.4527 114.597 24.0688L123.11 28.6985C121.99 28.0824 120.665 27.8771 119.171 28.0824C116.334 26.533 113.496 25.0022 110.658 23.4527Z" fill="#4848D8"/>
<path d="M103.677 36.4262C103.248 35.4182 103.042 34.3354 103.042 33.178C103.733 33.5513 104.405 33.9247 105.096 34.2981C105.824 34.6901 106.571 35.1008 107.299 35.4928C108.027 35.8849 108.773 36.2956 109.501 36.6876C110.192 37.061 110.864 37.4343 111.555 37.8077C111.555 38.9651 111.76 40.0479 112.19 41.0559C109.632 39.6745 105.637 38.5731 103.677 36.4262Z" fill="#4848D8"/>
<path d="M106.702 25.2453C107.878 24.2559 109.204 23.6585 110.66 23.4531C113.498 25.0026 116.335 26.5334 119.173 28.0828C117.717 28.2882 116.41 28.8856 115.215 29.875C112.378 28.3255 109.54 26.7947 106.702 25.2453Z" fill="#4848D8"/>
<path d="M103.042 33.1784C103.042 31.685 103.36 30.2662 103.994 28.8474C106.832 30.3969 109.669 31.9277 112.507 33.4771C111.872 34.8959 111.555 36.3147 111.555 37.8081C108.717 36.2587 105.88 34.7279 103.042 33.1784Z" fill="#4848D8"/>
<path d="M103.995 28.8482C104.629 27.4481 105.525 26.2533 106.702 25.2639C109.539 26.8134 112.377 28.3442 115.214 29.8936C114.038 30.9017 113.123 32.0965 112.507 33.4779C109.67 31.9285 106.832 30.3977 103.995 28.8482Z" fill="#4848D8"/>
<path d="M113.46 47.8518L104.948 43.2221C104.238 42.8487 103.603 42.382 103.006 41.822C102.763 41.5793 102.521 41.3366 102.297 41.0752C101.606 40.2725 101.046 39.3391 100.598 38.2937C99.9818 36.8562 99.6831 35.2881 99.7018 33.6453C99.7018 31.5918 100.15 29.557 101.009 27.6155C101.382 26.7941 101.83 26.0287 102.334 25.3006C103.062 24.2739 103.902 23.3218 104.873 22.5191C106.59 21.063 108.532 20.1856 110.641 19.8869C112.751 19.5882 114.711 19.8869 116.372 20.8016L124.885 25.4313C123.224 24.5166 121.282 24.2179 119.154 24.5166C117.026 24.8153 115.122 25.6927 113.386 27.1488C112.415 27.9702 111.556 28.9036 110.847 29.9303C110.343 30.6584 109.895 31.4238 109.521 32.2452C108.644 34.1867 108.214 36.2215 108.214 38.275C108.214 39.9178 108.513 41.4859 109.111 42.9234C109.54 43.9688 110.119 44.9022 110.809 45.7049C111.033 45.9663 111.276 46.209 111.519 46.4517C112.097 46.993 112.751 47.4597 113.46 47.8518Z" fill="white"/>
<path d="M130.187 36.2986C130.187 37.7734 129.552 39.1175 128.562 40.0136C128.973 40.779 129.104 41.7311 128.917 42.6832C128.693 43.8779 128.021 44.9793 127.088 45.6701C124.829 47.4435 122.271 48.545 119.508 48.937C117.978 49.1423 116.521 49.0117 115.121 48.5636C113.759 48.1156 112.545 47.4062 111.537 46.4541C111.294 46.2114 111.052 45.9688 110.828 45.7074C110.137 44.9047 109.577 43.9713 109.129 42.9258C108.513 41.4884 108.214 39.9203 108.233 38.2775C108.233 36.224 108.681 34.1891 109.54 32.2477C109.913 31.4263 110.361 30.6609 110.865 29.9328C111.593 28.906 112.433 27.954 113.404 27.1512C115.121 25.6951 117.063 24.8177 119.172 24.519C121.468 24.2017 123.503 24.575 125.258 25.6391C126.938 26.6845 128.226 28.1967 129.048 30.1568C129.813 31.949 130.187 34.0211 130.187 36.3173V36.2986ZM126.229 37.5121C126.64 37.4561 126.864 37.1947 126.864 36.7653C126.864 34.9545 126.565 33.3491 125.986 31.9863C125.407 30.6235 124.53 29.5594 123.354 28.8314C122.178 28.1033 120.778 27.8606 119.172 28.0846C117.716 28.29 116.409 28.8874 115.215 29.8768C114.039 30.8849 113.124 32.0796 112.508 33.4611C111.873 34.8799 111.556 36.2986 111.556 37.7921C111.556 38.9495 111.761 40.0323 112.19 41.0404C112.601 42.0671 113.18 42.9072 113.889 43.5792C114.617 44.2513 115.457 44.7553 116.447 45.0727C117.436 45.39 118.463 45.4834 119.527 45.334C121.674 45.0353 123.634 44.1953 125.407 42.8138L125.669 42.4031L125.557 41.9738L123.802 39.5656C123.615 39.3976 123.466 39.3229 123.335 39.3416L122.999 39.4909C121.917 40.1816 120.815 40.5923 119.695 40.7417C118.892 40.8537 118.183 40.7417 117.604 40.3683C117.025 39.9949 116.615 39.5096 116.391 38.8748L126.229 37.4934" fill="white"/>
<path d="M120.945 32.6554C121.412 33.0101 121.748 33.5515 121.935 34.2795L116.39 35.0636C116.577 34.3355 116.894 33.7195 117.38 33.1968C117.865 32.6554 118.444 32.3567 119.153 32.2634C119.863 32.17 120.46 32.3007 120.945 32.6741V32.6554Z" fill="white"/>
<path d="M106.944 46.77L98.4316 42.1403C98.805 42.0843 98.9917 41.8416 99.0104 41.4309L107.523 46.0606C107.523 46.4713 107.336 46.714 106.944 46.77Z" fill="white"/>
<path d="M103.061 47.3287L94.5481 42.699L98.4311 42.1389L106.944 46.7686L103.061 47.3287Z" fill="white"/>
<path d="M102.688 47.2733L94.1755 42.6436C94.1755 42.6436 94.3809 42.6996 94.5489 42.6809L103.062 47.3106C102.912 47.3293 102.782 47.3106 102.688 47.2733Z" fill="white"/>
<path d="M102.687 47.2727L94.1742 42.643C94.0249 42.5683 93.9502 42.4003 93.9502 42.1389L102.463 46.7686C102.463 47.03 102.538 47.198 102.687 47.2727Z" fill="#4848D8"/>
<path d="M100.896 50.5593L92.3833 45.9296C92.3833 45.9296 92.3087 45.8923 92.2713 45.8736C91.2446 45.2762 90.6099 44.1001 90.6099 42.6067L99.1225 47.2364C99.1225 48.7298 99.7573 49.8873 100.784 50.5033C100.821 50.522 100.859 50.5407 100.896 50.5593Z" fill="white"/>
<path d="M98.5425 47.9458L90.0298 43.3161C90.4218 43.2601 90.6085 43.0174 90.6085 42.6067L99.1212 47.2364C99.1212 47.6471 98.9345 47.8898 98.5425 47.9458Z" fill="white"/>
<path d="M94.6411 48.5066L86.1284 43.8769L90.0487 43.3169L98.5428 47.9466L94.6411 48.5066Z" fill="white"/>
<path d="M94.2873 48.4691L85.7747 43.8394C85.7747 43.8394 85.98 43.8954 86.1294 43.8767L94.642 48.5064C94.4927 48.5251 94.3807 48.5064 94.2873 48.4691Z" fill="white"/>
<path d="M94.288 48.4685L85.7753 43.8388C85.6259 43.7641 85.5513 43.5961 85.5513 43.3347L94.0639 47.9644C94.0639 48.2258 94.1386 48.3938 94.288 48.4685Z" fill="#4848D8"/>
<path d="M107.505 46.0614L99.0107 41.4317L99.0481 17.7231L107.561 22.3529L107.505 46.0614Z" fill="white"/>
<path d="M94.064 47.9459L85.5513 43.3162L85.5699 41.7854L94.064 46.4151V47.9459Z" fill="#4848D8"/>
<path d="M103.097 22.332L94.5847 17.7023L98.4677 17.1609L106.98 21.7906L103.097 22.332Z" fill="#4848D8"/>
<path d="M98.824 17.1997L107.337 21.8294C107.486 21.9041 107.561 22.0908 107.561 22.3521L99.048 17.7224C99.048 17.4424 98.9733 17.2744 98.824 17.1997Z" fill="white"/>
<path d="M98.823 17.1997L107.336 21.8294C107.336 21.8294 107.13 21.7734 106.981 21.7921L98.4683 17.1624C98.6176 17.1437 98.7296 17.1624 98.823 17.1997Z" fill="#4848D8"/>
<path d="M100.596 13.9325L109.109 18.5622C108.512 18.2262 107.784 18.0955 106.981 18.2075L98.4683 13.5778C99.271 13.4658 99.9804 13.5965 100.596 13.9325Z" fill="white"/>
<path d="M102.464 46.7687L93.97 42.139L94.0073 18.4304L102.52 23.0601L102.464 46.7687Z" fill="#4848D8"/>
<path d="M99.1413 47.2359L90.6287 42.6062L90.666 23.042L99.1787 27.6717L99.1413 47.2359Z" fill="white"/>
<path d="M94.6599 31.855L86.1472 27.2253L90.0675 26.6653L98.5802 31.295L94.6599 31.855Z" fill="#4848D8"/>
<path d="M90.4409 26.7021L98.9536 31.3319C99.1029 31.4065 99.1776 31.5932 99.1776 31.8546L90.6649 27.2249C90.6649 26.9635 90.5903 26.7768 90.4409 26.7021Z" fill="white"/>
<path d="M90.4421 26.7019L98.9548 31.3316C98.9548 31.3316 98.7494 31.2756 98.6001 31.2943L90.0874 26.6646C90.2367 26.6459 90.3488 26.6646 90.4421 26.7019Z" fill="#4848D8"/>
<path d="M106.981 21.7931C107.354 21.7371 107.541 21.9238 107.541 22.3532L107.504 46.0618C107.504 46.4725 107.317 46.7151 106.925 46.7711L103.042 47.3125C102.65 47.3685 102.463 47.1818 102.463 46.7711L102.5 23.0626C102.5 22.6332 102.687 22.3905 103.079 22.3345L106.962 21.7931H106.981Z" fill="#4848D8"/>
<path d="M102.52 23.0602L94.0068 18.4305C94.0068 18.0011 94.1935 17.7584 94.5855 17.7024L103.098 22.3321C102.706 22.3881 102.52 22.6308 102.52 23.0602Z" fill="#4848D8"/>
<path d="M89.957 43.9133L81.4443 39.2836C81.8177 39.489 82.2844 39.545 82.8444 39.4703C83.5538 39.377 84.2072 38.9849 84.7486 38.3129C85.29 37.6408 85.5513 36.9314 85.5513 36.2034L94.064 40.8331C94.064 41.5611 93.784 42.2705 93.2613 42.9426C92.7199 43.6146 92.0852 43.988 91.3571 44.1C90.7971 44.1747 90.3304 44.1 89.957 43.9133Z" fill="#4848D8"/>
<path d="M98.5813 27.709L90.0686 23.0793C90.274 23.0607 90.4606 23.042 90.6473 23.042L99.16 27.6717C98.9733 27.6717 98.768 27.6717 98.5813 27.709Z" fill="white"/>
<path d="M103.099 18.7485L94.6047 14.1188L98.4877 13.5774L107 18.2071L103.099 18.7485Z" fill="white"/>
<path d="M86.2969 49.1211L77.7842 44.4914C78.6616 44.9581 79.7257 45.1075 80.9951 44.9395C82.8433 44.6781 84.3554 43.6327 85.5688 41.8032L94.0815 46.4329C92.8867 48.2624 91.3559 49.3078 89.5078 49.5692C88.2384 49.7559 87.1743 49.5878 86.2969 49.1211Z" fill="white"/>
<path d="M99.1772 27.6722L90.6646 23.0425V18.8982L99.1772 23.5279V27.6722Z" fill="white"/>
<path d="M94.0818 40.8337L85.5691 36.204L85.5878 27.9526L94.1004 32.5823L94.0818 40.8337Z" fill="#4848D8"/>
<path d="M94.1008 32.5821L85.5881 27.9524C85.5881 27.5231 85.7748 27.2804 86.1669 27.2244L94.6795 31.8541C94.3062 31.9101 94.1195 32.1528 94.1008 32.5821Z" fill="#4848D8"/>
<path d="M89.9549 43.9137L81.4422 39.284C81.2369 39.172 81.0688 39.0226 80.9008 38.836C80.4715 38.2759 80.2661 37.5105 80.2661 36.5024L88.7788 41.1321C88.7788 42.1402 88.9842 42.9056 89.4135 43.4657C89.5629 43.6524 89.7495 43.8204 89.9549 43.9137Z" fill="white"/>
<path d="M110.865 29.9121C110.361 30.6402 109.913 31.4056 109.54 32.227C108.662 34.1685 108.233 36.2033 108.233 38.2568C108.233 39.8996 108.532 41.4677 109.129 42.9052C109.558 43.9506 110.137 44.884 110.828 45.6867C110.772 48.0389 109.11 50.0551 106.926 50.3538L103.043 50.8951C102.184 51.0072 101.419 50.8578 100.784 50.4844C99.7575 49.8871 99.1228 48.711 99.1228 47.2175L99.1601 27.6533V23.5089C99.1601 21.1007 100.859 19.0472 103.099 18.7299L106.982 18.1885C109.204 17.8712 110.865 19.4579 110.865 21.8661V29.8935V29.9121ZM107.505 46.0601L107.542 22.3515C107.542 21.9221 107.355 21.7355 106.982 21.7915L103.099 22.3328C102.707 22.3889 102.52 22.6315 102.52 23.0609L102.483 46.7695C102.483 47.1802 102.67 47.3669 103.062 47.3109L106.945 46.7695C107.318 46.7135 107.505 46.4708 107.523 46.0601" fill="white"/>
<path d="M99.1772 23.5274L90.6646 18.8977C90.6646 16.4895 92.3634 14.436 94.5849 14.1187L103.098 18.7484C100.876 19.0657 99.1772 21.1192 99.1772 23.5274Z" fill="white"/>
<path d="M94.6797 28.2703L86.167 23.6406L90.0873 23.0806L98.5813 27.7103L94.6797 28.2703Z" fill="white"/>
<path d="M91.4497 30.5098L82.937 25.8801C83.6277 24.6853 84.7852 23.8266 86.1479 23.6399L94.6606 28.2696C93.2792 28.4563 92.1404 29.315 91.4497 30.5098Z" fill="white"/>
<path d="M76.7017 43.6139C75.6936 42.4751 75.1896 40.7203 75.2083 38.3308L83.7209 42.9605C83.7209 45.35 84.225 47.1235 85.2144 48.2436C85.5318 48.5983 85.8865 48.897 86.2972 49.121L77.7845 44.4913C77.3738 44.2673 77.0191 43.9873 76.7017 43.6139Z" fill="#4848D8"/>
<path d="M88.7802 41.1323L80.2861 36.5026V28.6807L88.7988 33.3104L88.7802 41.1323Z" fill="white"/>
<path d="M84.3183 33.3091L75.8057 28.6794L79.6886 28.1194L88.2013 32.7491L84.3183 33.3091Z" fill="#4848D8"/>
<path d="M80.0625 28.176L88.5752 32.8057C88.7245 32.8804 88.7992 33.0484 88.7992 33.3284L80.2865 28.6987C80.2865 28.4374 80.2118 28.2694 80.0625 28.176Z" fill="white"/>
<path d="M80.0616 28.176L88.5743 32.8057C88.4809 32.7497 88.3503 32.731 88.2009 32.7684L79.6882 28.1387C79.8376 28.12 79.9683 28.1387 80.0616 28.176Z" fill="#4848D8"/>
<path d="M81.8539 24.891L90.3666 29.5207C89.7505 29.1847 89.0224 29.054 88.2197 29.166L79.707 24.5363C80.5098 24.4243 81.2378 24.555 81.8539 24.891Z" fill="white"/>
<path d="M83.7204 42.9628L75.2078 38.3331L75.2264 29.4097L83.7391 34.0394L83.7204 42.9628Z" fill="#4848D8"/>
<path d="M80.3979 43.4276L71.8853 38.7979L71.9039 29.8745L80.4166 34.5042L80.3979 43.4276Z" fill="white"/>
<path d="M80.0425 49.4567L71.5298 44.827L71.5671 29.9111L80.0611 34.5408L80.0425 49.4567Z" fill="white"/>
<path d="M84.5058 52.3899L75.9931 47.7601C75.4704 47.4801 75.041 47.1441 74.6677 46.8081C74.481 46.6401 74.313 46.4534 74.145 46.2854C72.6142 44.5679 71.8674 42.0477 71.8674 38.7808L80.3801 43.4105C80.3801 46.6774 81.1268 49.1976 82.6576 50.9151C82.807 51.0831 82.975 51.2698 83.1803 51.4378C83.5537 51.7738 83.9831 52.1098 84.5058 52.3899Z" fill="white"/>
<path d="M83.7402 34.0384L75.2275 29.4087C75.2275 28.9794 75.4142 28.7367 75.8063 28.6807L84.3189 33.3104C83.9269 33.3664 83.7402 33.6091 83.7402 34.0384Z" fill="#4848D8"/>
<path d="M98.5811 31.2946C98.9731 31.2386 99.1598 31.4253 99.1598 31.8546L99.1224 47.2372C99.1224 47.6479 98.9358 47.8906 98.5437 47.9466L94.6234 48.488C94.2501 48.544 94.0634 48.3573 94.0634 47.9466V46.4158C92.8686 48.2453 91.3378 49.3094 89.5083 49.5521C87.6789 49.7948 86.2227 49.3654 85.2147 48.2266C84.2066 47.0879 83.7025 45.3331 83.7212 42.9435V34.0202C83.7212 33.5908 83.9266 33.3481 84.3186 33.2921L88.2016 32.7507C88.5936 32.6947 88.7989 32.8814 88.7989 33.3108V41.1141C88.7989 42.1221 88.9856 42.8875 89.415 43.4476C89.8444 44.0076 90.4977 44.213 91.3565 44.101C92.0659 44.0076 92.7193 43.6156 93.2606 42.9435C93.802 42.2715 94.0634 41.5621 94.0634 40.834V32.564C94.0634 32.1347 94.2687 31.892 94.6421 31.836L98.5624 31.2946H98.5811Z" fill="#4848D8"/>
<path d="M66.3039 59.4635L57.7913 54.8338C58.2206 55.0578 58.6873 55.2631 59.21 55.4125C60.3115 55.7485 61.4689 55.8232 62.6637 55.6552C65.2585 55.3005 67.368 54.1057 69.0295 52.0709C70.6723 50.0547 71.5124 47.6279 71.531 44.8276L80.0437 49.4573C80.0437 52.2576 79.2037 54.6844 77.5422 56.7006C75.8994 58.7354 73.7712 59.9302 71.1763 60.2849C69.9816 60.4529 68.8241 60.3782 67.7227 60.0422C67.2 59.8929 66.7333 59.6875 66.3039 59.4635Z" fill="white"/>
<path d="M74.9648 50.7273L66.4521 46.0976L66.4708 44.4175L74.9648 49.0472V50.7273Z" fill="#4848D8"/>
<path d="M84.3183 29.7244L75.8057 25.0947L79.7073 24.5347L88.22 29.1644L84.3183 29.7244Z" fill="white"/>
<path d="M65.7441 40.7203C66.3042 40.0669 66.6029 39.2082 66.6029 38.2188C69.4404 39.7682 72.278 41.299 75.1156 42.8485C75.1156 43.8379 74.8355 44.6779 74.2568 45.35C71.6993 43.9685 68.3017 42.1017 65.7441 40.7203Z" fill="#4848D8"/>
<path d="M80.4167 34.5057L71.9041 29.876C71.9041 28.4759 72.4828 27.1878 73.3975 26.2917C74.0509 25.657 74.891 25.2276 75.8057 25.0969L84.3184 29.7266C83.385 29.8573 82.5636 30.2867 81.9102 30.9214C80.9955 31.8175 80.4167 33.1056 80.4167 34.5057Z" fill="white"/>
<path d="M75.5818 34.5231L67.0691 29.8934L70.9894 29.3521L79.5021 33.9818L75.5818 34.5231Z" fill="#4848D8"/>
<path d="M71.344 29.3887L79.8567 34.0184C80.006 34.093 80.0807 34.2797 80.0807 34.5411L71.568 29.9114C71.568 29.6314 71.4933 29.4633 71.344 29.3887Z" fill="white"/>
<path d="M99.1414 47.2358C99.1414 48.7292 99.7761 49.8866 100.803 50.5027C100.168 51.0627 99.4028 51.4361 98.5627 51.5481L94.6424 52.0895C94.0263 52.1828 93.4476 52.1081 92.9622 51.9215C91.8982 52.5562 90.7407 52.9669 89.5273 53.1349C86.4284 53.5643 84.4309 52.5562 83.2175 51.4361C83.0308 51.2681 82.8628 51.0814 82.6947 50.9134C81.164 49.1959 80.4172 46.6757 80.4172 43.4088V34.4854C80.4359 33.0853 81.0146 31.7972 81.9294 30.9011C82.5827 30.2664 83.4228 29.837 84.3375 29.7063L88.2205 29.165C89.602 28.9783 90.7594 29.501 91.4688 30.5091C92.1595 29.3143 93.3169 28.4556 94.6797 28.2689L98.6 27.7275C98.8054 27.7089 98.9921 27.6902 99.1787 27.6902V31.8719C99.1787 31.4425 98.9734 31.2558 98.5814 31.3118L94.661 31.8532C94.2877 31.9092 94.101 32.1519 94.0823 32.5812V40.8512C94.0823 41.5793 93.8023 42.2887 93.2609 42.9607C92.7196 43.6328 92.0848 44.0062 91.3568 44.1182C90.498 44.2488 89.8447 44.0248 89.4153 43.4648C88.9859 42.9047 88.7806 42.1393 88.7806 41.1313V33.328C88.7806 32.8986 88.5939 32.7119 88.2019 32.7679L84.3189 33.3093C83.9268 33.3653 83.7402 33.608 83.7402 34.0374V42.9607C83.7215 45.3503 84.2255 47.1237 85.215 48.2438C86.223 49.3826 87.6418 49.8306 89.5086 49.5693C91.3754 49.3079 92.8689 48.2625 94.0823 46.433V47.9638C94.0823 48.3745 94.269 48.5612 94.6424 48.5052L98.5627 47.9638C98.9547 47.9078 99.1414 47.6651 99.1414 47.2544V47.2358Z" fill="white"/>
<path d="M68.3191 54.7403L59.8064 50.1106C60.5531 50.5213 61.4679 50.652 62.5319 50.5026C63.8387 50.3159 64.8281 49.8119 65.4815 48.9532C66.1349 48.1131 66.4523 47.161 66.4523 46.0969L74.9649 50.7266C74.9649 51.772 74.6289 52.7241 73.9942 53.5829C73.3408 54.4229 72.3701 54.9456 71.0446 55.1323C69.9805 55.2817 69.0658 55.151 68.3191 54.7403Z" fill="#4848D8"/>
<path d="M71.343 29.3887L79.8557 34.0184C79.8557 34.0184 79.6503 33.9624 79.501 33.981L70.9883 29.3513C71.1376 29.3326 71.2496 29.3513 71.343 29.3887Z" fill="#4848D8"/>
<path d="M63.5391 41.9341C64.4351 41.8035 65.1632 41.3928 65.7419 40.7207L74.2546 45.3504C73.6759 46.0225 72.9478 46.4332 72.0517 46.5638C69.2142 45.0144 66.3766 43.4836 63.5391 41.9341Z" fill="#4848D8"/>
<path d="M68.3194 54.7407L59.8067 50.111C59.5827 49.999 59.396 49.8497 59.1907 49.6816L67.7034 54.3113C67.89 54.4794 68.0954 54.61 68.3194 54.7407Z" fill="white"/>
<path d="M67.4243 54.2379L58.9116 49.6082L59.2103 49.7015L67.723 54.3125L67.4243 54.2379Z" fill="#4848D8"/>
<path d="M66.3037 59.4639L57.791 54.8342C57.3057 54.5728 56.8763 54.2554 56.5029 53.8821L65.0156 58.5118C65.389 58.8851 65.8183 59.1838 66.3037 59.4639Z" fill="#4848D8"/>
<path d="M66.9753 54.5552L58.4626 49.9255C58.6307 49.7388 58.78 49.6268 58.9107 49.6082L67.4234 54.2379C67.2927 54.2565 67.1433 54.3685 66.9753 54.5552Z" fill="#4848D8"/>
<path d="M62.6631 41.9353C62.9431 41.9726 63.2231 41.9726 63.5405 41.9353C66.3781 43.4848 69.2156 45.0156 72.0532 46.565C71.7358 46.6023 71.4558 46.6023 71.1758 46.565C68.3382 45.0156 65.5006 43.4848 62.6631 41.9353Z" fill="#4848D8"/>
<path d="M64.9978 57.7274L56.4851 53.0977L58.4639 49.9241L66.9766 54.5538L64.9978 57.7274Z" fill="#4848D8"/>
<path d="M65.0332 58.531L56.5205 53.9013C56.2778 53.7146 56.2591 53.4532 56.4831 53.1172L64.9958 57.7469C64.7718 58.0829 64.7905 58.3443 65.0332 58.531Z" fill="#4848D8"/>
<path d="M66.6029 38.2191C66.6029 37.2297 66.3229 36.4457 65.7441 35.9043C68.5817 37.4538 71.4193 38.9845 74.2568 40.534C74.8355 41.0754 75.1156 41.8594 75.1156 42.8489C72.278 41.2994 69.4404 39.7686 66.6029 38.2191Z" fill="#4848D8"/>
<path d="M56.0182 58.1198C55.3461 57.7464 54.7301 57.317 54.1887 56.813L62.7014 61.4427C63.2428 61.9467 63.8588 62.3948 64.5309 62.7495C61.9733 61.368 58.5757 59.5012 56.0182 58.1198Z" fill="white"/>
<path d="M71.0073 25.769C71.8101 25.657 72.5194 25.7876 73.1355 26.1237L81.6482 30.7534C81.0508 30.4174 80.3227 30.2867 79.52 30.3987C76.9625 29.0172 73.5649 27.1504 71.0073 25.769Z" fill="white"/>
<path d="M61.8406 41.6731C62.0833 41.8038 62.3633 41.8971 62.662 41.9344C65.4995 43.4839 68.3371 45.0147 71.1747 46.5642C70.876 46.5268 70.6146 46.4335 70.3533 46.3028C67.7957 44.9214 64.3981 43.0545 61.8406 41.6731Z" fill="#4848D8"/>
<path d="M65.7242 35.9062C65.5562 35.7382 65.3695 35.6075 65.1829 35.5142L73.6955 40.1439C73.8822 40.2559 74.0689 40.3865 74.2369 40.5359C72.8181 39.7705 71.3994 38.9864 69.9806 38.221C69.6446 38.0344 69.1965 37.7917 68.8605 37.6237C68.5245 37.4556 68.0951 37.213 67.7591 37.0263C67.5911 36.9329 67.3857 36.8209 67.2177 36.7276C66.919 36.5596 66.5083 36.3356 66.1909 36.1675C66.0416 36.0929 65.8363 35.9995 65.7056 35.9062H65.7242Z" fill="#4848D8"/>
<path d="M67.2187 51.3994L58.7061 46.7697C59.6955 47.311 60.8156 47.4977 62.085 47.3297C63.0184 47.199 63.8398 46.8817 64.5305 46.3776C65.2212 45.8736 65.8746 45.2202 66.472 44.4175L74.9847 49.0472C74.3873 49.8499 73.7339 50.5033 73.0432 51.0073C72.3525 51.5301 71.5498 51.8287 70.5977 51.9594C69.3282 52.1461 68.2268 51.9594 67.2187 51.3994Z" fill="white"/>
<path d="M75.0037 36.5765L66.491 31.9468V30.6213L75.0037 35.251V36.5765Z" fill="#4848D8"/>
<path d="M75.0037 35.2511L66.491 30.6214C66.491 30.192 66.6777 29.9493 67.0697 29.8933L75.5824 34.523C75.1903 34.579 75.0037 34.8217 75.0037 35.2511Z" fill="#4848D8"/>
<path d="M65.2026 35.5132L73.7153 40.1429C73.2486 39.8815 72.7072 39.8068 72.0725 39.9002L63.5598 35.2705C64.1945 35.1771 64.7359 35.2705 65.2026 35.5132Z" fill="white"/>
<path d="M62.3447 55.9546L53.832 51.3249L55.3442 48.9167L63.8568 53.5465L62.3447 55.9546Z" fill="white"/>
<path d="M62.6997 61.4248L54.1871 56.7951C52.7309 55.507 52.5816 53.2481 53.8324 51.3066L62.3451 55.9363C61.0943 57.8778 61.2623 60.1367 62.6997 61.4248Z" fill="white"/>
<path d="M64.8472 30.6968L73.3598 35.3265C73.9199 35.6252 74.4613 36.0545 75.0026 36.5772L66.49 31.9475C65.9486 31.4248 65.4072 30.9955 64.8472 30.6968Z" fill="white"/>
<path d="M75.5809 30.9394L67.0869 26.3097L71.0072 25.7683L79.5012 30.398L75.5809 30.9394Z" fill="white"/>
<path d="M70.3556 46.3027L61.8429 41.673C61.6749 41.5796 61.5068 41.4676 61.3575 41.3369C60.7975 40.8329 60.4988 40.0675 60.5174 39.0781C60.5361 38.0887 60.7975 37.2299 61.3762 36.5205C61.9549 35.7925 62.6829 35.3818 63.5417 35.2698L72.0544 39.8995C71.1956 40.0302 70.4676 40.4222 69.8888 41.1502C69.3101 41.8596 69.0301 42.7184 69.0301 43.7078C69.0301 44.6972 69.3101 45.4626 69.8702 45.9666C70.0195 46.0973 70.1875 46.2093 70.3556 46.3027Z" fill="white"/>
<path d="M72.0529 39.9004C72.9303 39.7697 73.6584 39.9751 74.2371 40.5538C74.8158 41.0952 75.0958 41.8792 75.0958 42.8686C75.0958 43.858 74.8158 44.6981 74.2371 45.3702C73.6584 46.0422 72.9303 46.4529 72.0342 46.5836C71.1382 46.7143 70.4288 46.5089 69.8687 45.9862C69.3087 45.4822 69.01 44.7168 69.0287 43.7274C69.0473 42.738 69.3087 41.8792 69.8874 41.1698C70.4661 40.4418 71.1942 40.0311 72.0529 39.9191V39.9004Z" fill="white"/>
<path d="M73.9577 31.5361L65.4451 26.9063C65.9304 26.6077 66.4905 26.4023 67.0692 26.3276L75.5819 30.9573C75.0032 31.032 74.4431 31.2374 73.9577 31.5361Z" fill="white"/>
<path d="M63.3718 42.8502L54.8591 38.2205L54.9711 37.9404L63.4838 42.5701L63.3718 42.8502Z" fill="white"/>
<path d="M63.4841 42.57L54.9714 37.9403L55.0461 37.6416L63.5588 42.2713L63.4841 42.57Z" fill="white"/>
<path d="M79.5015 33.9823C79.8749 33.9263 80.0615 34.113 80.0615 34.5423V49.4582C80.0242 52.2584 79.1841 54.6853 77.5413 56.7015C75.8985 58.7363 73.7704 59.931 71.1755 60.2857C69.9807 60.4538 68.8233 60.3791 67.7219 60.0431C66.6205 59.707 65.7244 59.203 65.015 58.5123C64.7723 58.3256 64.7536 58.0642 64.9777 57.7282L66.9565 54.5546C67.1245 54.3679 67.2738 54.2559 67.4045 54.2373L67.6845 54.3306C68.5433 55.0587 69.6447 55.3387 71.0261 55.1333C72.4076 54.928 73.3223 54.4426 73.9757 53.5839C74.6291 52.7438 74.9465 51.7917 74.9465 50.7276V49.0288C74.3491 49.8316 73.6957 50.485 73.005 50.989C72.3142 51.5117 71.5115 51.8104 70.5594 51.9411C69.2527 52.1278 68.0952 51.9224 67.0685 51.325C66.0604 50.709 65.2763 49.8129 64.735 48.5995C64.1749 47.4047 63.9136 46.0046 63.9136 44.4178C63.9136 41.9723 64.5296 39.8628 65.7804 38.0333C67.0312 36.2038 68.6179 35.1584 70.5968 34.8784C71.5302 34.7477 72.3516 34.841 73.005 35.1397C73.677 35.4571 74.3304 35.9238 74.9838 36.5585V35.2331C74.9838 34.8037 75.1891 34.561 75.5625 34.505L79.4828 33.9636L79.5015 33.9823ZM74.2557 45.3512C74.8158 44.6978 75.1145 43.8391 75.1145 42.8497C75.1145 41.8603 74.8344 41.0762 74.2557 40.5348C73.677 39.9748 72.949 39.7694 72.0716 39.8814C71.1942 39.9934 70.4848 40.4041 69.9061 41.1322C69.3273 41.8416 69.0473 42.7003 69.0473 43.6897C69.0473 44.6792 69.3273 45.4445 69.8874 45.9486C70.4474 46.4713 71.1755 46.6766 72.0529 46.546C72.9303 46.4153 73.677 46.0046 74.2557 45.3325" fill="#4848D8"/>
<path d="M63.5596 42.2706L55.0469 37.6409L56.0736 33.6646L64.5863 38.2943L63.5596 42.2706Z" fill="white"/>
<path d="M67.2177 51.3989L58.705 46.7692C58.705 46.7692 58.6117 46.7318 58.5744 46.6945C57.5663 46.0784 56.7822 45.1824 56.2408 43.9689C55.6808 42.7742 55.4194 41.3741 55.4194 39.7873C55.4194 37.3417 56.0355 35.2322 57.2863 33.4027C58.537 31.5733 60.1238 30.5279 62.1026 30.2478C63.036 30.1172 63.8574 30.2105 64.5108 30.5092C64.6228 30.5652 64.7349 30.6212 64.8469 30.6772L73.3595 35.3069C73.2475 35.2509 73.1355 35.1949 73.0235 35.1389C72.3701 34.8402 71.5674 34.7469 70.6153 34.8775C68.6365 35.1576 67.031 36.203 65.7989 38.0325C64.5482 39.8619 63.9321 41.9714 63.9321 44.417C63.9321 46.0038 64.1935 47.4039 64.7535 48.5986C65.3136 49.8121 66.079 50.7081 67.087 51.3242C67.1244 51.3429 67.1617 51.3802 67.2177 51.3989Z" fill="#4848D8"/>
<path d="M52.1157 40.8883C53.3105 40.4776 54.3186 39.5069 54.8599 38.2188L63.3726 42.8485C62.8313 44.1366 61.8232 45.126 60.6284 45.518C58.0709 44.1366 54.6733 42.2697 52.1157 40.8883Z" fill="white"/>
<path d="M53.2171 45.9111C52.5451 44.4177 52.1904 42.7376 52.1157 40.8894L60.6284 45.5191C60.6844 47.3673 61.0578 49.0661 61.7298 50.5408C62.2899 51.7169 62.9806 52.725 63.858 53.5278L55.3453 48.8981C54.4679 48.0767 53.7585 47.0872 53.2171 45.9111Z" fill="white"/>
<path d="M56.074 33.6643C56.2607 32.9922 56.3353 32.3202 56.2793 31.7041C59.1169 33.2536 61.9544 34.7843 64.792 36.3338C64.848 36.9499 64.792 37.6219 64.5867 38.294C62.0291 36.9125 58.6315 35.0457 56.074 33.6643Z" fill="white"/>
<path d="M54.4297 54.1626L45.917 49.5329C46.309 49.4769 46.477 49.2342 46.4957 48.8235L55.0084 53.4532C55.0084 53.8639 54.8217 54.1066 54.4297 54.1626Z" fill="white"/>
<path d="M56.2785 31.7058C56.2411 31.1271 56.0731 30.5857 55.8118 30.1377L64.3245 34.7674C64.5858 35.2341 64.7538 35.7568 64.7912 36.3355C61.9536 34.7861 59.116 33.2553 56.2785 31.7058Z" fill="white"/>
<path d="M82.6752 50.9325C82.8245 51.1005 82.9925 51.2872 83.1979 51.4552C82.7872 54.2181 81.7044 56.7196 79.9123 58.8851C77.6161 61.704 74.6852 63.4028 71.1942 63.8882C69.5701 64.1122 67.9833 64.0002 66.4899 63.5522C64.9964 63.1041 63.7456 62.3947 62.7189 61.4427C61.2628 60.1546 61.1134 57.8957 62.3642 55.9542L63.8763 53.546C62.9989 52.7246 62.2895 51.7352 61.7482 50.5591C61.0761 49.0657 60.7214 47.3855 60.6467 45.5374C61.8415 45.1267 62.8496 44.1559 63.3909 42.8678L63.503 42.5878L63.5776 42.2891L64.6044 38.3128C64.7911 37.6407 64.8657 36.9687 64.8097 36.3526C64.7724 35.7739 64.6044 35.2325 64.343 34.7845C66.0605 32.8617 68.226 31.6856 70.6529 31.3496C71.8663 31.1816 72.9864 31.2562 73.9945 31.5549C74.4798 31.2562 75.0399 31.0509 75.6186 30.9762L79.5389 30.4348C80.4537 30.3041 81.2937 30.5095 81.9471 30.9575C81.0324 31.8536 80.4536 33.1417 80.4536 34.5418V43.4652C80.435 46.7321 81.1817 49.2523 82.7125 50.9698L82.6752 50.9325ZM80.043 49.4577V34.5418C80.0803 34.1125 79.8749 33.9258 79.5016 33.9818L75.5813 34.5232C75.1892 34.5792 75.0025 34.8218 75.0025 35.2512V36.5767C74.3492 35.9419 73.6958 35.4752 73.0237 35.1579C72.3703 34.8592 71.5676 34.7658 70.6155 34.8965C68.6367 35.1765 67.0312 36.222 65.7991 38.0514C64.5484 39.8809 63.9323 41.9904 63.9323 44.436C63.9323 46.0227 64.1937 47.4229 64.7537 48.6176C65.3138 49.831 66.0792 50.7271 67.0872 51.3432C68.114 51.9406 69.2714 52.1459 70.5782 51.9592C71.5116 51.8285 72.333 51.5112 73.0237 51.0071C73.7144 50.5031 74.3678 49.8497 74.9652 49.047V50.7458C74.9652 51.7912 74.6292 52.7433 73.9758 53.602C73.3224 54.4421 72.3517 54.9648 71.0262 55.1515C69.7008 55.3382 68.5434 55.0768 67.6846 54.3487L67.4046 54.2554C67.2739 54.2741 67.1246 54.3861 66.9566 54.5728L64.9777 57.7464C64.7537 58.0824 64.7724 58.3437 65.0151 58.5304C65.7245 59.2211 66.6205 59.7252 67.722 60.0612C68.8234 60.3972 69.9808 60.4719 71.1756 60.3039C73.7704 59.9492 75.88 58.7544 77.5414 56.7196C79.1842 54.7034 80.0243 52.2766 80.043 49.4764" fill="white"/>
<path d="M62.1216 26.6837C63.335 26.5157 64.4551 26.5904 65.4632 26.8891L73.9759 31.5188C72.9678 31.2014 71.8477 31.1454 70.6343 31.3134C68.2074 31.6495 66.0419 32.8256 64.3245 34.7484L55.8118 30.1187C57.5292 28.1959 59.6947 27.0198 62.1216 26.6837Z" fill="white"/>
<path d="M59.9363 42.1034L51.4236 37.4737C51.6103 37.455 51.7596 37.3244 51.853 37.1003L60.3656 41.73C60.2723 41.9541 60.123 42.0661 59.9363 42.1034Z" fill="white"/>
<path d="M59.6392 42.0836L51.1265 37.4539L51.4252 37.4725L59.9378 42.1022L59.6392 42.0836Z" fill="white"/>
<path d="M60.3682 41.7287L51.8555 37.099L52.9196 33.0667L61.4136 37.6964L60.3682 41.7287Z" fill="white"/>
<path d="M61.4132 37.6962L52.9005 33.0665C52.9566 32.8611 52.9752 32.6931 52.9566 32.5064C52.9566 32.3384 52.8632 32.2264 52.7139 32.1331L61.2266 36.7628C61.3759 36.8561 61.4506 36.9681 61.4692 37.1361C61.4692 37.3041 61.4692 37.4908 61.4132 37.6962Z" fill="white"/>
<path d="M54.9919 53.4525L46.4792 48.8227L46.4979 41.9155L55.0106 46.5452L54.9919 53.4525Z" fill="white"/>
<path d="M50.5283 54.7038L42.0156 50.0741L45.9173 49.5327L54.43 54.1624L50.5283 54.7038Z" fill="white"/>
<path d="M50.1745 54.6668L41.6619 50.0371C41.6619 50.0371 41.8672 50.0931 42.0352 50.0744L50.5479 54.7042C50.3986 54.7228 50.2679 54.7042 50.1745 54.6668Z" fill="white"/>
<path d="M50.1752 54.6665L41.6625 50.0368C41.5131 49.9621 41.4385 49.7941 41.4385 49.5327L49.9512 54.1624C49.9512 54.4238 50.0258 54.5918 50.1752 54.6665Z" fill="#4848D8"/>
<path d="M55.0098 46.5449L46.4971 41.9152C46.4971 40.6271 46.8144 39.563 47.4305 38.7603C48.0465 37.9389 48.8306 37.4908 49.764 37.3602C50.212 37.3042 50.6601 37.3228 51.1268 37.4348L59.6395 42.0646C59.1728 41.9339 58.7247 41.9152 58.2767 41.9899C57.3433 42.1206 56.5592 42.5873 55.9432 43.39C55.3271 44.1927 55.0098 45.2381 55.0098 46.5449Z" fill="white"/>
<path d="M58.8179 36.5571L50.3052 31.9274C51.3506 31.7781 52.1533 31.8528 52.732 32.1328L61.2447 36.7625C60.6847 36.4825 59.8633 36.4078 58.8179 36.5571Z" fill="#4848D8"/>
<path d="M56.5581 37.7166L48.0454 33.0869C48.7361 32.4335 49.4829 32.0415 50.3043 31.9294L58.8169 36.5591C57.9955 36.6712 57.2488 37.0632 56.5581 37.7166Z" fill="#4848D8"/>
<path d="M55.0099 39.8813L46.5159 35.2516L46.5532 35.2329L55.0659 39.8626L55.0099 39.8813Z" fill="#4848D8"/>
<path d="M55.0099 39.8817L46.5159 35.252V33.4412L55.0286 38.0709L55.0099 39.8817Z" fill="white"/>
<path d="M55.0644 39.8632L46.5518 35.2335C46.8691 34.4681 47.3732 33.7401 48.0452 33.0867L56.5579 37.7164C55.8858 38.3698 55.3818 39.0978 55.0644 39.8632Z" fill="#4848D8"/>
<path d="M49.9512 54.1627L41.4385 49.533L41.4758 34.1504L49.9885 38.7801L49.9512 54.1627Z" fill="#4848D8"/>
<path d="M46.6267 54.6285L38.114 49.9988L38.1514 34.6162L46.664 39.2459L46.6267 54.6285Z" fill="white"/>
<path d="M46.4787 54.6473L37.9661 50.0176L37.9847 34.635L46.4974 39.2647L46.4787 54.6473Z" fill="white"/>
<path d="M48.4005 57.9512L39.8879 53.3215C39.8879 53.3215 39.7572 53.2468 39.7012 53.2095C38.7304 52.5934 38.1331 51.436 38.1331 49.9985L46.6457 54.6282C46.6457 56.0844 47.2431 57.2231 48.2139 57.8392C48.2699 57.8765 48.3445 57.9138 48.4005 57.9512Z" fill="white"/>
<path d="M45.8808 55.3564L37.3682 50.7267C37.7602 50.6707 37.9469 50.428 37.9469 50.0173L46.4596 54.647C46.4596 55.0577 46.2729 55.3004 45.8808 55.3564Z" fill="white"/>
<path d="M50.5669 38.0528L42.0542 33.4231L45.9372 32.863L54.4499 37.4927L50.5669 38.0528Z" fill="#4848D8"/>
<path d="M46.2915 32.9177L54.8042 37.5474C54.9535 37.6221 55.0282 37.8088 55.0282 38.0701L46.5155 33.4404C46.5155 33.1604 46.4408 32.9924 46.2915 32.9177Z" fill="white"/>
<path d="M46.2905 32.9177L54.8032 37.5474C54.8032 37.5474 54.5978 37.4914 54.4485 37.5101L45.9358 32.8804C46.0851 32.8617 46.1971 32.8804 46.2905 32.9177Z" fill="#4848D8"/>
<path d="M54.5419 28.885L63.0546 33.5147C63.0546 33.5147 62.9799 33.4774 62.9426 33.4587C61.8598 32.8987 60.5157 32.7307 58.8169 32.9733C57.8462 33.104 56.8941 33.4774 55.998 34.0188L47.4854 29.3891C48.3814 28.8477 49.3335 28.4743 50.3042 28.3436C52.003 28.1009 53.3472 28.269 54.4299 28.829C54.4672 28.829 54.5046 28.8663 54.5419 28.885Z" fill="white"/>
<path d="M54.4685 33.9078L45.9558 29.2781C46.5159 29.2034 47.0386 29.2407 47.4866 29.3901L55.9993 34.0198C55.5326 33.8704 55.0099 33.8331 54.4685 33.9078Z" fill="white"/>
<path d="M41.9973 55.8986L33.4846 51.2689L37.3676 50.7275L45.8803 55.3572L41.9973 55.8986Z" fill="white"/>
<path d="M41.6247 55.8609L33.1121 51.2312C33.2054 51.2872 33.3361 51.3059 33.4854 51.2685L41.9981 55.8982C41.8301 55.9169 41.7181 55.8982 41.6247 55.8609Z" fill="white"/>
<path d="M41.6234 55.8613L33.1107 51.2316C32.9614 51.1569 32.8867 50.9889 32.8867 50.7275L41.3994 55.3572C41.3994 55.6186 41.4741 55.7866 41.6234 55.8613Z" fill="#4848D8"/>
<path d="M49.988 38.7801L41.4753 34.1504C41.4753 33.7211 41.662 33.4784 42.0541 33.4224L50.5667 38.0521C50.1747 38.1081 49.988 38.3508 49.988 38.7801Z" fill="#4848D8"/>
<path d="M64.7915 36.3327C64.8475 36.9487 64.7915 37.6208 64.5861 38.2929L63.5594 42.2692L63.4847 42.5679L63.3727 42.8479C62.8313 44.136 61.8232 45.1254 60.6285 45.5174C60.4044 45.5921 60.1617 45.6481 59.9191 45.6854C59.3777 45.7601 58.8736 45.7415 58.4069 45.5921C58.3509 45.6855 58.3323 45.8535 58.3323 46.0962V52.9847C58.3323 55.3929 56.6335 57.4464 54.412 57.7638L50.529 58.3051C49.6516 58.4358 48.8488 58.2491 48.2141 57.8384C47.2434 57.2224 46.646 56.065 46.646 54.6275L46.6833 39.2449C46.6833 37.7888 47.2994 36.482 48.2701 35.586C48.9048 34.9886 49.7076 34.5966 50.6036 34.4659L54.4866 33.9245C55.0467 33.8498 55.5694 33.8872 56.0174 34.0365C56.9135 33.4951 57.8656 33.1218 58.8363 32.9911C60.5351 32.7484 61.8792 32.9164 62.962 33.4765C63.5407 33.7752 64.0074 34.2232 64.3248 34.7646C64.5861 35.2313 64.7541 35.754 64.7915 36.3327ZM61.4312 37.6955C61.4872 37.4901 61.5059 37.3221 61.4872 37.1354C61.4872 36.9674 61.3939 36.8554 61.2445 36.7621C60.6845 36.482 59.8631 36.4074 58.8176 36.5567C57.9962 36.6687 57.2495 37.0608 56.5588 37.7141C55.8867 38.3675 55.3827 39.0956 55.0653 39.861H55.028V38.0688C55.028 37.6395 54.8413 37.4528 54.468 37.5088L50.585 38.0502C50.1929 38.1062 50.0063 38.3489 50.0063 38.7782L49.9689 54.1608C49.9689 54.5715 50.1556 54.7582 50.5476 54.7022L54.4306 54.1608C54.8227 54.1048 54.9907 53.8621 55.0093 53.4514V46.5629C55.0093 45.2748 55.3454 44.2107 55.9614 43.4079C56.5775 42.5865 57.3615 42.1385 58.2949 42.0078C58.743 41.9518 59.191 41.9705 59.6577 42.0825H59.9564C60.1431 42.0825 60.2924 41.9518 60.3858 41.7465L61.4312 37.7141" fill="white"/>
<path d="M58.8183 36.5588C59.8637 36.4094 60.6665 36.4841 61.2452 36.7641C61.3945 36.8575 61.4692 36.9695 61.4879 37.1375C61.4879 37.3055 61.4879 37.4922 61.4319 37.6975L60.3864 41.7299C60.2931 41.9539 60.1438 42.0659 59.9571 42.1032H59.6584C59.1917 41.9539 58.7437 41.9352 58.2956 41.9912C57.3622 42.1219 56.5781 42.5886 55.9621 43.3913C55.346 44.1941 55.0287 45.2395 55.0287 46.5462V53.4348C55.0287 53.8455 54.842 54.0882 54.45 54.1442L50.567 54.6856C50.175 54.7416 49.9883 54.5549 49.9883 54.1442L50.0256 38.7616C50.0256 38.3323 50.2123 38.0896 50.6043 38.0336L54.4873 37.4922C54.8793 37.4362 55.0474 37.6229 55.0474 38.0522V39.863H55.0847C55.402 39.0976 55.9061 38.3696 56.5781 37.7162C57.2689 37.0628 58.0156 36.6708 58.837 36.5588H58.8183Z" fill="#4848D8"/>
<path d="M50.5669 34.4664L42.0542 29.8367L45.9558 29.2766L54.4685 33.9063L50.5669 34.4664Z" fill="white"/>
<path d="M39.8511 59.1479L31.3384 54.5182C30.2557 53.9395 29.565 52.7261 29.5836 51.1953L38.0963 55.825C38.0963 57.3558 38.787 58.5692 39.8511 59.1479Z" fill="white"/>
<path d="M42.0339 39.247L33.5212 34.6173L37.4042 34.0759L45.9169 38.7056L42.0339 39.247Z" fill="#4848D8"/>
<path d="M46.6636 39.2474L38.1509 34.6177C38.1509 33.1616 38.7669 31.8548 39.7377 30.9587C40.3724 30.3613 41.1751 29.9693 42.0712 29.8386L50.5839 34.4683C49.7065 34.599 48.9037 34.991 48.2504 35.5884C47.2796 36.4845 46.6636 37.8099 46.6636 39.2474Z" fill="white"/>
<path d="M37.7605 34.1116L46.2732 38.7413C46.4225 38.8159 46.4972 39.0026 46.4972 39.264L37.9845 34.6343C37.9845 34.3729 37.9098 34.1862 37.7605 34.1116Z" fill="white"/>
<path d="M37.7597 34.1116L46.2724 38.7413C46.2724 38.7413 46.0671 38.6853 45.9177 38.7039L37.405 34.0742C37.5544 34.0555 37.6664 34.0742 37.7597 34.1116Z" fill="#4848D8"/>
<path d="M41.3994 55.3575L32.8867 50.7278L32.9241 35.3452L41.4181 39.9749L41.3994 55.3575Z" fill="#4848D8"/>
<path d="M38.0779 55.8228L29.5652 51.1931L29.5839 45.6113L38.0965 50.241L38.0779 55.8228Z" fill="white"/>
<path d="M37.405 30.4916C38.2078 30.3796 38.9358 30.5103 39.5332 30.8463L48.0459 35.476C47.4485 35.14 46.7204 35.0093 45.9177 35.1213C43.3602 33.7399 39.9626 31.8731 37.405 30.4916Z" fill="white"/>
<path d="M32.0281 57.2998L23.5154 52.6701C23.7954 52.6327 24.0008 52.39 24.1688 51.9233L32.6815 56.553C32.5321 57.0197 32.3268 57.2624 32.0281 57.2998Z" fill="white"/>
<path d="M41.4192 39.974L32.9065 35.3443C32.9065 34.9149 33.0932 34.6722 33.5039 34.6162L42.0166 39.2459C41.6059 39.3019 41.4192 39.5446 41.4192 39.974Z" fill="#4848D8"/>
<path d="M46.6276 54.6295C46.6276 56.0856 47.2249 57.2244 48.1957 57.8404C47.561 58.4378 46.7582 58.8299 45.8622 58.9605L41.9792 59.5019C39.7577 59.8193 38.0589 58.2325 38.0775 55.8243V50.2425L38.1149 40.4417C38.1149 38.9856 38.7496 37.6415 39.739 36.7641C40.3737 36.1854 41.1765 35.7933 42.0539 35.6627L45.9368 35.1213C46.8142 34.9906 47.617 35.1773 48.2517 35.588C47.281 36.4841 46.6649 37.8095 46.6649 39.247L46.6276 54.6295ZM46.4596 54.6482L46.4969 39.2656C46.4969 38.8363 46.3102 38.6496 45.9182 38.7056L42.0352 39.247C41.6245 39.303 41.4378 39.5456 41.4378 39.975L41.4005 55.3576C41.4005 55.7683 41.5872 55.955 41.9979 55.899L45.8808 55.3576C46.2729 55.3016 46.4596 55.0589 46.4596 54.6482Z" fill="white"/>
<path d="M45.9174 38.705C46.3094 38.649 46.4961 38.8357 46.4961 39.2651L46.4587 54.6476C46.4587 55.0583 46.272 55.301 45.88 55.357L41.997 55.8984C41.5863 55.9544 41.3997 55.7677 41.3997 55.357L41.437 39.9744C41.437 39.5451 41.6237 39.3024 42.0344 39.2464L45.9174 38.705Z" fill="#4848D8"/>
<path d="M42.0339 35.6623L33.5212 31.0326L37.4042 30.4912L45.9169 35.1209L42.0339 35.6623Z" fill="white"/>
<path d="M38.0959 50.2415L29.5833 45.6118L29.6019 35.811L38.1146 40.4407L38.0959 50.2415Z" fill="white"/>
<path d="M32.6826 56.5519L24.1699 51.9222L29.3597 35.8489L37.8724 40.4786L32.6826 56.5519Z" fill="white"/>
<path d="M33.4475 40.4592L24.9348 35.8294L28.9858 35.2507L37.4985 39.8804L33.4475 40.4592Z" fill="#4848D8"/>
<path d="M38.1138 40.4412L29.6011 35.8115C29.6011 34.3554 30.2358 33.0113 31.2252 32.1339C31.8599 31.5552 32.6627 31.1631 33.5401 31.0325L42.0527 35.6622C41.1753 35.7929 40.3913 36.1849 39.7379 36.7636C38.7485 37.6597 38.1138 38.9851 38.1138 40.4412Z" fill="white"/>
<path d="M37.8723 40.4773L29.3596 35.8476C29.4156 35.6422 29.397 35.5115 29.3596 35.3809L37.8723 40.0106C37.9283 40.1226 37.947 40.2719 37.8723 40.4773Z" fill="white"/>
<path d="M29.2476 35.2896L37.7602 39.9193C37.7602 39.9193 37.8349 39.9753 37.8723 40.0126L29.3596 35.3829C29.3596 35.3829 29.3036 35.3082 29.2476 35.2896Z" fill="white"/>
<path d="M27.7363 57.913L19.2236 53.2833L23.536 52.6672L32.03 57.2969L27.7363 57.913Z" fill="white"/>
<path d="M29.2467 35.2881L37.7594 39.9178C37.7594 39.9178 37.61 39.8618 37.498 39.8804L28.9854 35.2507C29.0787 35.2507 29.172 35.2507 29.2467 35.2881Z" fill="#4848D8"/>
<path d="M27.4553 57.8592L18.9426 53.2295C18.9426 53.2295 19.1293 53.2855 19.2227 53.2855L27.7353 57.9152C27.642 57.9152 27.5487 57.9152 27.4553 57.8592Z" fill="white"/>
<path d="M27.4542 57.8585L18.9415 53.2288C18.7921 53.1541 18.6801 52.9861 18.5681 52.7061L27.0808 57.3358C27.1741 57.6158 27.3048 57.7838 27.4542 57.8585Z" fill="#4848D8"/>
<path d="M28.9854 31.6679C29.7321 31.5559 30.4228 31.6866 31.0202 32.0039L39.5329 36.6336C38.9355 36.3163 38.2448 36.1856 37.498 36.2976C34.9405 34.9162 31.5429 33.0494 28.9854 31.6679Z" fill="white"/>
<path d="M25.6825 61.1442L17.1699 56.5145C16.4791 56.1412 15.8444 55.4504 15.4524 54.3677L23.9651 58.9974C24.3571 60.0801 24.9732 60.7522 25.6825 61.1442Z" fill="white"/>
<path d="M29.9006 50.2426L21.3879 45.6129L24.3188 36.5588L32.8315 41.1885L29.9006 50.2426Z" fill="#4848D8"/>
<path d="M32.8318 41.1886L24.3191 36.5589C24.4311 36.1108 24.6551 35.8681 24.9351 35.8308L33.4478 40.4605C33.1678 40.4979 32.9625 40.7405 32.8318 41.1886Z" fill="#4848D8"/>
<path d="M33.4475 36.8757L24.9348 32.246L28.9858 31.6672L37.4985 36.2969L33.4475 36.8757Z" fill="white"/>
<path d="M29.9184 39.8243L21.4058 35.1946C22.0778 33.5891 23.4219 32.4503 24.934 32.2263L33.4467 36.856C31.9159 37.0614 30.5905 38.2188 29.9184 39.8243Z" fill="white"/>
<path d="M29.9009 50.2418L21.3882 45.6121L18.4946 37.3794L26.9886 42.0091L29.9009 50.2418Z" fill="white"/>
<path d="M22.3213 42.0088L13.8086 37.3791L17.8409 36.8191L26.3536 41.4488L22.3213 42.0088Z" fill="#4848D8"/>
<path d="M18.1392 36.8767L26.6518 41.5064C26.8012 41.5811 26.9132 41.7491 27.0065 42.0105L18.4939 37.3808C18.4192 37.1194 18.2885 36.9514 18.1392 36.8767Z" fill="white"/>
<path d="M18.1388 36.8751L26.6515 41.5048C26.6515 41.5048 26.4648 41.4488 26.3528 41.4488L17.8401 36.8191C17.9521 36.8191 18.0454 36.8191 18.1388 36.8751Z" fill="#4848D8"/>
<path d="M19.9134 33.5907L28.426 38.2204C27.8287 37.8844 27.1193 37.7724 26.3725 37.8657L17.8599 33.236C18.6253 33.124 19.316 33.2547 19.9134 33.5907Z" fill="white"/>
<path d="M27.0816 57.3355L18.5876 52.7058L13.4539 38.0886L21.9665 42.7183L27.0816 57.3355Z" fill="#4848D8"/>
<path d="M21.9658 42.7192L13.4531 38.0895C13.3971 37.9028 13.3971 37.7535 13.4531 37.6228L21.9658 42.2525C21.9098 42.3832 21.9098 42.5325 21.9658 42.7192Z" fill="#4848D8"/>
<path d="M21.9665 42.2529L13.4539 37.6232C13.5099 37.4925 13.6405 37.4178 13.8086 37.3992L22.3212 42.0289C22.1346 42.0475 22.0225 42.1409 21.9665 42.2529Z" fill="#4848D8"/>
<path d="M37.4987 36.2959C38.3201 36.1839 39.0855 36.3519 39.7202 36.7626C38.7308 37.6586 38.0961 38.9841 38.0961 40.4402V50.241L35.7999 57.3349C35.0345 59.6684 33.3357 60.7138 32.0289 60.9005L27.7166 61.4979C26.4098 61.6846 24.711 61.1059 23.9456 58.9964L18.8492 44.3979C18.4198 43.2591 18.5132 41.9523 19.0919 40.8136C19.7453 39.5068 20.9587 38.6107 22.3028 38.424L26.3351 37.864C27.8846 37.64 29.1914 38.4054 29.8821 39.8242C30.5541 38.2187 31.8982 37.0799 33.4104 36.8559L37.4614 36.2772L37.4987 36.2959ZM37.8721 40.4775C37.9281 40.2722 37.9094 40.1415 37.8721 40.0108C37.7974 39.9175 37.6854 39.8615 37.5174 39.8802L33.4664 40.4589C33.1863 40.4962 32.981 40.7389 32.8503 41.1869L29.9194 50.241L27.0259 42.0083C26.8952 41.5976 26.6712 41.4109 26.3911 41.4483L22.3588 42.0083C22.1721 42.027 22.0601 42.1203 22.0041 42.2323C21.9481 42.363 21.9481 42.5124 22.0041 42.6991L27.1379 57.3162C27.2872 57.7456 27.5112 57.9323 27.7726 57.8949L32.0849 57.2976C32.365 57.2602 32.5703 57.0175 32.7383 56.5508L37.9281 40.4775" fill="white"/>
<path d="M37.4987 39.882C37.6667 39.8634 37.7787 39.9007 37.8534 40.0127C37.9094 40.1247 37.9281 40.2741 37.8534 40.4794L32.6637 56.5527C32.5143 57.0194 32.309 57.2621 32.0103 57.2994L27.6979 57.8968C27.4366 57.9341 27.2125 57.7475 27.0632 57.3181L21.9295 42.7009C21.8735 42.5142 21.8735 42.3649 21.9295 42.2342C21.9855 42.1035 22.1161 42.0289 22.2841 42.0102L26.3165 41.4502C26.5965 41.4128 26.8205 41.5808 26.9512 42.0102L29.8448 50.2429L32.7757 41.1888C32.8877 40.7408 33.1117 40.4981 33.3917 40.4607L37.4427 39.882H37.4987Z" fill="#4848D8"/>
<path d="M22.3213 38.4253L13.8086 33.7956L17.8596 33.2356L26.3536 37.8653L22.3213 38.4253Z" fill="white"/>
<path d="M23.9631 58.9973L15.4504 54.3676L10.354 39.769L18.8667 44.3988L23.9631 58.9973Z" fill="white"/>
<path d="M18.8677 44.3982L10.3551 39.7685C9.92569 38.6297 10.019 37.323 10.5977 36.1842C11.2511 34.8774 12.4646 33.9814 13.8087 33.7947L22.3214 38.4244C20.9772 38.6111 19.7638 39.5071 19.1104 40.8139C18.5317 41.9527 18.4384 43.2594 18.8677 44.3982Z" fill="white"/>
<path d="M89.6018 25.3738L81.0891 20.7441C81.4811 20.6881 81.6678 20.4454 81.6678 20.0347L90.1805 24.6644C90.1805 25.0751 89.9938 25.3178 89.6018 25.3738Z" fill="white"/>
<path d="M85.6985 25.916L77.1858 21.2862L81.1061 20.7449L89.6001 25.3746L85.6985 25.916Z" fill="white"/>
<path d="M85.3447 25.878L76.832 21.2483C76.832 21.2483 77.0374 21.3043 77.1681 21.2856L85.6807 25.9153C85.5314 25.934 85.4194 25.9153 85.3447 25.878Z" fill="white"/>
<path d="M85.3445 25.8786L76.8318 21.2489C76.6825 21.1742 76.6265 21.0062 76.6265 20.7449L85.1392 25.3746C85.1392 25.6359 85.2138 25.8039 85.3445 25.8786Z" fill="#4848D8"/>
<path d="M90.1987 24.6643L81.686 20.0346L81.7047 11.0925L90.2174 15.7222L90.1987 24.6643Z" fill="white"/>
<path d="M83.5532 29.1648L75.0405 24.5351C74.6112 24.2924 74.2378 23.9564 73.9578 23.5457L82.4705 28.1754C82.7505 28.5861 83.1238 28.9408 83.5532 29.1648Z" fill="white"/>
<path d="M85.1392 25.3724L76.6265 20.7427L76.6451 12.9021L85.1578 17.5318L85.1392 25.3724Z" fill="#4848D8"/>
<path d="M79.2402 26.8298L70.7275 22.2001C71.1009 22.1441 71.2876 21.9014 71.3063 21.4907L79.8189 26.1204C79.8189 26.5311 79.6323 26.7738 79.2402 26.8298Z" fill="white"/>
<path d="M79.1284 4.93237L87.6411 9.56208C88.0331 9.7861 88.4065 10.0661 88.7239 10.4208C89.7319 11.5596 90.236 13.3144 90.2173 15.7039L81.7046 11.0742C81.7046 8.68467 81.2193 6.9112 80.2112 5.79111C79.8938 5.43641 79.5391 5.13772 79.1284 4.93237Z" fill="white"/>
<path d="M85.1586 17.5324L76.6459 12.9027C76.6459 11.9133 76.4219 11.1479 75.9739 10.5879L84.4866 15.2176C84.9346 15.759 85.1586 16.543 85.1586 17.5324Z" fill="#4848D8"/>
<path d="M75.974 10.6074C75.8247 10.4021 75.638 10.2527 75.4326 10.1221L83.9453 14.7518C84.1507 14.8638 84.3373 15.0318 84.4867 15.2371C81.9291 13.8557 78.1768 12.4929 75.974 10.6074Z" fill="#4848D8"/>
<path d="M75.3567 27.372L66.844 22.7423L70.727 22.2009L79.2397 26.8306L75.3567 27.372Z" fill="white"/>
<path d="M74.9853 27.3333L66.4727 22.7036C66.566 22.7596 66.6967 22.7783 66.846 22.741L75.3587 27.3707C75.1907 27.3893 75.0787 27.3707 74.9853 27.3333Z" fill="white"/>
<path d="M79.8203 26.1197L71.3076 21.49L71.3263 13.22L79.839 17.8497L79.8203 26.1197Z" fill="white"/>
<path d="M79.1272 4.93138L87.6399 9.56109C86.7811 9.09439 85.6984 8.94504 84.4289 9.13172L75.9163 4.50202C77.1857 4.31534 78.2685 4.46468 79.1272 4.93138Z" fill="#4848D8"/>
<path d="M74.9847 27.3347L66.4721 22.705C66.3227 22.6303 66.248 22.4623 66.248 22.2009L74.7607 26.8306C74.7607 27.092 74.8354 27.26 74.9847 27.3347Z" fill="#4848D8"/>
<path d="M75.4327 10.1218L83.9454 14.7515C83.572 14.5461 83.1053 14.4901 82.5639 14.5648C81.8545 14.6582 81.2011 15.0689 80.6598 15.7409C80.0997 16.413 79.8384 17.1224 79.8384 17.8504L71.3257 13.2207C71.3257 12.4926 71.6057 11.7833 72.1471 11.1112C72.6885 10.4391 73.3232 10.0471 74.0512 9.93511C74.5926 9.86044 75.0593 9.93511 75.4327 10.1218Z" fill="white"/>
<path d="M79.8384 12.2511L71.3257 7.62137L71.3444 6.09058L79.8384 10.7203V12.2511Z" fill="white"/>
<path d="M79.8384 12.2494L71.3257 7.61965C72.5204 5.79017 74.0699 4.74475 75.8994 4.4834L84.4121 9.1131C82.5639 9.37446 81.0331 10.4199 79.8384 12.2494Z" fill="#4848D8"/>
<path d="M73.1914 30.6006L64.6788 25.9709C63.652 25.4108 62.9986 24.3094 62.9426 22.872C62.9426 22.7973 62.9426 22.7226 62.9426 22.6479L71.4553 27.2777C71.4553 27.2777 71.4553 27.427 71.4553 27.5017C71.5113 28.9205 72.1834 30.0405 73.1914 30.6006Z" fill="white"/>
<path d="M75.3955 10.7184L66.8828 6.08874L70.7658 5.54736L79.2785 10.1771L75.3955 10.7184Z" fill="#4848D8"/>
<path d="M71.1199 5.58594L79.6326 10.2156C79.7819 10.2903 79.8566 10.4583 79.8566 10.7197L71.3439 6.08998C71.3439 5.82862 71.2692 5.66061 71.1199 5.58594Z" fill="white"/>
<path d="M71.1211 5.58592L79.6337 10.2156C79.6337 10.2156 79.4284 10.1596 79.279 10.1783L70.7664 5.54858C70.9157 5.52992 71.0277 5.54858 71.1211 5.58592Z" fill="#4848D8"/>
<path d="M80.9215 1.66583L89.4342 6.29553C88.2394 5.64215 86.5966 5.23145 84.4311 5.54881C83.199 5.71682 82.0603 6.12752 80.9775 6.74357L72.4648 2.11387C73.5476 1.49782 74.6864 1.08712 75.9185 0.919103C78.1026 0.620412 79.7268 1.01244 80.9215 1.66583Z" fill="white"/>
<path d="M79.279 6.59397L70.7664 1.96426C71.3824 1.87092 71.9425 1.92693 72.4465 2.11361L80.9592 6.74331C80.4551 6.55663 79.8764 6.50063 79.279 6.59397Z" fill="white"/>
<path d="M74.7607 26.8288L66.248 22.1991L66.2854 6.79785L74.7981 11.4276L74.7607 26.8288Z" fill="#4848D8"/>
<path d="M74.7976 11.4297L66.2849 6.79997C66.2849 6.38927 66.4716 6.14658 66.8823 6.09058L75.395 10.7203C74.9843 10.7763 74.7976 11.019 74.7976 11.4297Z" fill="#4848D8"/>
<path d="M91.2629 7.75169C92.7937 9.46916 93.5404 11.9894 93.5404 15.2563V24.1984C93.5217 26.6065 91.8416 28.6414 89.6201 28.9587L85.6998 29.5001C84.3183 29.6868 83.1609 29.1641 82.4888 28.156C81.7981 29.3508 80.622 30.2095 79.2592 30.3962L75.3763 30.9376C73.2107 31.2362 71.568 29.7801 71.4746 27.5026C71.4746 27.4279 71.4746 27.3533 71.4746 27.2786L71.5119 11.8774C71.5119 11.8774 71.5119 11.728 71.5119 11.6347C71.624 9.33849 73.2668 7.41567 75.4323 7.09831L79.3152 6.55693C79.9313 6.46359 80.4913 6.51959 80.9954 6.70628C82.0781 6.09023 83.2169 5.67953 84.449 5.51151C88.0146 5.00747 90.1241 6.42625 91.2815 7.71436L91.2629 7.75169ZM90.1988 24.6651V15.723C90.2174 13.3335 89.7321 11.56 88.724 10.4399C87.7159 9.30115 86.2971 8.87178 84.4303 9.13314C82.5635 9.39449 81.0514 10.4399 79.8566 12.2694V10.7386C79.8566 10.3279 79.6699 10.1412 79.2966 10.1972L75.4136 10.7386C75.0029 10.7946 74.8162 11.0373 74.8162 11.448L74.7789 26.8492C74.7789 27.2599 74.9656 27.4466 75.3763 27.3906L79.2592 26.8492C79.6326 26.7932 79.8193 26.5505 79.8379 26.1398V17.8698C79.8379 17.1418 80.118 16.4324 80.678 15.7603C81.2194 15.0883 81.8541 14.6963 82.5822 14.5842C83.4409 14.4722 84.0756 14.6776 84.505 15.2563C84.953 15.7977 85.177 16.5817 85.177 17.5711V25.3931C85.177 25.8038 85.3451 25.9905 85.7184 25.9532L89.6387 25.4118C90.0308 25.3558 90.2175 25.1131 90.2175 24.7024" fill="white"/>
<path d="M84.4315 9.13239C86.2983 8.87104 87.7171 9.30041 88.7251 10.4392C89.7332 11.5779 90.2373 13.3327 90.2186 15.7223V24.6643C90.2186 25.075 90.0132 25.3177 89.6212 25.3737L85.7009 25.9151C85.3275 25.9711 85.1409 25.7844 85.1409 25.355V17.5331C85.1409 16.5437 84.9355 15.7783 84.4875 15.2182C84.0581 14.6582 83.4047 14.4342 82.5647 14.5462C81.8553 14.6395 81.2019 15.0502 80.6605 15.7223C80.1005 16.3943 79.8391 17.1037 79.8391 17.8318V26.1018C79.8391 26.5125 79.6337 26.7551 79.2604 26.8111L75.3774 27.3525C74.9667 27.4085 74.78 27.2218 74.78 26.8111L74.8174 11.4099C74.8174 10.9992 75.004 10.7565 75.4147 10.7005L79.2977 10.1591C79.6711 10.1031 79.8578 10.2898 79.8578 10.7005V12.2313C81.0525 10.4018 82.602 9.35641 84.4315 9.09506V9.13239Z" fill="#4848D8"/>
<path d="M75.3955 7.13373L66.8828 2.50402L70.7658 1.96265L79.2785 6.59235L75.3955 7.13373Z" fill="white"/>
<path d="M71.4375 27.2966L62.9248 22.6669L62.9621 7.26562L71.4748 11.8953L71.4375 27.2966Z" fill="white"/>
<path d="M58.5942 8.23584L67.1069 12.8655C68.2083 13.4629 69.0858 14.3403 69.7391 15.4791C70.4485 16.7112 70.8032 18.1113 70.7846 19.6794C70.7659 21.2476 70.4299 22.741 69.7205 24.1785L61.2078 19.5487C61.9358 18.13 62.2719 16.6178 62.2719 15.0497C62.2719 13.4816 61.9358 12.0815 61.2264 10.8494C60.5731 9.71063 59.6957 8.85189 58.5942 8.23584Z" fill="white"/>
<path d="M58.4817 28.7161L49.969 24.0864C50.0623 24.1424 50.1743 24.1984 50.2677 24.2358C51.4811 24.8331 52.8252 25.0385 54.2813 24.8331C55.7375 24.6278 57.1002 24.0491 58.3137 23.097C59.5458 22.1636 60.5165 20.9875 61.2259 19.55L69.7386 24.1798C69.0292 25.6172 68.0584 26.812 66.8263 27.7267C65.5942 28.6788 64.2501 29.2575 62.794 29.4628C61.3379 29.6682 59.9938 29.4628 58.7804 28.8655C58.6684 28.8095 58.575 28.7721 58.4817 28.7161Z" fill="white"/>
<path d="M56.4658 18.3349C57.0445 17.5881 57.3432 16.7294 57.3619 15.74C60.1995 17.2894 63.037 18.8202 65.8746 20.3697C65.8746 21.3591 65.5759 22.2178 64.9785 22.9646C62.421 21.5831 59.0234 19.7163 56.4658 18.3349Z" fill="#4848D8"/>
<path d="M71.4741 11.8948L62.9614 7.26513C62.9614 7.26513 62.9614 7.11579 62.9614 7.02245C63.0734 4.72626 64.7162 2.80344 66.8817 2.48608L75.3944 7.11579C73.2289 7.41448 71.5861 9.3373 71.4741 11.6522C71.4741 11.7268 71.4741 11.8015 71.4741 11.8948Z" fill="white"/>
<path d="M54.2815 19.6608C55.1402 19.5301 55.887 19.1007 56.4657 18.354L64.9784 22.9837C64.3996 23.7304 63.6529 24.1785 62.7942 24.2905C59.9566 22.741 57.1191 21.2102 54.2815 19.6608Z" fill="#4848D8"/>
<path d="M57.362 15.7589C57.362 14.7695 57.0633 13.9855 56.4846 13.4067C59.3222 14.9562 62.1597 16.487 64.9973 18.0364C65.576 18.6152 65.8747 19.3992 65.8747 20.3886C63.0371 18.8392 60.1996 17.3084 57.362 15.7589Z" fill="#4848D8"/>
<path d="M52.6943 19.3999C53.161 19.6426 53.6837 19.7359 54.2811 19.6613C57.1187 21.2107 59.9563 22.7415 62.7938 24.291C62.1964 24.3656 61.6737 24.291 61.207 24.0296C58.6495 22.6482 55.2519 20.7813 52.6943 19.3999Z" fill="#4848D8"/>
<path d="M56.4833 13.4072C56.2966 13.2205 56.1099 13.0898 55.9045 12.9778L64.4172 17.6075C64.6226 17.7195 64.8279 17.8688 64.9959 18.0369C63.5772 17.2715 62.1584 16.4874 60.7396 15.722C60.4036 15.5353 59.9555 15.2926 59.6195 15.1246C59.2835 14.9566 58.8541 14.7139 58.5181 14.5272C58.3501 14.4339 58.1447 14.3219 57.9767 14.2286C57.8087 14.1352 57.6033 14.0232 57.454 13.9485C57.1553 13.7805 56.7259 13.6125 56.4646 13.4072H56.4833Z" fill="#4848D8"/>
<path d="M58.3311 8.10596C58.3311 8.10596 58.4991 8.1993 58.5924 8.23663L67.1051 12.8663C67.1051 12.8663 66.9371 12.773 66.8437 12.7357C64.0062 11.1862 61.1686 9.65541 58.3311 8.10596Z" fill="#4848D8"/>
<path d="M61.2066 24.03L52.6939 19.4003C52.4886 19.2883 52.3019 19.139 52.1152 18.9709L60.6279 23.6007C60.8146 23.7687 61.0013 23.918 61.2066 24.03Z" fill="white"/>
<path d="M55.887 12.9595L64.3996 17.5892C63.9329 17.3278 63.3916 17.2532 62.7942 17.3278L54.2815 12.6981C54.8789 12.6048 55.4203 12.6981 55.887 12.9595Z" fill="white"/>
<path d="M56.4092 7.52686C57.0812 7.6202 57.716 7.82555 58.332 8.10557C61.1696 9.65503 64.0071 11.1858 66.8447 12.7353C66.2286 12.4366 65.5939 12.2499 64.9219 12.1566C62.0843 10.6071 59.2467 9.07631 56.4092 7.52686Z" fill="#4848D8"/>
<path d="M48.1773 27.3716C47.3932 26.9422 46.7025 26.4195 46.0864 25.8035L54.5991 30.4332C55.2152 31.0492 55.9246 31.5719 56.6899 32.0013C54.1324 30.6199 50.7348 28.753 48.1773 27.3716Z" fill="white"/>
<path d="M46.0864 25.8019C46.1238 25.5405 46.1424 25.2978 46.1424 25.0178L54.6551 29.6475C54.6551 29.9089 54.6364 30.1702 54.5991 30.4316C52.0416 29.0501 48.644 27.1833 46.0864 25.8019Z" fill="white"/>
<path d="M60.6479 18.6353L52.1353 14.0056C52.714 13.2776 53.442 12.8295 54.2821 12.7175L62.7948 17.3472C61.936 17.4592 61.2267 17.9073 60.6479 18.6353Z" fill="white"/>
<path d="M62.8123 17.3477C63.671 17.2171 64.4178 17.4597 64.9965 18.0385C65.5752 18.6172 65.8739 19.4012 65.8739 20.3906C65.8739 21.3801 65.5752 22.2388 64.9778 22.9855C64.3991 23.7323 63.6524 24.1803 62.7936 24.2923C61.9349 24.4043 61.2255 24.1803 60.6468 23.6016C60.0868 23.0229 59.7881 22.2388 59.8067 21.2307C59.8254 20.2226 60.0868 19.3639 60.6655 18.6172C61.2442 17.8891 61.9722 17.4411 62.8123 17.3291V17.3477Z" fill="white"/>
<path d="M60.6466 23.6009L52.1339 18.9712C51.5738 18.3925 51.2751 17.6084 51.2938 16.6004C51.3125 15.5923 51.5738 14.7335 52.1525 13.9868L60.6652 18.6165C60.0865 19.3632 59.8065 20.222 59.8065 21.2301C59.8065 22.2381 60.0865 23.0222 60.6466 23.6009Z" fill="white"/>
<path d="M49.9698 24.0856C48.887 23.5069 48.0283 22.6295 47.3936 21.4907C50.2311 23.0402 53.0687 24.571 55.9062 26.1204C56.541 27.2592 57.3997 28.1179 58.4824 28.7153C55.9249 27.3339 52.5273 25.467 49.9698 24.0856Z" fill="#4848D8"/>
<path d="M54.2996 7.52737C55.0276 7.41536 55.737 7.41536 56.4091 7.52737C58.0145 8.40477 59.62 9.28217 61.2254 10.1409C61.9535 10.5329 62.6816 10.925 63.4096 11.3357C63.7083 11.5037 64.119 11.7277 64.4364 11.8957C64.5857 11.9704 64.7537 12.1571 64.9217 12.1571C64.2497 12.0637 63.5403 12.0637 62.8122 12.1571C59.9747 10.6076 57.1371 9.07682 54.2996 7.52737Z" fill="#4848D8"/>
<path d="M52.0786 8.16157C52.788 7.84421 53.5347 7.63886 54.3001 7.52686C57.1377 9.07631 59.9753 10.6071 62.8128 12.1566C62.0474 12.2686 61.3007 12.4739 60.5913 12.7913C57.7537 11.2418 54.9162 9.71103 52.0786 8.16157Z" fill="#4848D8"/>
<path d="M50.7541 30.8247L42.2415 26.195C42.6335 26.139 42.8202 25.8963 42.8202 25.4856L51.3329 30.1153C51.3329 30.526 51.1462 30.7687 50.7541 30.8247Z" fill="white"/>
<path d="M54.6549 29.6474L46.1609 25.0177L46.1796 16.0757L54.6736 20.7054L54.6549 29.6474Z" fill="white"/>
<path d="M47.3928 21.4906C46.6834 20.2585 46.3287 18.8584 46.3474 17.2903C49.1849 18.8397 52.0225 20.3705 54.8601 21.92C54.8601 23.4881 55.2148 24.8882 55.9055 26.1203C54.4867 25.3549 53.0679 24.5709 51.6491 23.8055C51.3131 23.6188 50.8651 23.3761 50.529 23.2081C50.361 23.1148 50.137 23.0027 49.9877 22.9094C49.4463 22.6107 48.9236 22.3307 48.3822 22.032C48.0835 21.864 47.6355 21.7333 47.3928 21.4906Z" fill="#4848D8"/>
<path d="M50.2869 9.24548C50.8469 8.81611 51.4443 8.46142 52.079 8.1814C54.9166 9.73085 57.7541 11.2616 60.5917 12.8111C59.9756 13.0911 59.3783 13.4458 58.7995 13.8752C55.962 12.3257 53.1244 10.7949 50.2869 9.24548Z" fill="#4848D8"/>
<path d="M46.3276 17.3098C46.3276 15.723 46.701 14.2482 47.3917 12.8108C50.2293 14.3602 53.0668 15.891 55.9044 17.4405C55.195 18.8779 54.8403 20.3714 54.8403 21.9395C52.0028 20.3901 49.1652 18.8593 46.3276 17.3098Z" fill="#4848D8"/>
<path d="M47.4124 12.7921C48.1217 11.3733 49.0738 10.1785 50.3059 9.24512C53.1435 10.7946 55.981 12.3254 58.8186 13.8748C57.5865 14.8269 56.6344 16.003 55.925 17.4218C53.0875 15.8723 50.2499 14.3415 47.4124 12.7921Z" fill="#4848D8"/>
<path d="M69.7387 15.4794C70.4481 16.7115 70.8028 18.1116 70.7841 19.6797C70.7655 21.2479 70.4294 22.7413 69.72 24.1788C69.0107 25.6162 68.0399 26.811 66.8078 27.7257C65.5757 28.6778 64.2316 29.2565 62.7755 29.4619C61.3194 29.6672 59.9753 29.4618 58.7618 28.8645C57.5297 28.2858 56.5777 27.371 55.8869 26.1202C55.1776 24.8881 54.8229 23.488 54.8415 21.9199C54.8602 20.3518 55.2149 18.8583 55.9056 17.4209C56.615 16.0021 57.5671 14.8073 58.7992 13.8739C60.0126 12.9405 61.3567 12.3618 62.8128 12.1565C64.2689 11.9511 65.6317 12.1565 66.8452 12.7352C68.0773 13.3326 69.048 14.2473 69.7387 15.4794ZM64.9783 22.984C65.5571 22.2373 65.8557 21.3785 65.8744 20.3891C65.8931 19.3997 65.5757 18.6156 64.997 18.0369C64.4183 17.4582 63.6902 17.2155 62.8128 17.3462C61.9354 17.4769 61.2447 17.9063 60.666 18.6343C60.0873 19.381 59.8073 20.2398 59.8073 21.2479C59.8073 22.2559 60.0873 23.04 60.6473 23.6187C61.226 24.1788 61.9541 24.4214 62.7942 24.3094C63.6342 24.1974 64.3996 23.7494 64.9783 23.0027" fill="#4848D8"/>
<path d="M46.832 31.3856L38.3193 26.7558L42.2396 26.1958L50.7523 30.8255L46.832 31.3856Z" fill="white"/>
<path d="M46.4961 31.348L37.9834 26.7183C37.9834 26.7183 38.1887 26.7743 38.3194 26.7556L46.8321 31.3853C46.6828 31.404 46.5708 31.3853 46.4961 31.348Z" fill="white"/>
<path d="M46.4959 31.3483L37.9832 26.7186C37.8338 26.644 37.7778 26.476 37.7778 26.2146L46.2905 30.8443C46.2905 31.1057 46.3652 31.2737 46.4959 31.3483Z" fill="#4848D8"/>
<path d="M51.3313 30.1152L42.8186 25.4855L42.8373 16.5435L51.35 21.1732L51.3313 30.1152Z" fill="white"/>
<path d="M44.7046 34.6137L36.1919 29.984C35.7625 29.7414 35.3892 29.4053 35.1091 28.9946L43.6218 33.6243C43.9018 34.035 44.2752 34.3897 44.7046 34.6137Z" fill="white"/>
<path d="M67.8916 9.03973L68.937 9.61845C68.8063 9.54377 68.6757 9.4691 68.5263 9.4131C66.7902 8.57303 64.886 8.29301 62.8325 8.5917C60.779 8.89039 58.8749 9.69312 57.1387 11.0186C55.7013 12.12 54.5252 13.4641 53.5918 15.0322C52.229 14.2855 50.3995 13.2961 49.0181 12.5493C49.5781 11.784 50.0635 11.1866 50.7356 10.5332C50.0635 11.2052 49.5595 11.784 49.0181 12.5493L45.0791 10.4025C46.0125 8.83438 47.1886 7.49028 48.6261 6.38885C50.3435 5.06341 52.2663 4.24201 54.3198 3.96199C56.3733 3.68197 58.2775 3.96199 60.0136 4.78339C60.1443 4.85806 60.2937 4.91407 60.4243 4.98874C62.6645 6.20217 65.6514 7.8263 67.8916 9.03973Z" fill="white"/>
<path d="M71.4743 11.8959L71.437 27.2971C71.437 27.2971 71.437 27.4465 71.437 27.5212C70.5969 28.6972 69.6075 29.7427 68.4687 30.6201C66.7326 31.9455 64.8098 32.7669 62.7749 33.0469C60.7401 33.327 58.8173 33.0469 57.0998 32.2069C56.1664 31.7588 55.3263 31.1614 54.5983 30.4334C54.6356 30.172 54.6543 29.9293 54.6543 29.6493V20.7073C54.673 18.4484 54.2996 16.5443 53.5715 15.0321C54.5049 13.464 55.681 12.1199 57.1185 11.0185C58.836 9.69305 60.7588 8.87165 62.8123 8.59163C64.8658 8.31161 66.7699 8.59163 68.5061 9.41303C69.6448 9.97307 70.6342 10.7198 71.4743 11.6719C71.4743 11.7466 71.4743 11.8212 71.4743 11.9146V11.8959ZM69.7382 24.1796C70.4662 22.7608 70.8023 21.2486 70.8023 19.6805C70.8023 18.1124 70.4662 16.7123 69.7568 15.4802C69.0474 14.2481 68.0954 13.352 66.8633 12.736C65.6312 12.1572 64.2871 11.9519 62.8309 12.1572C61.3748 12.3626 60.0307 12.9413 58.8173 13.8747C57.5852 14.8268 56.6331 16.0029 55.9237 17.4217C55.2143 18.8591 54.8596 20.3526 54.8596 21.9207C54.8596 23.4888 55.2143 24.8889 55.9051 26.121C56.6144 27.3531 57.5665 28.2679 58.78 28.8653C59.9934 29.4626 61.3375 29.668 62.7936 29.4626C64.2497 29.2573 65.6125 28.6786 66.8259 27.7265C68.058 26.7931 69.0288 25.617 69.7382 24.1796Z" fill="white"/>
<path d="M54.6725 20.7069L46.1598 16.0772C46.1598 13.8184 45.7864 11.9142 45.0583 10.4021L53.571 15.0318C54.2991 16.5626 54.6725 18.4667 54.6725 20.7069Z" fill="white"/>
<path d="M46.2727 30.8247L37.76 26.195L37.7787 18.373L46.2914 23.0028L46.2727 30.8247Z" fill="#4848D8"/>
<path d="M40.3738 32.2817L31.8611 27.652C32.2344 27.596 32.4211 27.3533 32.4398 26.9426L40.9525 31.5723C40.9525 31.983 40.7658 32.2257 40.3738 32.2817Z" fill="white"/>
<path d="M40.2808 10.4021L48.7934 15.0318C49.1855 15.2558 49.5588 15.5358 49.8762 15.8905C50.8843 17.0293 51.3697 18.8028 51.3697 21.1923L42.857 16.5626C42.857 14.1731 42.3716 12.3996 41.3635 11.2608C41.0462 10.9061 40.6915 10.6261 40.2808 10.4021Z" fill="white"/>
<path d="M46.2922 23.0022L37.7795 18.3725C37.7795 17.3831 37.5555 16.6177 37.1074 16.0576L45.6201 20.6873C46.0681 21.2287 46.2922 22.0128 46.2922 23.0022Z" fill="#4848D8"/>
<path d="M37.1075 16.0584C36.9582 15.853 36.7715 15.7037 36.5662 15.573L45.0788 20.2027C45.2842 20.3147 45.4709 20.4827 45.6202 20.6881C43.0627 19.3066 39.3104 17.9439 37.1075 16.0584Z" fill="#4848D8"/>
<path d="M36.4902 32.8426L27.9775 28.2129L31.8792 27.6528L40.3732 32.2825L36.4902 32.8426Z" fill="white"/>
<path d="M36.1157 32.784L27.603 28.1543C27.6964 28.2103 27.827 28.229 27.9764 28.1916L36.4891 32.8213C36.3397 32.84 36.2091 32.8213 36.1157 32.784Z" fill="white"/>
<path d="M40.9538 31.5707L32.4412 26.941L32.4598 18.6897L40.9725 23.3194L40.9538 31.5707Z" fill="white"/>
<path d="M37.0498 9.95352C38.3379 9.76683 39.402 9.91618 40.2794 10.4016L48.7921 15.0313C47.9147 14.5646 46.8506 14.4152 45.5625 14.5832C43.0049 13.2018 39.6073 11.335 37.0498 9.95352Z" fill="#4848D8"/>
<path d="M36.1163 32.7866L27.6037 28.1569C27.4543 28.0822 27.3796 27.9142 27.3796 27.6528L35.8923 32.2825C35.8923 32.5439 35.967 32.7119 36.1163 32.7866Z" fill="#4848D8"/>
<path d="M36.566 15.5918L45.0787 20.2215C44.7053 20.0161 44.2386 19.9601 43.6972 20.0348C42.9878 20.1281 42.3531 20.5388 41.7931 21.2109C41.233 21.8829 40.9717 22.5923 40.9717 23.3204L32.459 18.6907C32.459 17.9626 32.739 17.2532 33.2804 16.5812C33.8404 15.9091 34.4565 15.5171 35.1845 15.4051C35.7259 15.3304 36.1926 15.4051 36.566 15.5918Z" fill="white"/>
<path d="M40.9717 17.7188L32.459 13.0891L32.4777 11.5583L40.9717 16.1881V17.7188Z" fill="white"/>
<path d="M40.9717 17.7193L32.459 13.0896C33.6724 11.2601 35.2032 10.2147 37.0327 9.95337L45.5454 14.5831C43.6972 14.8444 42.1851 15.8712 40.9717 17.7193Z" fill="#4848D8"/>
<path d="M35.8923 32.2799L27.3796 27.6501L27.417 12.2676L35.9297 16.8973L35.8923 32.2799Z" fill="#4848D8"/>
<path d="M32.571 32.7486L24.0583 28.1189L24.0957 12.7363L32.6084 17.366L32.571 32.7486Z" fill="white"/>
<path d="M32.4199 32.7851L23.9072 28.1554L23.9446 12.7542L32.4572 17.3839L32.4199 32.7851Z" fill="white"/>
<path d="M34.3258 36.0713L25.8132 31.4416C25.8132 31.4416 25.7011 31.3669 25.6451 31.3296C24.6744 30.7135 24.0583 29.5748 24.0583 28.1187L32.571 32.7484C32.571 34.2045 33.1871 35.3432 34.1578 35.9593C34.2138 35.9966 34.2698 36.034 34.3258 36.0713Z" fill="white"/>
<path d="M31.824 33.4934L23.3113 28.8637C23.722 28.8077 23.9087 28.565 23.9087 28.1543L32.4213 32.784C32.4213 33.1947 32.2347 33.4374 31.824 33.4934Z" fill="white"/>
<path d="M36.5271 16.1723L28.0144 11.5426L31.8974 11.0012L40.4101 15.6309L36.5271 16.1723Z" fill="#4848D8"/>
<path d="M32.2534 11.0369L40.7661 15.6666C40.9154 15.7412 40.9901 15.9093 40.9901 16.1706L32.4774 11.5409C32.4774 11.2796 32.4028 11.1115 32.2534 11.0369Z" fill="white"/>
<path d="M32.2526 11.0349L40.7653 15.6646C40.7653 15.6646 40.56 15.6086 40.4106 15.6273L31.8979 10.9976C32.0473 10.9789 32.1593 10.9976 32.2526 11.0349Z" fill="#4848D8"/>
<path d="M42.0729 7.1336L50.5856 11.7633C49.3908 11.1099 47.748 10.6992 45.5638 11.0166C44.3317 11.1846 43.193 11.5953 42.1289 12.2113L33.6162 7.58164C34.6803 6.96559 35.8377 6.55489 37.0512 6.38688C39.2353 6.08819 40.8595 6.48022 42.0729 7.1336Z" fill="white"/>
<path d="M40.4106 12.0439L31.8979 7.41421C32.514 7.32087 33.0927 7.37688 33.5968 7.56356L42.1094 12.1933C41.6054 12.0066 41.0267 11.9506 40.4106 12.0439Z" fill="white"/>
<path d="M27.9404 34.0356L19.4277 29.4059L23.3107 28.8645L31.8234 33.4942L27.9404 34.0356Z" fill="white"/>
<path d="M27.5671 33.9988L19.0544 29.3691C19.0544 29.3691 19.2598 29.4251 19.4278 29.4065L27.9405 34.0362C27.7911 34.0549 27.6605 34.0362 27.5671 33.9988Z" fill="white"/>
<path d="M27.5665 33.9982L19.0539 29.3685C18.9045 29.2939 18.8298 29.1259 18.8298 28.8645L27.3425 33.4942C27.3425 33.7556 27.4172 33.9236 27.5665 33.9982Z" fill="#4848D8"/>
<path d="M35.9311 16.8974L27.4185 12.2677C27.4185 11.857 27.6238 11.6144 28.0158 11.5583L36.5285 16.1881C36.1365 16.2441 35.9311 16.4867 35.9311 16.8974Z" fill="#4848D8"/>
<path d="M53.5908 15.0314C54.3189 16.5622 54.6922 18.4663 54.6922 20.7065V29.6486C54.6922 29.9099 54.6549 30.1713 54.6176 30.4326C54.3002 32.4861 52.7321 34.1476 50.7532 34.4276L46.8329 34.969C45.4515 35.1557 44.3127 34.633 43.622 33.6249C42.9313 34.8196 41.7552 35.6784 40.3924 35.8651L36.5094 36.4064C35.6134 36.5371 34.8293 36.3504 34.1759 35.9584C33.2052 35.3424 32.5891 34.2036 32.5891 32.7475L32.6264 17.3462C32.6264 15.2367 33.9332 13.4073 35.7627 12.7725C36.0241 12.6792 36.2854 12.6232 36.5468 12.5859L40.4297 12.0445C41.0458 11.9511 41.6245 12.0071 42.1285 12.1938C43.1926 11.5778 44.3501 11.1671 45.5635 10.9991C49.1291 10.495 51.2573 11.9138 52.396 13.2019C52.8627 13.7246 53.2548 14.3407 53.5908 15.0314ZM51.332 30.1339V21.1919C51.3506 18.8024 50.8652 17.0289 49.8572 15.8901C48.8491 14.7514 47.4303 14.322 45.5448 14.5833C43.6593 14.8447 42.1846 15.8715 40.9711 17.7196V16.1888C40.9711 15.7781 40.7844 15.5914 40.4111 15.6474L36.5281 16.1888C36.1361 16.2448 35.9307 16.4875 35.9307 16.8982L35.8934 32.2994C35.8934 32.7101 36.0987 32.8968 36.4908 32.8408L40.3737 32.2994C40.7471 32.2434 40.9338 32.0008 40.9525 31.5901V23.3201C40.9525 22.592 41.2325 21.8826 41.7925 21.2105C42.3526 20.5385 42.9686 20.1465 43.6967 20.0345C44.5554 19.9224 45.1901 20.1278 45.6195 20.7065C46.0675 21.2479 46.2915 22.0319 46.2915 23.0214V30.8433C46.2915 31.254 46.4596 31.4407 46.8329 31.4034L50.7532 30.862C51.1453 30.806 51.332 30.5633 51.332 30.1526" fill="white"/>
<path d="M45.5642 14.5833C47.431 14.322 48.8498 14.7513 49.8765 15.8901C50.8846 17.0289 51.37 18.8023 51.37 21.1919V30.1339C51.37 30.5446 51.1646 30.7873 50.7726 30.8433L46.8523 31.3847C46.4789 31.4407 46.2922 31.254 46.2922 30.8246V23.0027C46.2922 22.0133 46.0869 21.2479 45.6388 20.6878C45.2095 20.1278 44.5561 19.9037 43.716 20.0158C43.0066 20.1091 42.3719 20.5198 41.8119 21.1919C41.2518 21.8639 40.9905 22.5733 40.9905 23.3014V31.5714C40.9905 31.9821 40.7851 32.2247 40.4118 32.2807L36.5288 32.8221C36.1367 32.8781 35.9314 32.6914 35.9314 32.2807L35.9687 16.8795C35.9687 16.4688 36.1741 16.2261 36.5661 16.1701L40.4491 15.6287C40.8225 15.5727 41.0091 15.7594 41.0091 16.1701V17.7009C42.2226 15.8714 43.7534 14.826 45.5828 14.5647L45.5642 14.5833Z" fill="#4848D8"/>
<path d="M17.2803 32.6353C16.7389 32.3366 16.2909 31.8885 15.9922 31.3098C18.8297 32.8593 21.6673 34.3901 24.5049 35.9395C24.8036 36.5182 25.2516 36.9663 25.793 37.265C23.2354 35.8835 19.8378 34.0167 17.2803 32.6353Z" fill="white"/>
<path d="M36.5271 12.5856L28.0144 7.95593L31.9161 7.41455L40.4101 12.0443L36.5271 12.5856Z" fill="white"/>
<path d="M27.3613 33.4953L18.8486 28.8656L18.8673 13.4644L27.38 18.0941L27.3613 33.4953Z" fill="#4848D8"/>
<path d="M15.9922 31.3092C17.7843 29.3491 18.7551 26.9969 18.7551 24.4954C21.5926 26.0448 24.4302 27.5756 27.2678 29.1251C27.2678 31.6266 26.297 33.9788 24.5049 35.9389C21.9473 34.5575 18.5497 32.6907 15.9922 31.3092Z" fill="white"/>
<path d="M27.9773 17.384L19.4646 12.7543L23.3476 12.2129L31.8603 16.8426L27.9773 17.384Z" fill="#4848D8"/>
<path d="M32.6077 17.3637L24.095 12.734C24.095 10.6245 25.4017 8.79503 27.2312 8.16031C27.4926 8.06697 27.7539 8.01097 28.0153 7.97363L36.528 12.6033C36.2479 12.6407 35.9866 12.6967 35.7439 12.79C33.9144 13.4247 32.6077 15.2542 32.6077 17.3637Z" fill="white"/>
<path d="M23.7227 12.2498L32.2353 16.8795C32.3847 16.9541 32.4594 17.1221 32.4594 17.3835L23.9467 12.7538C23.9467 12.4924 23.872 12.3244 23.7227 12.2498Z" fill="white"/>
<path d="M23.7215 12.2495L32.2342 16.8792C32.1409 16.8232 32.0102 16.8045 31.8608 16.8419L23.3481 12.2122C23.5162 12.1935 23.6282 12.2122 23.7215 12.2495Z" fill="#4848D8"/>
<path d="M18.756 24.4967C18.756 23.2459 18.532 22.0698 18.084 21.0618C20.9215 22.6112 23.7591 24.142 26.5967 25.6915C27.0447 26.7182 27.2687 27.8756 27.2687 29.1264C24.4312 27.577 21.5936 26.0462 18.756 24.4967Z" fill="white"/>
<path d="M25.0283 23.4129L16.5156 18.7832L17.0197 18.1484L25.5324 22.7781L25.0283 23.4129Z" fill="white"/>
<path d="M18.0837 21.0607C17.6917 20.146 17.169 19.3806 16.5156 18.7832L25.0283 23.4129C25.663 24.0103 26.2044 24.7757 26.5964 25.6904C25.1777 24.925 23.7589 24.141 22.3401 23.3756C22.0041 23.1889 21.556 22.9462 21.22 22.7782C20.884 22.6102 20.4546 22.3675 20.1186 22.1808C19.9506 22.0875 19.7452 21.9755 19.5772 21.8821C19.2785 21.7141 18.8678 21.4901 18.5505 21.3221C18.4011 21.2474 18.1771 21.1727 18.0651 21.0607H18.0837Z" fill="white"/>
<path d="M27.3794 18.0932L18.8667 13.4635C18.8667 13.0528 19.0534 12.8102 19.4454 12.7542L27.9581 17.3839C27.5661 17.4399 27.3794 17.6825 27.3794 18.0932Z" fill="#4848D8"/>
<path d="M28.3706 14.1917L19.8579 9.56196C20.2873 9.80464 20.7913 9.87932 21.3327 9.80464C22.1541 9.69263 22.8448 9.3006 23.4049 8.64722L31.9175 13.2769C31.3575 13.9303 30.6668 14.3223 29.8454 14.4343C29.2853 14.509 28.8 14.4343 28.3706 14.1917Z" fill="white"/>
<path d="M22.9189 3.88745L31.4316 8.51716C31.6183 8.6105 31.7863 8.74117 31.9357 8.89052C32.4957 9.41323 32.7757 10.104 32.7757 11C32.7757 11.8961 32.4957 12.6055 31.9357 13.2402L23.423 8.6105C23.983 7.97578 24.2631 7.21038 24.2631 6.37032C24.2631 5.53025 23.983 4.78352 23.423 4.26081C23.2736 4.11147 23.087 3.98079 22.9189 3.88745Z" fill="white"/>
<path d="M19.8755 9.56099C19.7075 9.46765 19.5395 9.35564 19.3901 9.2063C22.2277 10.7558 25.0653 12.2865 27.9028 13.836C28.0522 13.9853 28.2202 14.0974 28.3882 14.1907C25.8307 12.8093 22.433 10.9424 19.8755 9.56099Z" fill="#4848D8"/>
<path d="M22.1543 3.64331C22.4343 3.68065 22.677 3.75532 22.9197 3.886L31.4324 8.5157C31.1897 8.38503 30.947 8.31035 30.667 8.27302C27.8294 6.72356 24.9919 5.19277 22.1543 3.64331Z" fill="#4848D8"/>
<path d="M21.3687 3.66326C21.6487 3.62592 21.91 3.62592 22.1527 3.66326C24.9903 5.21271 27.8278 6.7435 30.6654 8.29296C30.4227 8.25563 30.1614 8.25563 29.8813 8.29296C27.0438 6.7435 24.2062 5.21271 21.3687 3.66326Z" fill="#4848D8"/>
<path d="M19.3723 9.18828C18.8309 8.70291 18.5696 8.03085 18.5696 7.17212C21.4071 8.72158 24.2447 10.2524 27.0823 11.8018C27.0823 12.6606 27.3436 13.3326 27.885 13.818C26.4662 13.0526 25.0474 12.2685 23.6287 11.5031C23.2926 11.3165 22.8446 11.0738 22.5086 10.9058C22.1725 10.7377 21.7432 10.4951 21.4071 10.3084C21.2391 10.215 21.0338 10.103 20.8658 10.0097C20.5671 9.84167 20.1564 9.61765 19.839 9.44964C19.6897 9.37496 19.4843 9.28162 19.3536 9.18828H19.3723Z" fill="#4848D8"/>
<path d="M19.3901 4.83918C19.9315 4.14846 20.5849 3.77509 21.369 3.66309C24.2065 5.21254 27.0441 6.74333 29.8816 8.29279C29.0976 8.4048 28.4442 8.77816 27.9028 9.46889C25.0653 7.91943 22.2277 6.38864 19.3901 4.83918Z" fill="#4848D8"/>
<path d="M18.5696 7.17263C18.5696 6.27656 18.8496 5.51117 19.3723 4.83911C22.2099 6.38857 25.0474 7.91936 27.885 9.46882C27.3436 10.1409 27.0823 10.9249 27.0823 11.8023C24.2447 10.2529 21.4071 8.72209 18.5696 7.17263Z" fill="#4848D8"/>
<path d="M21.3687 0.059689C22.6007 -0.108325 23.7208 0.0783572 24.6916 0.619734L33.2043 5.24944C32.2335 4.72673 31.0948 4.52138 29.8813 4.68939C28.1825 4.93208 26.6891 5.82815 25.513 7.30294C24.3742 8.74039 23.7768 10.4579 23.7768 12.2687C23.7768 13.6688 24.1315 14.9009 24.8409 15.8716L16.3282 11.2419C15.6189 10.2525 15.2642 9.03908 15.2642 7.63897C15.2642 5.80948 15.8615 4.09201 17.0003 2.67323C18.1764 1.19845 19.6885 0.302375 21.3687 0.059689Z" fill="white"/>
<path d="M35.7442 12.7922C33.9148 13.427 32.608 15.2564 32.608 17.3659L32.5707 32.7672C32.5707 34.2233 33.1867 35.3621 34.1574 35.9781C33.5041 36.5568 32.72 36.9675 31.8239 37.0982L27.9409 37.6396C26.4102 37.8449 25.1407 37.1915 24.506 35.9594C26.2981 33.9993 27.2689 31.6471 27.2689 29.1456C27.2689 27.8948 27.0449 26.7187 26.5968 25.7106C26.2048 24.7959 25.6821 24.0305 25.0287 23.4331L25.5141 22.7984C26.9142 21.0249 27.0449 18.7287 25.7941 17.1793L25.6634 17.0112L25.4954 16.8806C25.2341 16.6379 24.954 16.4325 24.6554 16.2272C24.7114 16.1152 24.7674 16.0218 24.8234 15.9285C24.114 14.9391 23.7593 13.7256 23.7593 12.3255C23.7593 10.4961 24.3567 8.77858 25.4954 7.3598C26.6715 5.88502 28.1836 4.98895 29.8638 4.74626C31.5439 4.50357 33.112 4.98895 34.2881 6.09037C35.4642 7.19179 36.0803 8.75991 36.0803 10.6081C36.0803 11.3735 35.9683 12.1389 35.7442 12.8482V12.7922ZM32.4213 32.7858L32.4586 17.3846C32.4586 16.9739 32.272 16.7872 31.8613 16.8432L27.9783 17.3846C27.5863 17.4406 27.3996 17.6833 27.3996 18.094L27.3622 33.4952C27.3622 33.9059 27.5489 34.0926 27.9409 34.0366L31.8239 33.4952C32.2346 33.4392 32.4213 33.1965 32.4213 32.7858ZM31.9173 13.2589C32.4773 12.6242 32.7573 11.8588 32.7573 11.0188C32.7573 10.1787 32.4773 9.43197 31.9173 8.90926C31.3572 8.36788 30.6852 8.1812 29.8638 8.29321C29.0797 8.40522 28.4263 8.77858 27.8849 9.46931C27.3436 10.1414 27.0822 10.9254 27.0822 11.8028C27.0822 12.6802 27.3436 13.3336 27.8849 13.819C28.4263 14.323 29.0797 14.5284 29.8638 14.4164C30.6852 14.3044 31.3759 13.9123 31.9359 13.2589" fill="white"/>
<path d="M31.8608 16.8422C32.2715 16.7862 32.4582 16.9729 32.4582 17.3836L32.4209 32.7849C32.4209 33.1956 32.2342 33.4382 31.8235 33.4942L27.9405 34.0356C27.5485 34.0916 27.3618 33.9049 27.3618 33.4942L27.3992 18.093C27.3992 17.6823 27.5858 17.4396 27.9779 17.3836L31.8608 16.8422Z" fill="#4848D8"/>
<path d="M22.2661 33.6059L13.7534 28.9762C14.8548 27.7814 15.4149 26.456 15.4149 24.9625C15.4149 24.1971 15.2842 23.5251 15.0229 22.9277C14.7615 22.3303 14.4441 21.8823 14.0148 21.5276L22.5275 26.1573C22.9382 26.4933 23.2742 26.96 23.5355 27.5574C23.7969 28.1548 23.9276 28.8268 23.9276 29.5922C23.9276 31.0857 23.3675 32.4111 22.2661 33.6059Z" fill="white"/>
<path d="M13.0999 20.9106L21.6125 25.5404C21.9486 25.727 22.2659 25.9324 22.5646 26.1751L14.0519 21.5454C13.7532 21.3213 13.4545 21.0973 13.0999 20.9106Z" fill="white"/>
<path d="M25.5329 22.7796L17.0203 18.1499C18.4204 16.3764 18.5511 14.0802 17.3003 12.5308L25.813 17.1605C27.0637 18.7099 26.9331 21.0061 25.5329 22.7796Z" fill="white"/>
<path d="M13.1 20.9134L21.6127 25.5431C21.482 25.4684 21.3327 25.3937 21.1833 25.3377L12.6707 20.708C12.82 20.764 12.9693 20.8387 13.1 20.9134Z" fill="#4848D8"/>
<path d="M13.5654 35.1186L5.05273 30.4889C6.28483 31.161 7.72228 31.385 9.34641 31.1423C11.1946 30.881 12.6507 30.1529 13.7521 28.9768L22.2648 33.6065C21.1634 34.8013 19.7072 35.5107 17.8591 35.772C16.2163 35.996 14.7975 35.772 13.5654 35.1186Z" fill="white"/>
<path d="M10.8019 25.6173C10.8019 25.3933 10.6899 25.1879 10.4286 25.0386L18.9413 29.6683C19.2026 29.8176 19.3146 30.023 19.3146 30.247C19.3146 30.5457 19.2026 30.7697 18.9786 30.919C18.7546 31.0684 18.4186 31.1804 17.9892 31.2364C17.3545 31.3297 16.6824 31.2177 15.9917 30.9004C13.1541 29.3509 10.3166 27.8201 7.479 26.2707C8.18839 26.588 8.84178 26.7 9.4765 26.6067C9.90587 26.5507 10.2419 26.4387 10.4659 26.2893C10.6899 26.14 10.8019 25.916 10.8019 25.6173Z" fill="#4848D8"/>
<path d="M10.3169 24.981L18.8296 29.6107C18.8296 29.6107 18.9043 29.648 18.9416 29.6667L10.4289 25.037C10.4289 25.037 10.3542 24.9996 10.3169 24.981Z" fill="#4848D8"/>
<path d="M25.8124 17.1594L17.2997 12.5297L17.1504 12.343L25.6631 16.9727L25.8124 17.1594Z" fill="white"/>
<path d="M25.6633 16.9733L17.1506 12.3436L17.0012 12.2129L25.5139 16.8426L25.6633 16.9733Z" fill="white"/>
<path d="M23.1243 20.6331L14.6116 16.0034C14.8729 15.686 14.8916 15.406 14.6676 15.126L23.1803 19.7557C23.4043 20.0357 23.3856 20.3157 23.1243 20.6331Z" fill="white"/>
<path d="M21.1269 23.1904L12.6143 18.5607L14.6118 16.0032L23.1244 20.6329L21.1269 23.1904Z" fill="white"/>
<path d="M20.7156 23.488L12.2029 18.8583L12.6136 18.5596L21.1263 23.1893L20.7156 23.488Z" fill="white"/>
<path d="M17.0012 12.2117C16.7398 11.969 16.4598 11.7637 16.1611 11.5583L24.6738 16.1881C24.9725 16.3934 25.2525 16.5988 25.5139 16.8414C22.9563 15.46 19.3721 13.8919 17.0012 12.2117Z" fill="white"/>
<path d="M16.1431 11.5602C16.1991 11.4482 16.2551 11.3548 16.3111 11.2615L24.8238 15.8912C24.7678 15.9845 24.7118 16.0965 24.6558 16.1899C22.0982 14.8084 18.7006 12.9416 16.1431 11.5602Z" fill="white"/>
<path d="M20.3044 23.4129L11.7917 18.7832C11.9224 18.8579 12.0718 18.8765 12.1838 18.8579L20.6965 23.4876C20.5658 23.4876 20.4351 23.4876 20.3044 23.4129Z" fill="white"/>
<path d="M20.3049 23.4138L11.7922 18.784C11.7922 18.784 11.7736 18.784 11.7549 18.7654L20.2676 23.3951C20.2676 23.3951 20.2862 23.3951 20.3049 23.4138Z" fill="#4848D8"/>
<path d="M29.8643 14.415C29.0803 14.5271 28.4269 14.3217 27.8855 13.8177C27.3441 13.3323 27.0828 12.6602 27.0828 11.8015C27.0828 10.9428 27.3628 10.14 27.8855 9.46798C28.4269 8.77726 29.0803 8.40389 29.8643 8.29188C30.6857 8.17988 31.3764 8.36656 31.9178 8.90793C32.4779 9.43064 32.7579 10.1214 32.7579 11.0174C32.7579 11.9135 32.4779 12.6229 31.9178 13.2576C31.3578 13.911 30.6671 14.303 29.8457 14.415H29.8643Z" fill="#4848D8"/>
<path d="M13.7891 14.4895L22.3017 19.1192C22.6378 19.3059 22.9178 19.5112 23.1792 19.7353L14.6665 15.1056C14.4051 14.8629 14.1251 14.6575 13.7891 14.4895Z" fill="white"/>
<path d="M10.3188 24.9818L18.8315 29.6115C18.5888 29.4808 18.2901 29.3688 17.9354 29.2754C17.5247 29.1821 17.0767 29.0514 16.5539 28.9581L8.04126 24.3284C8.5453 24.4404 8.99334 24.5524 9.4227 24.6457C9.7774 24.7391 10.0761 24.8511 10.3188 24.9818Z" fill="white"/>
<path d="M7.47955 26.2691C7.96492 26.5118 8.41296 26.7731 8.87966 27.0345C9.34636 27.2958 9.81307 27.5385 10.2798 27.7999C12.1839 28.8266 14.0881 29.872 15.9922 30.8988C15.8616 30.8428 15.7309 30.7681 15.5815 30.6934L7.06885 26.0637C7.19952 26.1384 7.34887 26.2131 7.47955 26.2691Z" fill="#4848D8"/>
<path d="M18.3279 24.4786L9.81519 19.8489C10.2259 19.9422 10.6739 20.0542 11.178 20.1662C11.682 20.2782 12.186 20.4649 12.6714 20.7076L21.1841 25.3373C20.6987 25.0946 20.176 24.9266 19.6906 24.7959C19.2053 24.6653 18.7386 24.5533 18.3279 24.4786Z" fill="#4848D8"/>
<path d="M15.5814 30.7137L7.06867 26.084C6.84465 25.972 6.6393 25.8227 6.41528 25.6733L14.928 30.303C15.152 30.4524 15.376 30.5831 15.5814 30.7137Z" fill="white"/>
<path d="M6.28516 25.5798L14.7978 30.2095C14.7978 30.2095 14.8912 30.2655 14.9285 30.3029L6.41583 25.6732C6.41583 25.6732 6.32249 25.5985 6.28516 25.5798Z" fill="white"/>
<path d="M6.28527 25.5794L14.798 30.2091C14.6859 30.1531 14.5739 30.1344 14.4433 30.1531C14.2566 30.1717 14.1072 30.2837 13.9766 30.4518L5.46387 25.822C5.59454 25.654 5.74389 25.5607 5.93057 25.5234C6.06125 25.5047 6.19193 25.5234 6.28527 25.5794Z" fill="#4848D8"/>
<path d="M5.07241 30.4885C4.51236 30.1898 3.98965 29.7791 3.52295 29.2937L12.0356 33.9234C12.521 34.4088 13.025 34.8195 13.5851 35.1182C11.0276 33.7367 7.62995 31.8699 5.07241 30.4885Z" fill="#4848D8"/>
<path d="M17.3367 24.1409L8.82397 19.5112C9.08533 19.6419 9.40269 19.7539 9.83206 19.8473L18.3447 24.477C17.934 24.3836 17.598 24.2529 17.3367 24.1409Z" fill="#4848D8"/>
<path d="M12.1091 32.86L3.59644 28.2303L5.46325 25.8035L13.9759 30.4332L12.1091 32.86Z" fill="#4848D8"/>
<path d="M14.5566 28.2112L6.04395 23.5815C6.21196 23.6749 6.37997 23.7496 6.54799 23.8242C7.05203 24.0482 7.55607 24.1976 8.04144 24.3283L16.5541 28.958C16.0688 28.8273 15.5647 28.678 15.0607 28.4539C14.8927 28.3793 14.7246 28.2859 14.5566 28.2112Z" fill="white"/>
<path d="M12.0161 33.9238L3.50343 29.2941C3.24208 28.9767 3.27941 28.622 3.59677 28.23L12.1095 32.8597C11.7921 33.2517 11.7734 33.6064 12.0161 33.9238Z" fill="#4848D8"/>
<path d="M17.3364 24.1408L8.82367 19.5111C8.56232 19.3618 8.43164 19.2311 8.43164 19.0257C8.43164 18.6524 8.82367 18.4097 9.58907 18.2977C10.2238 18.2043 10.9705 18.3537 11.7732 18.7457L20.2859 23.3754C19.4832 22.9834 18.7551 22.834 18.1018 22.9274C17.3364 23.0394 16.9443 23.2821 16.9443 23.6554C16.9443 23.8421 17.075 23.9915 17.3364 24.1408Z" fill="white"/>
<path d="M11.7734 38.3657L3.2607 33.736C2.45797 33.3067 1.72992 32.7466 1.05786 32.0559L9.57055 36.6856C10.2426 37.3763 10.9707 37.9364 11.7734 38.3657Z" fill="white"/>
<path d="M9.57025 36.7041L1.05757 32.0744L0.945557 31.9624L9.45824 36.5921L9.57025 36.7041Z" fill="white"/>
<path d="M9.45892 36.5927L0.946238 31.963L0.834229 31.8323L9.34691 36.462L9.45892 36.5927Z" fill="white"/>
<path d="M14.5549 28.212L6.0422 23.5823C5.74351 23.4142 5.44482 23.2276 5.16479 23.0222L13.6775 27.6519C13.9575 27.8573 14.2375 28.044 14.5549 28.212Z" fill="#4848D8"/>
<path d="M12.4829 13.986C12.9683 14.1167 13.3976 14.2847 13.7897 14.4901L22.3024 19.1198C21.929 18.9144 21.481 18.7464 20.9956 18.6158C20.0808 18.3544 19.1101 18.2984 18.0647 18.4477L9.552 13.818C10.5974 13.6687 11.5682 13.7247 12.4829 13.986Z" fill="#4848D8"/>
<path d="M9.68396 30.7324L1.18994 26.1027L2.01134 25.0386L10.524 29.6683L9.68396 30.7324Z" fill="white"/>
<path d="M9.34707 36.4631L0.834387 31.8334C-0.397712 30.2466 -0.248366 27.8944 1.17041 26.1023L9.6831 30.732C8.26432 32.5241 8.11497 34.8763 9.34707 36.4631Z" fill="white"/>
<path d="M13.6964 27.651L5.18369 23.0213C4.77299 22.6853 4.45563 22.2559 4.17561 21.6772C3.91426 21.1171 3.80225 20.4451 3.80225 19.6797C3.80225 18.2049 4.36229 16.9355 5.44504 15.8154C6.54647 14.7139 7.90924 14.0419 9.55204 13.8179L18.0647 18.4476C16.4406 18.6716 15.0778 19.3436 13.9577 20.4451C12.8563 21.5652 12.3149 22.8346 12.3149 24.3094C12.3149 25.0748 12.4269 25.7468 12.6883 26.3069C12.9496 26.8856 13.2857 27.315 13.6964 27.651Z" fill="#4848D8"/>
<path d="M26.5961 25.6914C27.0441 26.7182 27.2682 27.8756 27.2682 29.1264C27.2682 31.6279 26.2974 33.9801 24.5053 35.9402C22.7505 37.8444 20.529 38.9832 17.8781 39.3565C14.6111 39.8232 11.7363 38.8898 9.58941 36.7056L9.4774 36.5936L9.36539 36.4629C8.13329 34.8762 8.28264 32.524 9.70142 30.7318L10.5228 29.6677C10.1868 29.2384 9.90677 28.753 9.66408 28.2303C9.21605 27.2222 8.97336 26.0648 8.99203 24.7953C8.99203 22.2378 10.0001 19.8856 11.9043 17.9628C13.6031 16.2453 15.6752 15.2186 18.0834 14.8825C19.5395 14.6772 20.921 14.7519 22.2278 15.1252C23.1425 15.3866 23.9639 15.7413 24.6733 16.208C24.972 16.4133 25.252 16.6187 25.5134 16.8614L25.6814 16.992L25.812 17.1601C27.0628 18.7095 26.9321 21.0057 25.532 22.7792L25.0467 23.4139C25.6814 24.0113 26.2227 24.7767 26.6148 25.6914H26.5961ZM22.2838 33.6067C23.3852 32.412 23.9452 31.0865 23.9452 29.5931C23.9452 28.8277 23.8146 28.1556 23.5532 27.5582C23.2918 26.9609 22.9745 26.5128 22.5451 26.1581C22.1344 25.8221 21.6864 25.5421 21.1637 25.3181C20.6783 25.0754 20.1556 24.9074 19.6702 24.7767C19.1848 24.646 18.7181 24.534 18.3074 24.4593C17.8967 24.366 17.5607 24.2353 17.2994 24.1233C17.038 23.9739 16.9073 23.8433 16.9073 23.6379C16.9073 23.2646 17.2994 23.0219 18.0648 22.9099C18.6995 22.8165 19.4462 22.9659 20.2489 23.3579C20.3983 23.4512 20.5476 23.4699 20.6783 23.4512L21.089 23.1712L23.0865 20.595C23.3479 20.2776 23.3665 19.9976 23.1425 19.7176C22.5825 19.2136 21.8731 18.8402 20.9583 18.5788C20.0436 18.3175 19.0728 18.2615 18.0274 18.4108C16.4033 18.6348 15.0405 19.3069 13.9204 20.4083C12.819 21.5284 12.2776 22.7978 12.2776 24.2726C12.2776 25.038 12.3896 25.7101 12.651 26.2701C12.9123 26.8488 13.2484 27.2782 13.6591 27.6142C14.0698 27.9316 14.5365 28.193 15.0405 28.417C15.5446 28.641 16.0486 28.7903 16.534 28.921C17.038 29.033 17.486 29.145 17.9154 29.2384C18.3261 29.3504 18.6621 29.4811 18.9235 29.6304C19.1849 29.7797 19.2969 29.9851 19.2969 30.2091C19.2969 30.5078 19.1848 30.7318 18.9608 30.8812C18.7368 31.0305 18.4008 31.1425 17.9714 31.1985C17.038 31.3292 16.0113 31.0305 14.9098 30.2651C14.7792 30.1344 14.6111 30.0784 14.4245 30.1158C14.2378 30.1344 14.0884 30.2464 13.9578 30.4145L12.0909 32.8413C11.7736 33.2334 11.7549 33.5881 11.9976 33.9054C13.5284 35.4735 15.4699 36.0896 17.8594 35.7536C19.7076 35.4922 21.1637 34.7641 22.2651 33.5881" fill="white"/>
<path d="M18.0654 18.4474C19.1108 18.2981 20.0815 18.3541 20.9963 18.6154C21.911 18.8581 22.6204 19.2502 23.1804 19.7542C23.4045 20.0342 23.3858 20.3142 23.1244 20.6316L21.1269 23.2078L20.7162 23.4878C20.5856 23.5065 20.4362 23.4878 20.2869 23.3945C19.4841 23.0025 18.7561 22.8531 18.1027 22.9465C17.3373 23.0585 16.9453 23.3012 16.9453 23.6745C16.9453 23.8612 17.076 24.0105 17.3373 24.1599C17.5987 24.2906 17.916 24.4026 18.3454 24.4959C18.7561 24.5893 19.2041 24.7013 19.7082 24.8133C20.2122 24.9253 20.7162 25.112 21.2016 25.3547C21.7057 25.5787 22.1537 25.8587 22.5831 26.1947C22.9938 26.5307 23.3298 26.9974 23.5911 27.5948C23.8525 28.1922 23.9832 28.8643 23.9832 29.6297C23.9832 31.1231 23.4231 32.4486 22.3217 33.6433C21.2203 34.8381 19.7642 35.5475 17.916 35.8088C15.5452 36.1449 13.585 35.5288 12.0542 33.9607C11.7929 33.6433 11.8302 33.2886 12.1476 32.8966L14.0144 30.4697C14.145 30.3017 14.2944 30.2084 14.4811 30.171C14.6678 30.1524 14.8358 30.2084 14.9664 30.3204C16.0679 31.0858 17.0946 31.4031 18.028 31.2538C18.4574 31.1978 18.7934 31.0858 19.0174 30.9364C19.2415 30.7871 19.3535 30.5631 19.3535 30.2644C19.3535 30.0404 19.2415 29.835 18.9801 29.6857C18.7187 29.5363 18.3827 29.4056 17.972 29.2936C17.5613 29.2003 17.1133 29.0696 16.5906 28.9763C16.1052 28.8456 15.6012 28.6963 15.0971 28.4722C14.6118 28.2482 14.145 27.9682 13.7157 27.6695C13.305 27.3335 12.9876 26.9041 12.7076 26.3254C12.4462 25.7654 12.3342 25.0933 12.3342 24.3279C12.3342 22.8531 12.8943 21.5837 13.977 20.4636C15.0785 19.3622 16.4412 18.6901 18.084 18.4661L18.0654 18.4474Z" fill="#4848D8"/>
<path d="M15.6 11.2227L24.1127 15.8524C23.534 15.535 22.9179 15.2923 22.2272 15.1057C20.9204 14.7323 19.539 14.6576 18.0829 14.863C15.6747 15.199 13.6025 16.2257 11.9037 17.9432C9.99955 19.8474 8.99147 22.1996 8.99147 24.7758C8.99147 26.0452 9.23416 27.2026 9.66352 28.2107C9.90621 28.7334 10.1862 29.2375 10.5223 29.6482L2.00958 25.0371C1.67355 24.6078 1.39353 24.1224 1.15084 23.5997C0.702804 22.5916 0.460118 21.4342 0.478786 20.1647C0.478786 17.6072 1.48687 15.255 3.39102 13.3322C5.08982 11.6147 7.16199 10.588 9.57018 10.2519C11.0263 10.0466 12.4077 10.1213 13.7145 10.4946C14.4052 10.6813 15.04 10.9427 15.6 11.2413V11.2227Z" fill="white"/>
</svg>
