<?xml version="1.0" encoding="UTF-8"?>
<svg enable-background="new 0 0 131 64" version="1.1" viewBox="0 0 131 64" xml:space="preserve" xmlns="http://www.w3.org/2000/svg">
<style type="text/css">
	.st0{fill:#FFFFFF;}
	.st1{fill:#4848D8;}
</style>

	<path class="st0" d="m130.2 36.3z"/>
	<path class="st0" d="m129 30.2c-0.9-2.1-2.3-3.7-4.2-4.8h0.1l-8.5-4.6c-1.7-0.9-3.8-1.3-6-0.9-0.3-0.7-0.8-1.2-1.5-1.5l-8.3-4.5c-0.6-0.3-1.3-0.5-2.1-0.4l-3.9 0.5c-0.4 0.1-0.7 0.2-1.1 0.3-0.1-2.9-0.9-5.1-2.3-6.7-0.6-0.6-1.3-1.3-2.4-1.7l-8-4.3c-1.9-1.3-6.1-1.1-8.5 0.4-0.5-0.2-1.1-0.2-1.7-0.1l-3.9 0.5c-2 0.3-3.5 1.9-3.8 3.9-0.9-0.5-1.8-1-2.6-1.4-0.1-0.1-0.3-0.1-0.4-0.2-4.9-2.4-11.1 0.1-14.1 4.4l-3.8-2.1c-1.5-1-4.9-1.2-7.1-0.2-0.2-0.3-0.4-0.6-0.7-0.8-1.2-1.1-2.1-1.4-1.1-0.8l-8.5-4.6c-1-0.5-2.1-0.7-3.3-0.6-4.8 0.6-7.9 7.2-5 11.2 0 0.1-0.1 0.2-0.1 0.3l-0.6-0.3c-8.5-4.5-19.3 5.4-13.6 13.8l-0.8 1.1c-1.4 1.8-1.6 4.1-0.3 5.7v0.2l0.1 0.1h0.1c1.3 1.5 7.4 4.4 9.1 5.4-0.1 0.8-0.1 1.6 0.2 2.3l5.1 14.6c0.4 1.1 1 1.8 1.7 2.1l8.5 4.6c0.7 0.4 1.4 0.5 2.1 0.4l4.3-0.6c1.4-0.1 3.3-1.6 3.9-3.9l3.8 2.1c0.6 0.4 1.4 0.6 2.3 0.4 2-0.4 4.8-0.2 6.2-1.7l0.2 0.1c-0.1 0-0.1-0.1-0.2-0.1-0.7-0.5-1-0.6 0 0 0.6 0.4 1.4 0.6 2.3 0.5 0.6-0.1 4.2-0.5 4.6-0.7 2.8 1.7 6.5 3.6 9.4 5.2 6.7 3.8 17.1-1.2 18.6-11.1l1.3 0.7c-0.5-0.3-0.5-0.3 0 0 2 1.2 6.1 1.1 8.4-0.5 1 0.5 4.3-0.3 5.6-0.4 0.8-0.1 1.6-0.5 2.2-1 0 0 0.1 0 0.1 0.1l-0.1-0.1c-0.1-0.1-0.1-0.1 0 0 0.6 0.4 1.4 0.5 2.3 0.4l3.9-0.5c2-0.3 3.5-1.9 3.8-4l2.7 1.5c-0.1 0-0.1-0.1-0.2-0.1 4.4 2.6 9.9 0.9 13.8-2.1 1.6-1.2 2.5-3.8 1.5-5.7 2.7-2.3 1.6-7.1 0.5-9.8zm-88.1-18.2zm-7.8 3.3c-0.1 0-0.1 0 0 0zm26.8 4.9zm-26.4-5.7zm56 10.9zm-17.1-16.3c-0.1 0-0.1 0 0 0zm-7.1-0.5v0zm42.8 9.6zm-82.9 42.6c0.1 0.1 0.3 0.2 0.4 0.3-0.2-0.1-0.3-0.2-0.4-0.3zm14.2-1.9 0.1 0.1c0-0.1 0-0.1-0.1-0.1zm2.3-3z"/>


	<path class="st1" d="m126 32c-1.6-4.4-7.4-5.1-10.8-2.1-3.1 2.6-4.6 7.4-3 11.2 0.8 2 2.2 3.4 4.3 4 3.1 0.9 6.4-0.3 9-2.3l0.3-0.4-0.1-0.4-1.8-2.4c-0.2-0.2-0.3-0.2-0.5-0.2l-0.3 0.1c-2.1 1.4-5.6 2.2-6.6-0.6l9.8-1.4c0.4-0.1 0.6-0.3 0.6-0.7 0-1.8-0.3-3.5-0.9-4.8zm-9.6 3.1c0.6-3 4.7-4.2 5.5-0.8l-5.5 0.8z"/>
	<path class="st1" d="m107 21.8-3.9 0.5c-0.4 0.1-0.6 0.3-0.6 0.7v23.7c0 0.4 0.2 0.6 0.6 0.5l3.9-0.5c0.4-0.1 0.6-0.3 0.6-0.7v-23.7c-0.1-0.4-0.2-0.6-0.6-0.5z"/>
	<path class="st1" d="m98.6 31.3-3.9 0.5c-0.4 0.1-0.6 0.3-0.6 0.7v8.3c0.1 1.4-1.3 3.1-2.7 3.3-1.9 0.3-2.6-1.2-2.6-3v-7.8c0-0.4-0.2-0.6-0.6-0.6l-3.9 0.5c-0.4 0.1-0.6 0.3-0.6 0.7v8.9c0 2.4 0.5 4.1 1.5 5.3 2.4 2.6 7 1.4 8.8-1.8v1.5c0 0.4 0.2 0.6 0.6 0.5l3.9-0.5c0.4-0.1 0.6-0.3 0.6-0.7v-15.4c0.1-0.3-0.1-0.5-0.5-0.4z"/>
	<path class="st1" d="m79.5 34-3.9 0.5c-0.9 0.1-0.5 1.3-0.6 2.1-2.7-3-7.1-1.8-9.2 1.5-2 2.8-2.5 7.4-1 10.6 0.5 1.2 1.3 2.1 2.3 2.7 2.7 1.6 6.2 0.3 7.9-2.3 0 1.5 0.1 3.3-1 4.6-1.1 1.7-4.8 2.2-6.3 0.7l-0.3-0.1c-0.1 0-0.3 0.1-0.4 0.3l-2 3.2c-0.2 0.3-0.2 0.6 0 0.8 3.5 3.3 9.7 1.9 12.5-1.8 1.6-2 2.5-4.4 2.5-7.2v-15.1c0.1-0.4-0.1-0.6-0.5-0.5zm-5.2 11.4c-1 1.2-3.2 1.7-4.4 0.6-1.9-1.8-0.5-5.9 2.2-6.1 3-0.5 3.8 3.6 2.2 5.5z"/>
	<path class="st1" d="m61.2 36.8c-0.6-0.3-1.4-0.4-2.4-0.2-1.6 0.2-3.2 1.8-3.8 3.3v-1.8c0-0.4-0.2-0.6-0.6-0.6l-3.8 0.5c-0.4 0.1-0.6 0.3-0.6 0.7v15.4c0 0.4 0.2 0.6 0.6 0.5l3.9-0.5c0.4-0.1 0.6-0.3 0.6-0.7v-6.9c-0.1-2.7 1.9-5.2 4.6-4.4h0.3c0.2 0 0.3-0.1 0.4-0.4 0.1-0.4 1.2-4.3 1.1-4.6 0-0.1-0.1-0.2-0.3-0.3z"/>
	<path class="st1" d="m45.9 38.7-3.9 0.5c-0.4 0.1-0.6 0.3-0.6 0.7v15.4c0 0.4 0.2 0.6 0.6 0.5l3.9-0.5c0.4-0.1 0.6-0.3 0.6-0.7v-15.4c0-0.4-0.2-0.6-0.6-0.5z"/>
	<path class="st1" d="m37.5 39.9-4.1 0.6c-0.3 0-0.5 0.3-0.6 0.7l-2.9 9.1-2.9-8.3c-0.1-0.4-0.4-0.6-0.6-0.6l-4 0.6c-0.4 0-0.5 0.4-0.4 0.7l5.1 14.6c0.1 0.4 0.4 0.6 0.6 0.6l4.3-0.6c0.3 0 0.5-0.3 0.7-0.7l5.2-16.1c0.1-0.2 0.1-0.4 0-0.5s-0.2-0.1-0.4-0.1z"/>
	<path class="st1" d="m85.1 17.5v7.8c0 0.4 0.2 0.6 0.6 0.6l3.9-0.5c0.4-0.1 0.6-0.3 0.6-0.7v-8.9c0-4.2-1.6-7.1-5.8-6.6-1.8 0.3-3.4 1.3-4.6 3.1v-1.5c0-0.4-0.2-0.6-0.6-0.5l-3.9 0.5c-0.4 0.1-0.6 0.3-0.6 0.7v15.4c0 0.4 0.2 0.6 0.6 0.5l3.9-0.5c0.4-0.1 0.6-0.3 0.6-0.7v-8.3c-0.1-2.1 3-4.6 4.6-2.6 0.5 0.5 0.7 1.2 0.7 2.2z"/>
	<path class="st1" d="m69.7 24.2c2.8-5.4-0.1-13-6.9-12-6.1 0.8-10 8.7-6.9 14 0.7 1.3 1.6 2.2 2.9 2.7 2.5 1.3 5.8 0.7 8-1.1 1.2-1 2.2-2.2 2.9-3.6zm-4.7-1.2c-1 1.4-3.1 1.9-4.3 0.6-1.8-1.9-0.6-6 2.2-6.3 3-0.4 3.8 3.8 2.1 5.7z"/>
	<path class="st1" d="m51.4 30.1v-8.9c0-4.2-1.6-7.2-5.8-6.6-1.8 0.3-3.4 1.3-4.6 3.1v-1.5c0-0.4-0.2-0.6-0.6-0.5l-3.9 0.5c-0.4 0.1-0.6 0.3-0.6 0.7v15.4c0 0.4 0.2 0.6 0.6 0.5l3.9-0.5c0.4-0.1 0.6-0.3 0.6-0.7v-8.3c-0.1-2.1 3-4.6 4.6-2.6 0.4 0.6 0.7 1.3 0.7 2.3v7.8c0 0.4 0.2 0.6 0.6 0.6l3.9-0.5c0.4-0.1 0.6-0.4 0.6-0.8z"/>
	<path class="st1" d="m28 17.4c-0.4 0.1-0.6 0.3-0.6 0.7v15.4c0 0.4 0.2 0.6 0.6 0.5l3.9-0.5c0.4-0.1 0.6-0.3 0.6-0.7v-15.4c0-0.4-0.2-0.6-0.6-0.5l-3.9 0.5z"/>
	<path class="st1" d="m29.9 14.4c2.5-0.2 3.9-3.8 2.1-5.5-2.9-2.5-6.5 2.5-4 4.9 0.4 0.5 1.1 0.7 1.9 0.6z"/>
	<path class="st1" d="m24 29.6c0-1.3-0.5-2.6-1.4-3.4-0.4-0.3-0.9-0.6-1.4-0.8-1.2-0.6-2.7-0.7-3.9-1.2-0.3-0.1-0.4-0.3-0.4-0.5 0.2-1.1 2.3-0.8 3.3-0.3 0.1 0.1 0.3 0.1 0.4 0.1l0.4-0.3 2-2.6c0.3-0.3 0.3-0.6 0.1-0.9-0.6-0.5-1.3-0.9-2.2-1.1-0.9-0.3-1.9-0.3-2.9-0.2-4.4 0.3-7.9 5.9-4.4 9.2 0.8 0.6 1.9 1.1 2.9 1.3 0.5 0.1 1 0.2 1.4 0.3 0.6 0.2 1.3 0.3 1.4 1 0 0.7-0.6 0.9-1.3 1-0.9 0.1-2-0.2-3.1-0.9-0.1-0.1-0.3-0.2-0.5-0.1-0.2 0-0.3 0.1-0.5 0.3l-1.9 2.4c-0.3 0.4-0.4 0.7-0.1 1.1 3.8 4 12.2 1.3 12.1-4.4z"/>

</svg>
